<?xml version="1.0" encoding="utf-8"?>
<!-- Generator: Adobe Illustrator 16.0.0, SVG Export Plug-In . SVG Version: 6.00 Build 0)  -->
<!DOCTYPE svg PUBLIC "-//W3C//DTD SVG 1.1//EN" "http://www.w3.org/Graphics/SVG/1.1/DTD/svg11.dtd">
<svg version="1.1" id="Layer_1" xmlns="http://www.w3.org/2000/svg" xmlns:xlink="http://www.w3.org/1999/xlink" x="0px" y="0px"
	 width="205px" height="84px" viewBox="0 0 205 84" enable-background="new 0 0 205 84" xml:space="preserve">
<g>
	<path fill="#FFFFFF" d="M34.357,33.773l-11.35,9.461L11.65,33.766C11.253,34.132,11,34.651,11,35.234v13C11,49.338,11.896,50,13,50
		h20c1.104,0,2-0.662,2-1.766v-13C35,34.655,34.75,34.138,34.357,33.773z"/>
	<polygon fill="#DCDCDC" points="34.357,33.773 11.65,33.766 23.008,43.234 	"/>
</g>
<g>
	<g>
		<path fill="#FFFFFF" d="M52.709,26.988h1.653l1.245,5.837c0.256,1.179,0.493,2.424,0.772,4.506
			c0.022-0.215,0.043-0.343,0.043-0.365c0.364-2.232,0.623-3.648,0.73-4.249l1.115-5.73h1.675l1.331,14.313h-1.868l-0.322-4.85
			c-0.021-0.257-0.021-0.408-0.086-2.253c-0.021-0.515,0.021-1.353-0.085-2.511l-0.022-0.236c-0.128,0.816-0.321,2.017-0.623,3.605
			l-1.202,6.245h-1.287l-1.138-5.407c-0.192-0.901-0.558-3.069-0.751-4.443l-0.558,9.85h-1.803L52.709,26.988z"/>
		<path fill="#FFFFFF" d="M64.885,26.988h1.502l3.069,14.313h-1.911l-0.537-2.79h-2.833l-0.557,2.79h-1.847L64.885,26.988z
			 M66.73,37.031l-0.429-2.296c-0.258-1.417-0.58-3.798-0.687-4.957c-0.194,1.802-0.451,3.519-0.816,5.408l-0.364,1.846H66.73z"/>
		<path fill="#FFFFFF" d="M71.37,28.684h-2.232v-1.696h6.288v1.696h-2.167v12.618H71.37V28.684z"/>
		<path fill="#FFFFFF" d="M78.414,28.684h-2.232v-1.696h6.288v1.696h-2.167v12.618h-1.888V28.684z"/>
		<path fill="#FFFFFF" d="M83.289,31.752l1.266-5.214l1.545,0.451l-1.845,5.043L83.289,31.752z"/>
		<path fill="#FFFFFF" d="M87.927,38.898c0.751,0.559,1.244,0.75,1.867,0.75c1.03,0,1.674-0.75,1.674-1.952
			c0-1.031-0.365-1.717-1.63-2.94c-1.245-1.225-1.524-1.545-1.868-2.19c-0.322-0.6-0.494-1.309-0.494-2.125
			c0-2.232,1.244-3.649,3.24-3.649c0.794,0,1.245,0.108,1.975,0.494l-0.021,1.888c-0.622-0.471-1.051-0.643-1.567-0.643
			c-1.03,0-1.737,0.794-1.737,1.91c0,0.966,0.279,1.417,1.973,3.112c0.859,0.879,1.181,1.287,1.438,1.802
			c0.386,0.708,0.579,1.502,0.579,2.34c0,2.231-1.374,3.798-3.327,3.798c-0.836,0-1.481-0.214-2.103-0.687V38.898z"/>
		<path fill="#FFFFFF" d="M98.986,26.988h1.803l1.931,5.708c0.472,1.395,1.18,3.927,1.459,5.171
			c-0.321-2.339-0.451-3.885-0.451-5.537v-5.343h1.933v14.313h-1.803l-2.168-6.438c-0.687-2.039-0.687-2.167-1.03-3.842
			c-0.021-0.108-0.084-0.408-0.172-0.729c0.043,0.365,0.087,0.622,0.087,0.708c0.063,0.966,0.107,1.803,0.15,2.511l0.042,0.708
			c0.022,0.064,0.022,0.386,0.022,0.837l0.106,6.245h-1.909V26.988z"/>
		<path fill="#FFFFFF" d="M107.856,26.988h5.129v1.63h-3.197v4.55h2.832v1.63h-2.832v4.872h3.197v1.63h-5.129V26.988z"/>
		<path fill="#FFFFFF" d="M114.127,26.988h1.867l0.965,6.652l0.151,0.987c0.085,0.537,0.128,1.03,0.171,1.438l0.107,1.224
			l0.042,0.472c0.192-1.953,0.279-2.94,0.559-4.571l1.03-6.202h1.481l0.965,6.009c0.3,1.888,0.494,3.434,0.58,4.657
			c0.128-1.395,0.385-3.583,0.601-5.064l0.837-5.602h1.824l-2.511,14.313h-1.503l-1.009-6.18c-0.106-0.708-0.172-1.267-0.236-1.653
			l-0.17-1.115c-0.087-0.558-0.064-0.666-0.151-1.675c-0.021,0.279-0.043,0.559-0.064,0.623c-0.063,0.773-0.107,1.266-0.128,1.373
			l-0.173,1.374c-0.086,0.601-0.15,0.987-0.171,1.073l-1.052,6.18h-1.546L114.127,26.988z"/>
		<path fill="#FFFFFF" d="M126.711,38.898c0.75,0.559,1.244,0.75,1.866,0.75c1.031,0,1.673-0.75,1.673-1.952
			c0-1.031-0.363-1.717-1.63-2.94c-1.245-1.225-1.524-1.545-1.868-2.19c-0.32-0.6-0.492-1.309-0.492-2.125
			c0-2.232,1.244-3.649,3.24-3.649c0.794,0,1.245,0.108,1.975,0.494l-0.021,1.888c-0.623-0.471-1.052-0.643-1.566-0.643
			c-1.03,0-1.738,0.794-1.738,1.91c0,0.966,0.278,1.417,1.974,3.112c0.858,0.879,1.181,1.287,1.438,1.802
			c0.387,0.708,0.58,1.502,0.58,2.34c0,2.231-1.374,3.798-3.326,3.798c-0.837,0-1.48-0.214-2.103-0.687V38.898z"/>
		<path fill="#FFFFFF" d="M133.774,26.988h1.932v12.683h3.155v1.63h-5.087V26.988z"/>
		<path fill="#FFFFFF" d="M140.067,26.988h5.13v1.63H142v4.55h2.831v1.63H142v4.872h3.197v1.63h-5.13V26.988z"/>
		<path fill="#FFFFFF" d="M148.549,28.684h-2.232v-1.696h6.288v1.696h-2.168v12.618h-1.888V28.684z"/>
		<path fill="#FFFFFF" d="M155.592,28.684h-2.232v-1.696h6.288v1.696h-2.166v12.618h-1.89V28.684z"/>
		<path fill="#FFFFFF" d="M160.704,26.988h5.129v1.63h-3.197v4.55h2.832v1.63h-2.832v4.872h3.197v1.63h-5.129V26.988z"/>
		<path fill="#FFFFFF" d="M167.597,26.988h2.532c1.053,0,1.589,0.128,2.104,0.536c0.793,0.602,1.224,1.739,1.224,3.198
			c0,1.223-0.279,2.21-0.861,2.939c-0.299,0.387-0.578,0.559-1.114,0.688l2.618,6.953h-1.952l-2.618-6.996v6.996h-1.933V26.988z
			 M170.923,32.997c0.431-0.343,0.667-1.052,0.667-1.953c0-0.923-0.216-1.717-0.536-2.083c-0.259-0.278-0.602-0.386-1.225-0.386
			h-0.3v4.765C170.28,33.318,170.645,33.233,170.923,32.997z"/>
	</g>
	<g>
		<path fill="#FFFFFF" d="M51.535,52.32c0-2.186,0.335-3.814,0.941-4.758c0.448-0.67,1.198-1.068,1.996-1.068
			c0.495,0,0.926,0.111,1.276,0.352v1.084c-0.542-0.367-0.83-0.477-1.229-0.477c-0.607,0-1.149,0.365-1.421,0.973
			c-0.351,0.75-0.542,1.994-0.542,3.496c0,1.773,0.239,3.145,0.687,3.895c0.239,0.398,0.719,0.654,1.197,0.654
			c0.415,0,0.798-0.145,1.309-0.479v1.006c-0.462,0.303-0.91,0.445-1.388,0.445c-0.718,0-1.469-0.414-1.916-1.053
			C51.822,55.498,51.535,54.221,51.535,52.32z"/>
		<path fill="#FFFFFF" d="M56.913,46.654h0.989v9.736h2.315v0.91h-3.304V46.654z"/>
		<path fill="#FFFFFF" d="M61.109,46.654h0.988v10.646h-0.988V46.654z"/>
		<path fill="#FFFFFF" d="M63.549,52.32c0-2.186,0.335-3.814,0.942-4.758c0.447-0.67,1.197-1.068,1.996-1.068
			c0.496,0,0.926,0.111,1.277,0.352v1.084c-0.542-0.367-0.83-0.477-1.229-0.477c-0.606,0-1.149,0.365-1.421,0.973
			c-0.351,0.75-0.542,1.994-0.542,3.496c0,1.773,0.239,3.145,0.687,3.895c0.239,0.398,0.718,0.654,1.196,0.654
			c0.415,0,0.798-0.145,1.31-0.479v1.006c-0.462,0.303-0.91,0.445-1.388,0.445c-0.719,0-1.47-0.414-1.917-1.053
			C63.837,55.498,63.549,54.221,63.549,52.32z"/>
		<path fill="#FFFFFF" d="M68.927,46.654h0.989v4.836l2.139-4.836h1.102l-2.298,5.061l2.314,5.586h-1.118l-2.139-5.363v5.363h-0.989
			V46.654z"/>
		<path fill="#FFFFFF" d="M77.16,46.654h0.989V50.9h2.427v-4.246h0.99v10.646h-0.99v-5.49h-2.427v5.49H77.16V46.654z"/>
		<path fill="#FFFFFF" d="M83.304,46.654h3.336v0.908h-2.347v3.752h2.283v0.91h-2.283v4.166h2.347v0.91h-3.336V46.654z"/>
		<path fill="#FFFFFF" d="M88.169,46.654h1.325c1.197,0,1.756,0.143,2.219,0.557c0.511,0.449,0.766,1.199,0.766,2.268
			c0,1.758-0.654,2.602-2.091,2.715l2.458,5.107h-1.133l-2.474-5.205v5.205h-1.07V46.654z M89.909,51.314
			c1.085,0,1.484-0.494,1.484-1.852c0-1.422-0.415-1.9-1.612-1.9h-0.542v3.752H89.909z"/>
		<path fill="#FFFFFF" d="M94.105,46.654h3.335v0.908h-2.347v3.752h2.284v0.91h-2.284v4.166h2.347v0.91h-3.335V46.654z"/>
		<path fill="#FFFFFF" d="M102.626,47.563h-1.596v-0.908h4.183v0.908h-1.598v9.738h-0.989V47.563z"/>
		<path fill="#FFFFFF" d="M105.721,51.971c0-2.236,0.319-3.752,0.99-4.646c0.399-0.527,0.975-0.814,1.629-0.814
			c1.787,0,2.617,1.758,2.617,5.521c0,3.658-0.846,5.412-2.617,5.412C106.599,57.443,105.721,55.625,105.721,51.971z
			 M109.951,52.002c0-3.193-0.463-4.535-1.596-4.535c-1.102,0-1.628,1.438-1.628,4.504c0,3.064,0.526,4.5,1.628,4.5
			C109.473,56.471,109.951,55.146,109.951,52.002z"/>
		<path fill="#FFFFFF" d="M115.343,55.625c0.591,0.607,1.103,0.861,1.724,0.861c0.926,0,1.612-0.797,1.612-1.898
			c0-0.926-0.336-1.389-1.676-2.301c-1.484-1.004-1.965-1.738-1.965-2.951c0-1.629,1.038-2.826,2.443-2.826
			c0.623,0,1.103,0.158,1.676,0.559v1.26c-0.573-0.639-0.974-0.861-1.58-0.861c-0.895,0-1.532,0.734-1.532,1.74
			c0,0.863,0.382,1.453,1.389,2.125c1.772,1.213,2.251,1.867,2.251,3.129c0,1.691-1.165,3.002-2.666,3.002
			c-0.623,0-1.181-0.178-1.676-0.561V55.625z"/>
		<path fill="#FFFFFF" d="M120.927,46.654h0.989v10.646h-0.989V46.654z"/>
		<path fill="#FFFFFF" d="M123.399,51.762c0-2.043,0.208-3.256,0.655-4.102c0.383-0.719,1.101-1.15,1.931-1.15
			c0.656,0,1.263,0.287,1.613,0.75c0.238,0.32,0.383,0.623,0.542,1.26l-0.974,0.385c-0.207-1.037-0.542-1.438-1.196-1.438
			c-1.103,0-1.565,1.246-1.565,4.168c0,1.723,0.112,3.049,0.335,3.814c0.192,0.654,0.623,1.021,1.198,1.021
			c0.462,0,0.813-0.223,1.005-0.623c0.159-0.35,0.224-0.957,0.224-2.266v-0.99h-1.452v-0.91h2.441v2.141
			c0,1.117-0.078,1.77-0.255,2.234c-0.367,0.91-1.052,1.387-2.012,1.387c-0.703,0-1.292-0.27-1.692-0.797
			C123.672,55.945,123.399,54.268,123.399,51.762z"/>
		<path fill="#FFFFFF" d="M129.64,46.654h0.86l2.411,7.232l0.383,1.26c-0.063-0.576-0.096-1.037-0.096-1.549v-6.943h0.862v10.646
			h-0.862l-2.348-7.023c-0.207-0.605-0.334-1.119-0.446-1.502c0.065,0.783,0.096,1.277,0.096,1.885v6.641h-0.86V46.654z"/>
		<path fill="#FFFFFF" d="M138.799,54.109v-7.455h0.988v7.375c0,1.355,0.064,1.725,0.319,2.043c0.224,0.254,0.56,0.398,0.943,0.398
			c0.398,0,0.749-0.176,0.957-0.463c0.224-0.303,0.288-0.717,0.288-1.979v-7.375h0.989v7.455c0,1.355-0.079,1.867-0.352,2.33
			c-0.368,0.654-1.021,1.004-1.9,1.004c-0.926,0-1.627-0.414-1.963-1.164C138.861,55.848,138.799,55.338,138.799,54.109z"/>
		<path fill="#FFFFFF" d="M145.021,46.654h1.277c1.947,0,2.698,0.781,2.698,2.824c0,2.012-0.671,2.73-2.571,2.73h-0.415v5.092
			h-0.989V46.654z M146.664,51.299c0.989,0,1.326-0.463,1.326-1.82c0-1.42-0.383-1.916-1.484-1.916h-0.496v3.736H146.664z"/>
		<path fill="#FFFFFF" d="M150.797,55.977c0.398,0,0.719,0.318,0.719,0.719c0,0.398-0.32,0.717-0.719,0.717
			c-0.399,0-0.718-0.318-0.718-0.734C150.079,56.295,150.414,55.977,150.797,55.977z"/>
	</g>
</g>
</svg>
