<?xml version="1.0" encoding="utf-8"?>

<!-- Generator: Adobe Illustrator 18.1.1, SVG Export Plug-In . SVG Version: 6.00 Build 0)  -->
<svg width="100px" height="100px" version="1.1" id="mobile" xmlns="http://www.w3.org/2000/svg" xmlns:xlink="http://www.w3.org/1999/xlink" x="0px" y="0px"
	 viewBox="0 0 50 50" enable-background="new 0 0 50 50" xml:space="preserve">
<g>
	<path fill="#77C8DA" d="M27.8,10.9h-5.6c-0.3,0-0.6,0.3-0.6,0.6s0.3,0.6,0.6,0.6h5.6c0.3,0,0.6-0.3,0.6-0.6S28.1,10.9,27.8,10.9z"
		/>
	<circle fill="#77C8DA" cx="25" cy="37.9" r="1.1"/>
	<path fill="#77C8DA" d="M32.9,8.7H17.1c-0.6,0-1.1,0.5-1.1,1.1v30.4c0,0.6,0.5,1.1,1.1,1.1h15.8c0.6,0,1.1-0.5,1.1-1.1V14.3v-1.1
		V9.8C34,9.2,33.5,8.7,32.9,8.7z M32.9,40.2H17.1v-4.5h15.8V40.2z M32.9,34.6H17.1V14.3h15.8V34.6z M17.1,13.2V9.8h15.8v3.4H17.1z"
		/>
</g>
</svg>
