<?xml version="1.0" encoding="utf-8"?>
<!-- Generator: Adobe Illustrator 18.1.1, SVG Export Plug-In . SVG Version: 6.00 Build 0)  -->
<svg width="100px" height="100px" version="1.1" id="email" xmlns="http://www.w3.org/2000/svg" xmlns:xlink="http://www.w3.org/1999/xlink" x="0px" y="0px"
	 viewBox="0 0 50 50" enable-background="new 0 0 50 50" xml:space="preserve">
<g>
	<path fill="#77C8DA" d="M40,14.5H10c-0.6,0-1,0.4-1,1v0.4v18.6c0,0.6,0.4,1,1,1h15h15c0.6,0,1-0.4,1-1V15.9v-0.4
		C41,14.9,40.6,14.5,40,14.5z M40,33.7l-8.5-10.4l8.5-6.2V33.7z M10,15.5h30v0.4l-11.8,8.6c-0.9,0.7-2.1,1-3.2,1s-2.3-0.3-3.2-1
		L10,15.9V15.5z M10,17.1l8.5,6.2L10,33.7V17.1z M10.6,34.5l8.6-10.6l1.9,1.4c1,0.8,2.4,1.2,3.8,1.2c1.4,0,2.8-0.4,3.8-1.2l1.9-1.4
		l8.6,10.6H25H10.6z"/>
</g>
</svg>