<?xml version="1.0" encoding="utf-8"?>
<!-- Generator: Adobe Illustrator 18.1.0, SVG Export Plug-In . SVG Version: 6.00 Build 0)  -->
<svg version="1.1" id="Layer_1" xmlns="http://www.w3.org/2000/svg" xmlns:xlink="http://www.w3.org/1999/xlink" x="0px" y="0px"
	 viewBox="0 0 100 100" enable-background="new 0 0 100 100" xml:space="preserve">
<path  fill="#E1471B" stroke-width="2" stroke-miterlimit="10" d="M77.5,29.4c-2,0.9-4.1,1.5-6.4,1.7
	c2.3-1.4,4-3.5,4.9-6.1c-2.1,1.3-4.5,2.2-7,2.7c-2-2.2-4.9-3.5-8.1-3.5c-6.1,0-11.1,5-11.1,11.1c0,0.9,0.1,1.7,0.3,2.5
	c-9.2-0.5-17.4-4.9-22.8-11.6c-1,1.6-1.5,3.5-1.5,5.6c0,3.8,2,7.2,4.9,9.2c-1.8-0.1-3.5-0.6-5-1.4c0,0,0,0.1,0,0.1
	c0,5.4,3.8,9.8,8.9,10.9c-0.9,0.3-1.9,0.4-2.9,0.4c-0.7,0-1.4-0.1-2.1-0.2c1.4,4.4,5.5,7.6,10.3,7.7c-3.8,3-8.6,4.7-13.7,4.7
	c-0.9,0-1.8-0.1-2.6-0.2c4.9,3.1,10.7,5,17,5C60.9,68.1,72,51.2,72,36.6c0-0.5,0-1,0-1.4C74.2,33.6,76,31.6,77.5,29.4z"/>
</svg>
