<?xml version="1.0" encoding="utf-8"?>
<!-- Generator: Adobe Illustrator 18.1.1, SVG Export Plug-In . SVG Version: 6.00 Build 0)  -->
<svg version="1.1" id="phone" xmlns="http://www.w3.org/2000/svg" xmlns:xlink="http://www.w3.org/1999/xlink" x="0px" y="0px"
	 viewBox="590 350 100 100" enable-background="new 590 350 100 100" xml:space="preserve">
<path fill="#77C8DA" d="M644.6,432.1c-1.5,0-2.6-0.2-2.8-0.2c-0.2,0-0.5-0.1-0.7-0.3c-6.5-4.6-11.8-13.3-15.7-25.8l-0.4-1.3
	c-4.1-12.4-4.8-22.9-2.2-30.4c0.1-0.2,0.2-0.5,0.4-0.6c0.1-0.1,3.3-3.2,7.1-4.2c0.1,0,4.8-1.4,7.4-1.4c0.7,0,1.2,0.1,1.6,0.2
	c1.1,0.4,2.4,1.5,2.7,3.5l1.2,10.8c0.1,0.6,0.5,3.4-2.3,5.2l-4.3,2.9l0.2,0.9c0.6,2.6,1.5,6.3,2.4,8.9l0.1,0.3
	c0.8,2.8,2.1,6.2,3.2,8.6l0.4,0.9c0,0,5.2-0.1,5.2-0.1c3.4,0,4.6,2.4,4.8,2.8l5.3,9.6c1.2,2.3,0.3,3.9-0.1,4.4
	c-0.4,0.6-1.9,2.2-8.1,4.4C648.5,431.8,646.6,432.1,644.6,432.1z M637.3,371.2c-1.7,0.1-4.6,0.8-6.1,1.2c-2.2,0.6-4.3,2.2-5.1,2.8
	l-0.3,0.3l-0.1,0.4c-2,6.7-1.2,16.5,2.4,27.5c0,0,0.3,1,0.4,1.4c4.4,14.1,10,20.6,13.8,23.6l0.3,0.3l0.4,0c0.4,0,0.9,0.1,1.5,0.1
	c1.7,0,3.1-0.2,4.3-0.7c2.2-0.8,4.6-1.8,5.7-2.5l1.1-0.7c0,0-5.8-10.6-5.9-10.6l-0.1-0.2l-0.3-0.3c-0.3-0.3-0.8-0.5-1.3-0.5
	c0,0-6.4,0.2-6.4,0.2c-0.7,0-1.3-0.4-1.5-1c0-0.1-2.9-6.5-4.2-11c-1.5-4.3-2.8-10.7-3-11.4c-0.1-0.7,0.1-1.3,0.7-1.7l6.4-4.3l-0.3-1
	c0-0.1,0-0.2,0-0.2l-1.3-11.9L637.3,371.2z"/>
</svg>
