<svg class="svg-logo" version="1.1" xmlns="http://www.w3.org/2000/svg" xmlns:xlink="http://www.w3.org/1999/xlink" x="0px" y="0px"
	 viewBox="0 0 661 306" enable-background="new 0 0 661 306" xml:space="preserve">
<g id="Layer_1">
	<path fill-rule="evenodd" clip-rule="evenodd" fill="#FFFFFF" d="M617.9,137.3c-0.5-9.2-2.4-16.1-5.5-20.9
		c-3.1-4.8-7.4-7.2-12.8-7.2c-6.9,0-12.2,3.5-15.9,10.3c-3.7,6.9-5.5,16.8-5.5,29.8c0,12.9,1.8,22.7,5.5,29.6
		c3.7,6.8,9,10.2,15.9,10.2c5,0,9-2,12.1-6.1c3.1-4,5.1-10.1,6.1-18h37.4c-1.7,20.5-7.2,36-16.6,46.5c-9.4,10.5-22.4,15.7-38.9,15.7
		c-18.6,0-32.6-6.6-42-19.7c-9.5-13.1-14.2-32.5-14.2-58.3c0-25.8,4.7-45.3,14.2-58.4c9.5-13.1,23.5-19.7,42-19.7
		c17.3,0,30.7,5.7,40.3,17.1c9.5,11.4,14.5,27.7,15.1,49.1H617.9z"/>
	<polygon fill-rule="evenodd" clip-rule="evenodd" fill="#FFFFFF" points="157,223.3 122.9,75.1 160.1,75.1 174.5,159.4 190.2,75.1 
		261.4,75.1 188.2,223.3 	"/>
	<polygon fill-rule="evenodd" clip-rule="evenodd" fill="#FFFFFF" points="6.3,223.3 6.3,75.1 50.7,75.1 63.8,165.4 77.9,75.1 
		121.6,75.1 121.6,223.3 93.9,223.3 93.9,107.6 75.5,223.3 52.1,223.3 34,107.6 34,223.3 	"/>
	<path fill-rule="evenodd" clip-rule="evenodd" fill="#FFFFFF" d="M282.5,58.9c-0.7-5.1-1.9-11.2-3.8-18.6c3.2,3.8,6.7,8.2,10,13.2
		c14.4,22.4,15.1,44.5-1.7,69.1c-0.2,0.2-0.2,0.3-0.5,0.5c-15.4,14.5-21.8,8.5-24.4-11.9l-0.4-1C281.1,93.8,285.7,81.1,282.5,58.9z"
		/>
	<path fill-rule="evenodd" clip-rule="evenodd" fill="#FFFFFF" d="M466.3,186.4h22.9c5.3,0,8.7-0.9,10.2-2.6
		c1.6-1.7,2.4-4.9,2.4-9.4c0-4.7-0.8-7.9-2.4-9.6c-1.6-1.8-5-2.7-10.2-2.7h-17l0.1-0.4l0.5-1.7l0.4-1.7l0.5-1.7l0.9-3.4l0.4-1.7
		l0.4-1.7l0.8-3.5l0.1-0.5l0.1-0.4l0.2-0.9l0.4-1.7l0.7-3.5l0.2-0.9l0.1-0.5l0.4-2.2l0.7-3.6l0.2-1.2h8.9c4.7,0,7.8-0.8,9.2-2.3
		c1.4-1.5,2.1-4.2,2.1-8.2c0-4-0.6-6.7-1.9-8.2c-1.3-1.5-4.4-2.3-9.3-2.3h-5.9l0,0l0.2-2l0.2-2l0.1-2l0.1-2l0.1-2l0-2l0-2l0-2
		l-0.1-2l-0.1-2l-0.2-2l-0.2-1.9l-0.2-2l-0.3-1.9l-0.3-1.9l-0.3-1.9l-0.4-1.9l-0.3-1.4h20.8c11.7,0,19.9,2.8,24.8,8.6
		c4.8,5.7,7.3,15.2,7.3,28.4c0,7.3-0.9,13.6-2.8,19.2c-1.9,5.5-4.7,9.9-8.3,13.3c4.8,2.7,8.4,7.2,10.9,13.4
		c2.4,6.2,3.7,13.9,3.7,23.1c0,14.1-2.6,24.7-7.8,31.7c-5.2,7-13,10.6-23.5,10.6h-61.9l-0.6-2.8l0.1-1l0.6-0.7l0.5-0.7l0.5-0.6
		l0.5-0.7l0.5-0.6l1-1.4l1.1-1.4l1-1.4l0.5-0.7l0.5-0.7l1-1.5l1-1.5l1-1.5l1-1.5l0.5-0.8l0.2-0.4l0.2-0.4l0.9-1.6l0.9-1.6l0.5-0.8
		l0.2-0.4l0.2-0.4l0.9-1.7l0.9-1.7l0.9-1.7l0.9-1.8l0.8-1.8l0.8-1.8l0.2-0.5l0.2-0.5l0.4-0.9l0.8-1.9l0.4-1l0.4-0.9l0.4-1l0.4-0.9
		l0.2-0.6V186.4z"/>
	<path fill-rule="evenodd" clip-rule="evenodd" fill="#FFFFFF" d="M11,250.1H7.1V237H13l4.7,8.2l4.8-8.2h5.8v13.1h-3.9v-9.4
		l-5.4,9.4h-2.6l-5.4-9.4V250.1L11,250.1z M43,250.3c-1.5,0-2.7-0.1-3.4-0.2c-0.7-0.1-1.3-0.4-1.7-0.7c-0.5-0.4-0.9-0.9-1.1-1.5
		c-0.2-0.6-0.3-1.4-0.3-2.4v-3.6c0-1.1,0.1-2,0.3-2.6c0.2-0.6,0.6-1.2,1.1-1.5c0.4-0.3,1-0.6,1.8-0.7c0.7-0.1,1.8-0.2,3.3-0.2h4.7
		c1.5,0,2.6,0.1,3.4,0.2c0.7,0.1,1.3,0.4,1.8,0.7c0.5,0.4,0.8,0.9,1.1,1.5c0.2,0.6,0.3,1.5,0.3,2.5v3.7c0,1-0.1,1.8-0.3,2.5
		c-0.2,0.6-0.6,1.1-1.1,1.5c-0.4,0.3-1,0.6-1.7,0.7c-0.7,0.1-1.8,0.2-3.4,0.2H43L43,250.3z M44,247h2.6c1.4,0,2.4-0.2,2.8-0.5
		c0.5-0.4,0.7-1,0.7-2v-1.9c0-1-0.2-1.6-0.7-2c-0.5-0.4-1.4-0.5-2.8-0.5H44c-1.4,0-2.4,0.2-2.8,0.5c-0.4,0.4-0.7,1-0.7,2v1.8
		c0,0.9,0.2,1.6,0.7,1.9C41.7,246.8,42.6,247,44,247L44,247z M80,250.1h-5.9l-7.9-9.6v9.6h-4V237h5.9l7.8,9.6V237h4V250.1L80,250.1z
		 M96.9,250.1h-4v-9.9h-5.5V237h15v3.2h-5.5V250.1L96.9,250.1z M113.7,244.8h5.1l-2.6-4.7L113.7,244.8L113.7,244.8z M110.9,250.1
		h-4.4l7.2-13.1h5.1l7,13.1h-4.4l-1.3-2.2h-8L110.9,250.1L110.9,250.1z M150.7,250.1h-5.9l-7.9-9.6v9.6h-4V237h5.9l7.8,9.6V237h4
		V250.1L150.7,250.1z M164.8,244.8h5.1l-2.6-4.7L164.8,244.8L164.8,244.8z M162,250.1h-4.4l7.2-13.1h5.1l7,13.1h-4.4l-1.3-2.2h-8
		L162,250.1L162,250.1z M15.3,268.1l5.2-9.4h4.3l-7,13.1h-4.9l-7-13.1h4.4L15.3,268.1L15.3,268.1z M40.5,271.8h-4v-13.1h4V271.8
		L40.5,271.8z M57.7,263.5h1.7l5.3-4.9H70l-7.1,6.5l8,6.7h-5.6l-5.9-5h-1.7v5h-4v-13.1h4V263.5L57.7,263.5z M86.6,271.8h-4v-13.1h4
		V271.8L86.6,271.8z M117.6,271.8h-5.9l-7.9-9.6v9.6h-4v-13.1h5.9l7.8,9.6v-9.6h4V271.8L117.6,271.8z M142.9,263.4L142.9,263.4
		c0-0.6-0.2-1.1-0.5-1.3c-0.4-0.2-1.2-0.3-2.5-0.3h-2.3c-1.4,0-2.3,0.2-2.6,0.5c-0.4,0.3-0.6,1-0.6,2.1v1.8c0,0.9,0.2,1.6,0.7,2
		c0.4,0.4,1.3,0.5,2.6,0.5h2.3c1.2,0,1.9-0.1,2.4-0.3c0.4-0.2,0.7-0.6,0.7-1.1c0-0.1,0-0.2,0-0.4c0,0,0,0,0,0h-4.7v-2.7h8.9v4.3
		c0,1.2-0.5,2.1-1.4,2.6c-0.9,0.5-2.5,0.8-4.8,0.8h-4.5c-1.4,0-2.4-0.1-3-0.2c-0.7-0.1-1.2-0.4-1.7-0.8c-0.5-0.4-0.9-0.9-1.2-1.5
		c-0.2-0.6-0.4-1.4-0.4-2.3v-3.6c0-1.9,0.4-3.2,1.3-3.9c0.9-0.7,2.5-1.1,4.9-1.1h4.5c1.4,0,2.5,0.1,3.2,0.2c0.7,0.1,1.2,0.3,1.6,0.7
		c0.4,0.3,0.7,0.7,0.9,1.3c0.2,0.5,0.3,1.2,0.3,2c0,0.2,0,0.3,0,0.4c0,0.1,0,0.2,0,0.3H142.9L142.9,263.4z M159.6,267.4l4,0v0.2
		c0,0.5,0.1,0.8,0.4,1c0.2,0.2,0.7,0.3,1.5,0.3h5c0.5,0,0.9-0.1,1.1-0.3c0.2-0.2,0.3-0.4,0.3-0.8c0-0.4-0.1-0.7-0.4-0.9
		c-0.2-0.2-0.8-0.3-1.6-0.3l-6.3-0.1c-1.6,0-2.6-0.3-3.2-0.9c-0.6-0.6-0.8-1.6-0.8-3c0-0.8,0.1-1.4,0.2-1.9c0.1-0.5,0.4-0.9,0.7-1.2
		c0.4-0.4,0.9-0.6,1.5-0.8c0.6-0.2,1.6-0.2,3-0.2h6.1c1.5,0,2.6,0.3,3.3,0.8c0.7,0.6,1,1.5,1,2.7c0,0.1,0,0.2,0,0.3
		c0,0.1,0,0.2,0,0.5h-3.9v-0.1c0-0.4-0.1-0.8-0.3-1c-0.2-0.2-0.6-0.3-1-0.3h-4.6c-0.8,0-1.3,0.1-1.5,0.2c-0.2,0.2-0.4,0.4-0.4,0.8
		c0,0.4,0.1,0.6,0.3,0.8c0.2,0.2,0.6,0.3,1.2,0.3l6.6,0.1c1.5,0,2.6,0.4,3.2,1c0.6,0.6,0.9,1.7,0.9,3.3c0,0.9-0.1,1.6-0.3,2.1
		c-0.2,0.5-0.6,0.9-1.1,1.3c-0.4,0.2-0.8,0.4-1.4,0.5c-0.6,0.1-1.5,0.1-2.6,0.1h-5.4c-2.2,0-3.7-0.2-4.4-0.7
		c-0.7-0.5-1.1-1.4-1.1-2.7c0-0.1,0-0.2,0-0.4C159.6,267.9,159.6,267.7,159.6,267.4z"/>
	<path fill-rule="evenodd" clip-rule="evenodd" fill="#FFFFFF" d="M457.6,247.1c0.4,0,0.6-0.1,0.8-0.3c0.2-0.2,0.3-0.5,0.3-0.9
		c0-0.4-0.1-0.6-0.3-0.8c-0.2-0.2-0.5-0.3-0.8-0.3h-7.4v2.4H457.6L457.6,247.1z M457.2,242.1c0.3,0,0.6-0.1,0.8-0.3
		c0.2-0.2,0.3-0.5,0.3-0.8c0-0.3-0.1-0.6-0.3-0.8c-0.2-0.2-0.4-0.3-0.7-0.3h-7.1v2.2H457.2L457.2,242.1z M458.6,250.1h-12.5V237H458
		c1.5,0,2.6,0.3,3.3,0.9c0.7,0.6,1.1,1.5,1.1,2.8c0,0.7-0.2,1.3-0.5,1.7c-0.3,0.5-0.8,0.8-1.5,1.1c0.8,0.1,1.4,0.5,1.8,1
		c0.4,0.5,0.6,1.2,0.6,2.2c0,1.2-0.3,2.1-1,2.7C461.1,249.8,460.1,250.1,458.6,250.1L458.6,250.1z M474.9,244.8h5.1l-2.6-4.7
		L474.9,244.8L474.9,244.8z M472.1,250.1h-4.4l7.2-13.1h5.1l7,13.1h-4.4l-1.3-2.2h-8L472.1,250.1L472.1,250.1z M491.9,245.7l4,0v0.2
		c0,0.5,0.1,0.8,0.4,1c0.2,0.2,0.7,0.3,1.5,0.3h5c0.5,0,0.9-0.1,1.1-0.3c0.2-0.2,0.3-0.4,0.3-0.8c0-0.4-0.1-0.7-0.4-0.9
		c-0.2-0.2-0.8-0.3-1.6-0.3l-6.3-0.1c-1.6,0-2.6-0.3-3.2-0.9c-0.6-0.6-0.8-1.6-0.8-3c0-0.8,0.1-1.4,0.2-1.9c0.1-0.5,0.4-0.9,0.7-1.2
		c0.4-0.4,0.9-0.6,1.5-0.8c0.6-0.2,1.6-0.2,3-0.2h6.1c1.5,0,2.6,0.3,3.3,0.8c0.7,0.6,1,1.5,1,2.7c0,0.1,0,0.2,0,0.3
		c0,0.1,0,0.2,0,0.5h-3.9V241c0-0.4-0.1-0.8-0.3-1c-0.2-0.2-0.6-0.3-1-0.3h-4.6c-0.8,0-1.3,0.1-1.5,0.2s-0.4,0.4-0.4,0.8
		c0,0.4,0.1,0.6,0.3,0.8c0.2,0.2,0.6,0.3,1.2,0.3l6.6,0.1c1.5,0,2.6,0.4,3.2,1c0.6,0.6,0.9,1.7,0.9,3.3c0,0.9-0.1,1.6-0.3,2.1
		c-0.2,0.5-0.6,0.9-1.1,1.3c-0.4,0.2-0.8,0.4-1.4,0.5c-0.6,0.1-1.5,0.1-2.6,0.1h-5.4c-2.2,0-3.7-0.2-4.4-0.7
		c-0.7-0.5-1.1-1.4-1.1-2.7c0-0.1,0-0.2,0-0.4C491.8,246.2,491.8,246,491.9,245.7L491.9,245.7z M518.5,241.9h1.7l5.3-4.9h5.3
		l-7.1,6.5l8,6.7h-5.6l-5.9-5h-1.7v5h-4V237h4V241.9L518.5,241.9z M551.2,240.2h-10.4v2h9.8v2.8h-9.8v2h10.5v3.2h-14.5V237h14.4
		V240.2L551.2,240.2z M566.2,250.1h-4v-9.9h-5.5V237h15v3.2h-5.5V250.1L566.2,250.1z M588.8,247.1c0.4,0,0.6-0.1,0.8-0.3
		c0.2-0.2,0.3-0.5,0.3-0.9c0-0.4-0.1-0.6-0.3-0.8c-0.2-0.2-0.5-0.3-0.8-0.3h-7.4v2.4H588.8L588.8,247.1z M588.4,242.1
		c0.3,0,0.6-0.1,0.8-0.3c0.2-0.2,0.3-0.5,0.3-0.8c0-0.3-0.1-0.6-0.3-0.8c-0.2-0.2-0.4-0.3-0.7-0.3h-7.1v2.2H588.4L588.4,242.1z
		 M589.8,250.1h-12.5V237h11.8c1.5,0,2.6,0.3,3.3,0.9c0.7,0.6,1.1,1.5,1.1,2.8c0,0.7-0.2,1.3-0.5,1.7c-0.3,0.5-0.8,0.8-1.5,1.1
		c0.8,0.1,1.4,0.5,1.8,1c0.4,0.5,0.6,1.2,0.6,2.2c0,1.2-0.3,2.1-1,2.7C592.4,249.8,591.3,250.1,589.8,250.1L589.8,250.1z
		 M606.2,244.8h5.1l-2.6-4.7L606.2,244.8L606.2,244.8z M603.4,250.1H599l7.2-13.1h5.1l7,13.1h-4.4l-1.3-2.2h-8L603.4,250.1
		L603.4,250.1z M627.9,246.9h8.8v3.2h-12.8V237h4V246.9L627.9,246.9z M646.4,246.9h8.8v3.2h-12.8V237h4V246.9L646.4,246.9z
		 M458.7,263.4v-0.1c0-0.5-0.2-0.9-0.5-1.1c-0.3-0.2-0.9-0.4-1.6-0.4h-3.2c-1.4,0-2.3,0.2-2.7,0.5c-0.4,0.3-0.6,1-0.6,2.1v1.8
		c0,0.9,0.2,1.6,0.7,2c0.4,0.4,1.3,0.5,2.6,0.5h2.3c1.3,0,2.1-0.1,2.5-0.4c0.4-0.3,0.6-0.7,0.6-1.4v-0.1h4.1c0,0,0,0.1,0,0.1
		c0,0.4,0,0.7,0,0.9c0,0.8-0.1,1.5-0.3,2.1c-0.2,0.5-0.5,1-1,1.3c-0.4,0.3-1,0.5-1.7,0.7c-0.7,0.1-1.8,0.2-3.1,0.2h-4.5
		c-1.4,0-2.4-0.1-3-0.2c-0.6-0.1-1.2-0.4-1.7-0.8c-0.5-0.4-0.9-0.9-1.2-1.5c-0.2-0.6-0.4-1.4-0.4-2.3v-3.6c0-1.9,0.4-3.2,1.3-3.9
		c0.9-0.7,2.5-1.1,4.9-1.1h4.5c1.4,0,2.5,0.1,3.2,0.2c0.7,0.1,1.2,0.3,1.6,0.7c0.4,0.3,0.7,0.7,0.9,1.3c0.2,0.5,0.3,1.2,0.3,2
		c0,0.2,0,0.3,0,0.4c0,0.1,0,0.2,0,0.3H458.7L458.7,263.4z M473.3,268.6h8.8v3.2h-12.8v-13.1h4V268.6L473.3,268.6z M487.5,258.6h4
		v7.8c0,0.9,0.2,1.5,0.6,1.8c0.4,0.3,1.3,0.5,2.6,0.5h2.3c1.1,0,1.9-0.2,2.3-0.5c0.4-0.3,0.6-0.9,0.6-1.8v-7.8h4v9
		c0,1.5-0.4,2.6-1.3,3.3c-0.8,0.6-2.3,1-4.3,1h-4.5c-2.4,0-4.1-0.3-5-0.9c-0.9-0.6-1.4-1.7-1.4-3.3V258.6L487.5,258.6z M521.8,268.8
		c0.4,0,0.6-0.1,0.8-0.3c0.2-0.2,0.3-0.5,0.3-0.9c0-0.4-0.1-0.6-0.3-0.8c-0.2-0.2-0.5-0.3-0.8-0.3h-7.4v2.4H521.8L521.8,268.8z
		 M521.5,263.7c0.3,0,0.6-0.1,0.8-0.3c0.2-0.2,0.3-0.5,0.3-0.8c0-0.3-0.1-0.6-0.3-0.8c-0.2-0.2-0.4-0.3-0.7-0.3h-7.1v2.2H521.5
		L521.5,263.7z M522.9,271.8h-12.5v-13.1h11.8c1.5,0,2.6,0.3,3.3,0.9c0.7,0.6,1.1,1.5,1.1,2.8c0,0.7-0.2,1.3-0.5,1.7
		c-0.3,0.5-0.8,0.8-1.5,1.1c0.8,0.1,1.4,0.5,1.8,1c0.4,0.5,0.6,1.2,0.6,2.2c0,1.2-0.3,2.1-1,2.7
		C525.4,271.5,524.4,271.8,522.9,271.8z"/>
	<path fill-rule="evenodd" clip-rule="evenodd" fill="#FFFFFF" d="M585,265.9h-6.1v1.2h5.8v1.6h-5.8v1.2h6.2v1.9h-8.6V264h8.5V265.9
		L585,265.9z M586.5,270.1l2.1,0v0c0,0.2,0.1,0.3,0.3,0.4c0.2,0.1,0.4,0.1,0.8,0.1h1.4c0.3,0,0.5,0,0.6-0.1c0.1-0.1,0.2-0.2,0.2-0.3
		c0-0.1-0.1-0.2-0.2-0.3c-0.1-0.1-0.3-0.1-0.6-0.1l-2,0c-1,0-1.7-0.1-2.1-0.4c-0.4-0.3-0.6-0.7-0.6-1.3c0-0.6,0.2-1.1,0.6-1.4
		c0.4-0.3,1.1-0.4,2.1-0.4h2.3c0.7,0,1.3,0.1,1.6,0.4c0.3,0.3,0.5,0.7,0.5,1.2h-2c0-0.1-0.2-0.2-0.3-0.2c-0.2-0.1-0.4-0.1-0.7-0.1
		h-1.4c-0.3,0-0.5,0-0.6,0.1c-0.1,0.1-0.2,0.1-0.2,0.3c0,0.1,0.1,0.2,0.2,0.3c0.1,0.1,0.4,0.1,0.8,0.1h2.4c0.7,0,1.2,0.2,1.6,0.4
		c0.3,0.3,0.5,0.7,0.5,1.3c0,0.7-0.2,1.2-0.5,1.4c-0.4,0.3-1,0.4-1.9,0.4h-2c-1.1,0-1.9-0.1-2.3-0.4
		C586.7,271.2,586.5,270.8,586.5,270.1L586.5,270.1z M596,267.8h-1.1v-1.4h1.1V265h2v1.3h3.1v1.4H598v1.9c0,0.3,0.1,0.5,0.2,0.6
		c0.1,0.1,0.3,0.2,0.6,0.2c0.3,0,0.5-0.1,0.7-0.2c0.1-0.1,0.2-0.3,0.2-0.6c0-0.1,0-0.2,0-0.3c0,0,0,0,0,0h1.8c0,0.1,0,0.1,0,0.2
		c0,0.1,0,0.2,0,0.3c0,0.7-0.2,1.3-0.7,1.6c-0.4,0.3-1.1,0.5-2.1,0.5c-0.9,0-1.6-0.1-2-0.4c-0.4-0.3-0.6-0.8-0.6-1.5V267.8
		L596,267.8z M605.8,271.8h-2.2v-2.2h2.2V271.8L605.8,271.8z M620.4,271.8h-2.3V266l-2.6,1.8l-1.1-1.6l3.4-2.1h2.6V271.8
		L620.4,271.8z M630.1,265.7h-2.2c-0.4,0-0.6,0.1-0.8,0.2c-0.2,0.1-0.3,0.3-0.3,0.6c0,0.3,0.1,0.5,0.2,0.6c0.2,0.1,0.4,0.2,0.8,0.2
		h2.2c0.4,0,0.6-0.1,0.8-0.2c0.2-0.1,0.2-0.3,0.2-0.6c0-0.3-0.1-0.5-0.2-0.6C630.7,265.8,630.5,265.7,630.1,265.7L630.1,265.7z
		 M633.4,266.4v3.1c0,0.9-0.3,1.6-0.8,1.9c-0.6,0.4-1.6,0.5-3.1,0.5h-2.2c-1,0-1.7-0.2-2.2-0.5c-0.5-0.3-0.7-0.8-0.7-1.5
		c0,0,0-0.1,0-0.2c0-0.1,0-0.1,0-0.3h2.1c0,0.2,0.1,0.4,0.3,0.5c0.2,0.1,0.4,0.2,0.8,0.2h2.2c0.4,0,0.8-0.1,0.9-0.2
		c0.2-0.1,0.3-0.4,0.3-0.7v-0.9c-0.2,0.2-0.4,0.4-0.7,0.5c-0.3,0.1-0.7,0.1-1.2,0.1h-1.7c-1.1,0-1.9-0.1-2.3-0.4
		c-0.5-0.3-0.7-0.7-0.7-1.3v-1.5c0-0.6,0.2-1,0.6-1.3c0.4-0.3,1-0.4,1.8-0.4h3.5c1,0,1.8,0.2,2.3,0.6
		C633.1,264.9,633.4,265.6,633.4,266.4L633.4,266.4z M640.9,265.7h-2.2c-0.4,0-0.6,0.1-0.8,0.2c-0.2,0.1-0.3,0.3-0.3,0.6
		c0,0.3,0.1,0.5,0.2,0.6c0.2,0.1,0.4,0.2,0.8,0.2h2.2c0.4,0,0.6-0.1,0.8-0.2c0.2-0.1,0.2-0.3,0.2-0.6c0-0.3-0.1-0.5-0.2-0.6
		C641.5,265.8,641.3,265.7,640.9,265.7L640.9,265.7z M644.2,266.4v3.1c0,0.9-0.3,1.6-0.8,1.9c-0.6,0.4-1.6,0.5-3.1,0.5h-2.2
		c-1,0-1.7-0.2-2.2-0.5s-0.7-0.8-0.7-1.5c0,0,0-0.1,0-0.2c0-0.1,0-0.1,0-0.3h2.1c0,0.2,0.1,0.4,0.3,0.5c0.2,0.1,0.4,0.2,0.8,0.2h2.2
		c0.4,0,0.8-0.1,0.9-0.2c0.2-0.1,0.3-0.4,0.3-0.7v-0.9c-0.2,0.2-0.4,0.4-0.7,0.5c-0.3,0.1-0.7,0.1-1.2,0.1h-1.7
		c-1.1,0-1.9-0.1-2.3-0.4c-0.5-0.3-0.7-0.7-0.7-1.3v-1.5c0-0.6,0.2-1,0.6-1.3c0.4-0.3,1-0.4,1.8-0.4h3.5c1,0,1.8,0.2,2.3,0.6
		C643.9,264.9,644.2,265.6,644.2,266.4L644.2,266.4z M646.1,269.4h2.2v0.1c0,0.2,0.1,0.4,0.3,0.5c0.2,0.1,0.5,0.1,1,0.1h2.4
		c0.4,0,0.6-0.1,0.8-0.2c0.1-0.1,0.2-0.3,0.2-0.6V269c0-0.2-0.1-0.4-0.3-0.5c-0.2-0.1-0.5-0.1-0.9-0.1h-2.6c-0.2,0-0.4,0-0.5,0.1
		c-0.1,0.1-0.2,0.2-0.2,0.3h-2V264h8.4v1.8h-6.4v1.3c0.2-0.2,0.4-0.3,0.7-0.4c0.3-0.1,0.7-0.1,1.2-0.1h2.1c0.9,0,1.6,0.2,2,0.5
		c0.4,0.3,0.6,0.8,0.6,1.4v1.3c0,0.8-0.2,1.3-0.7,1.6c-0.5,0.3-1.3,0.5-2.4,0.5h-2.8c-1.2,0-2.1-0.2-2.5-0.5
		c-0.5-0.3-0.7-0.9-0.7-1.6c0-0.1,0-0.2,0-0.2C646.1,269.5,646.1,269.5,646.1,269.4z"/>
	<path fill-rule="evenodd" clip-rule="evenodd" fill="#FFFFFF" d="M282.5,58.9c-0.7-5.1-1.9-11.2-3.8-18.6c3.2,3.8,6.7,8.2,10,13.2
		c14.4,22.4,15.1,44.5-1.7,69.1c-0.2,0.2-0.2,0.3-0.5,0.5c-15.4,14.5-21.8,8.5-24.4-11.9l-0.4-1C281.1,93.8,285.7,81.1,282.5,58.9z"
		/>
	<path fill-rule="evenodd" clip-rule="evenodd" d="M282.2,71.8l-0.1,1.1l0,0.2l0,0.2l0,0.5l-0.1,1l-0.1,0.9l-0.1,1l-0.2,0.9
		l-0.1,0.5l0,0.2l0,0.2l-0.2,0.9l-0.2,0.9l-0.2,0.9l-0.2,0.9l-0.1,0.4l-0.1,0.4l-0.2,0.9l-0.2,0.4l-0.1,0.4l-0.3,0.8l-0.3,0.8
		l-0.2,0.4l-0.1,0.4l-0.3,0.8l-0.3,0.8l-0.4,0.8l-0.4,0.8l-0.4,0.7l-0.4,0.7l-0.4,0.7L276,93l-0.1,0.2l-0.1,0.2l-0.2,0.3l-0.5,0.7
		l-0.5,0.6l-0.1,0.2l-0.1,0.2l-0.2,0.3l-0.5,0.6l-0.3,0.3l-0.1,0.2l-0.1,0.2l-0.5,0.6l-0.3,0.3l-0.3,0.3l-11.5,11.9l0.1,1.1l0.1,1.1
		l0.1,1l0.2,1l0.2,1l0.2,1l0.2,0.9l0.2,0.9l0.2,0.9l0.2,0.9l0.4,1.6l0.2,0.8l0.2,0.7l0.2,0.7l0.3,0.7l0.3,0.6l0.3,0.6l0.6,1.2
		l0.3,0.5l0.3,0.5l0.3,0.5l0.3,0.5l0.3,0.4l0.4,0.4l0.4,0.4l0.4,0.4l0.4,0.3l0.4,0.3l0.4,0.3l0.4,0.2l0.4,0.2l0.4,0.2l0.4,0.2
		l0.5,0.1l0.5,0.1l0.5,0.1l0.5,0l0.5,0l0.5,0l0.5,0l0.5-0.1l0.5-0.1l0.5-0.1l0.5-0.2l0.5-0.2l0.6-0.2l0.6-0.2l0.6-0.3l0.6-0.3
		l0.6-0.3l0.6-0.4l0.6-0.4l0.6-0.4l0.7-0.4l0.6-0.5l0.7-0.5l0.7-0.5l0.7-0.5l0.7-0.6l0.7-0.6l0.7-0.6l0.7-0.6h0l0,0l0,0l0.1,0
		l0.2-0.2l0.1-0.1l0.1-0.1l0.2-0.4l0.1-0.2l0.2-0.2l0.4-0.6l0.2-0.3l0.2-0.3l0.4-0.8l0.2-0.4l0.3-0.4l0.2-0.5l0.3-0.5l0.3-0.5
		l0.3-0.5l0.3-0.5l0.3-0.6l0.3-0.6l0.4-0.6l0.7-1.3l0.8-1.4l0.4-0.8l0.4-0.8l0.8-1.6l0.7-1.6l0.7-1.6l0.6-1.6l0.6-1.6l0.5-1.6
		l0.5-1.6l0.4-1.6l0.4-1.6l0.2-0.8l0.2-0.8l0.3-1.6l0.2-1.6l0.2-1.6l0.1-1.6l0.1-1.6l0-1.6l0-1.6l-0.1-1.6l-0.2-1.6l-0.2-1.6
		l-0.2-1.6l-0.3-1.6l-0.2-0.8l-0.2-0.8l-0.2-0.8l-0.1-0.4l-0.1-0.4l-0.5-1.6l-0.5-1.6l-0.6-1.6l-0.6-1.7l-0.7-1.6l-0.7-1.6l-0.8-1.6
		l-1.1-2.1l-0.6-1l-0.6-1l-1.3-2.1l-0.6-1l-0.7-1l-1.4-2.1l-0.4-0.5l-0.2-0.3l-0.1-0.1l-0.1-0.1l-0.7-1l-0.8-1.1l-0.8-1l-1.6-2
		l-1.7-2l-1.8-2l-1.9-2l-1.9-2l0.1,0.4l0.1,0.5l0.3,0.9l0.2,0.9l0.3,0.9l0.1,0.4l0.1,0.4l0.2,0.9l0.2,0.8l0.2,0.8l0.1,0.4l0,0.2
		l0,0.1l0,0.1l0.2,0.8l0.2,0.8l0.2,0.8l0.2,0.7l0.1,0.4l0.1,0.4l0.1,0.3l0.1,0.4l0.2,0.7l0.3,1.6l0.1,0.8l0.2,0.8l0.3,1.5l0.1,0.7
		l0.1,0.8l0.1,0.7l0.1,0.7l0.2,1.4l0.2,1.4l0.2,1.4l0.1,1.3l0,0.7l0.1,0.7l0.1,1.3l0.1,1.3l0,1.3l0,1.3l0,1.2l0,0.1v0.2v0.3V71.8
		L282.2,71.8z M261.7,110.3c24.3-20.6,25.4-35.3,17.1-70c23.4,27.1,28.3,52.9,8.3,82.3c-0.2,0.2-0.2,0.3-0.5,0.5
		c-15.4,14.5-21.8,8.5-24.4-11.9L261.7,110.3z"/>
	<path fill-rule="evenodd" clip-rule="evenodd" fill="#FFFFFF" d="M205.3,126c-24-3.6-39.6-17-53.7-36c7.8,27.6,21.1,57.2,53.4,63.3
		C202.2,145.8,201.3,137.3,205.3,126z"/>
	<radialGradient id="SVGID_1_" cx="344.847" cy="160.3434" r="84.0723" gradientUnits="userSpaceOnUse">
		<stop  offset="0" style="stop-color:#FFFFFF"/>
		<stop  offset="1" style="stop-color:#CA5C16"/>
	</radialGradient>
	<path fill-rule="evenodd" clip-rule="evenodd" fill="url(#SVGID_1_)" d="M353.5,226.5c10,11,23.7,22.1,41.3,34.2
		c23.6-11.3,40.8-33.9,44.5-60.8C395.3,259.8,377.3,210,353.5,226.5L353.5,226.5z M388.8,263.2c-8.7,3.3-18.2,5.1-28.1,5.1
		c-6.7,0-13.1-0.8-19.3-2.4c6.3-18.9-5.9-23.1,7.8-35.9C359.1,240.8,372.3,251.6,388.8,263.2L388.8,263.2z M346.2,226.7
		c-1.5-1.8-3-3.5-4.3-5.3c-16.2,5.6-34.6,6.1-55.1-3.7c8.6,22.3,27,39.6,49.9,46.9C342.7,256.6,330.3,241.5,346.2,226.7L346.2,226.7
		z M338,215.8c-16,5.2-33,4.2-53.6-5.4c-1.9-6.9-3-14.1-3-21.6c0-5.4,0.5-10.8,1.6-15.9c25.5-7.3,25.2,34.1,48.2,30.2
		C333,207.5,335.2,211.7,338,215.8L338,215.8z M329.5,198.6c-8.1-24.9,0.3-52.3,25.2-88.8c-33.6,2.5-61.4,26.1-70.3,57.5
		C308.5,161.3,311.2,198.2,329.5,198.6L329.5,198.6z M429.2,149c1.3,2.2,2.5,4.5,3.5,6.8l-0.1,0l-0.8,0.4l-0.8,0.5l-0.7,0.6
		l-0.6,0.6l-0.3,0.3l-0.2,0.4l-0.2,0.4l-0.2,0.4l-0.4,0.9l-0.3,0.9l-0.2,1l-0.1,0.5l-0.1,0.5l-0.1,0.5l0,0.6l0,0.6v0.6l0,1.3l0,0.6
		l0.1,0.7l0.2,1.4l-1,0.8l-1,0.8L425,172l-0.9,0.9l-0.9,0.9l-0.8,1l-0.8,1l-0.7,1.1l-0.7,1.1l-0.6,1.1l-0.6,1.2l-0.5,1.2l-0.5,1.2
		l-0.5,1.3l-0.4,1.3l-0.4,1.4l-0.2,0.7l-0.2,0.7l-0.1,0.7l-0.1,0.7l-0.1,0.7l0,0.7v0.6l0.1,0.6l0.1,0.6l0.1,0.6l0.1,0.5l0.2,0.5
		l0.2,0.5l0.2,0.5l0.3,0.5l0.3,0.5l0.3,0.4l0.4,0.4l0.4,0.4l0.4,0.4l0.5,0.3l0.5,0.3l0.5,0.3l0.6,0.3l0.6,0.2l0.6,0.2l0.7,0.2
		l0.7,0.2l0.7,0.2l0.8,0.2l0.8,0.1l0.9,0.1l3.8-2.3l0,0.1l0.1,0.1l0.1,0h0.1l0.1-0.1l0.2-0.1l0.2-0.1l0.2-0.1l0.2-0.2l0.2-0.2
		l0.2-0.2l0.3-0.2l0.3-0.3l0.3-0.3l0.3-0.4l0.3-0.4l0.6-0.8l0.5-0.8l0.5-0.8l0.4-0.7l0.3-0.7l0.3-0.7l0.2-0.7l0.1-0.6l0.1-0.6
		l0.1-0.5l0.1-0.5l0.1-0.3l0.1-0.3l0.1-0.2l0.1-0.2l0.1,0h0.4l-0.4-0.1l0.1-0.4l0.1-0.3l0.1-0.4l0.1-0.3l0.1-0.2l0.1-0.1l0.2-0.2
		l0.2-0.2l0.2-0.3l0.3-0.3l0.3-0.4l0.4-0.5l0.2-0.2c0.1,1.7,0.2,3.4,0.2,5.1c0,0.7,0,1.4,0,2.1c-51.1,70.3-55.3,7.9-89.4,32.2
		c-1.1-1.3-2.2-2.6-3.2-3.9c24-10.2,42.8-30.7,55.6-43.3l0.2,0.1l0.4,0.2l0.8,0.2l0.4,0.1l0.5,0.1l0.9,0h0.5l0.5,0l0.2,0l0.1,0h0.1
		l0.4,0l0.2,0l0.1,0h0.1l0.4,0l0.1,0l0.1,0l0.2,0l0.4-0.1l0.3-0.1l0.4-0.1l0.3-0.1l0.3-0.1l0.3-0.1l0.3-0.1l0.3-0.2l0.3-0.2l0.3-0.2
		l0.3-0.2l0.1-0.1l0.1-0.1l0.2-0.2l0.2-0.2l0.1-0.1l0.1-0.1l0.1-0.1l0.1-0.1l0.2-0.2l0.1-0.1l0.1-0.1l0.2-0.2l0.1-0.3l0.1-0.3
		l0.1-0.3l0.1-0.2l0.1-0.1l0.1-0.3l0.1-0.3l0.1-0.3l0.1-0.3l0.1,0.4l0.2,0.4l0.1,0.5l0.1,0.5l0.8-0.9l0.7-0.8l0.7-0.8l0.6-0.8
		l0.5-0.8l0.5-0.8l0.4-0.8l0.4-0.8l0.3-0.8l0.3-0.8l0.2-0.8l0.2-0.8l0.1-0.8l0.1-0.8v-0.7l0-0.7l0.7-0.8l0.7-0.8l0.7-0.8l0.7-0.7
		l0.6-0.8l0.6-0.7l0.6-0.7l0.5-0.7l0.5-0.8l0.5-0.7l0.4-0.7l0.4-0.7l0.4-0.7l0.3-0.7L429.2,149L429.2,149z M404.9,123
		c1.5,1,3,2.1,4.5,3.2l0,0l0,0.2l0.1,0.5l0.2,0.5l0.2,0.6l0.3,0.7l0.4,0.7l0.5,0.8l0.3,0.4l0.3,0.5l-0.4,0.5l-0.4,0.5l-0.4,0.5
		l-0.3,0.6l-0.3,0.6l-0.3,0.6l-0.2,0.6l-0.2,0.6l-0.2,0.6l-0.2,0.7l-0.2,0.7l-0.1,0.7l-0.1,0.7l-0.1,0.8l0,0.8l0,0.8l-0.5,0.3
		l-0.5,0.4l-0.9,0.8l-0.9,0.9l-0.8,1l-0.8,1l-0.7,1.1l-0.7,1.2l-0.7,1.3l-0.6,1.3l-0.6,1.4l-0.3,0.7l-0.2,0.8l-0.5,1.6l-0.2,0.8
		l-0.2,0.8l-0.4,1.7l-0.4,1.8l-0.3,1.9l-0.1,1.1l0,1v1l0.1,1l0.1,0.9l0.1,0.9l0.1,0.8l0.2,0.8l0.2,0.7l0.2,0.7l0.2,0.6l0.2,0.4
		c-20.4,18.9-37.7,34-55.8,41.5c-2.7-4.1-4.8-8.1-6.5-12.2c20.4-8.6-0.4-33.8,35.1-57.5h0l0.8,0.3l0.8,0.2l0.8,0.2l0.8,0.2l0.8,0.1
		l0.9,0.1l0.9,0.1l0.9,0l0.9-0.1l0.9-0.1l0.9-0.1l1-0.1l0.1,0l0.1-0.1l0.1-0.1l0.2-0.1l0.2-0.1l0.2-0.2l0.3-0.2l0.3-0.2l0.4-0.2
		l0.4-0.3l0.4-0.3l0.5-0.3l0.5-0.3l0.5-0.4l0.6-0.4l0.7-0.4l0.6-0.5l0.7-0.5l0.7-0.6l0.7-0.7l0.7-0.8l0.8-0.8l0.8-0.9l0.8-0.9l0.8-1
		l0.9-1.1l0.9-1.2l0.9-1.2l0.9-1.3l0.9-1.4l0.9-1.4l1-1.5l0.3-0.1l0.3-0.1l0.3-0.1l0.3-0.1l0.3-0.2l0.3-0.2l0.3-0.2l0.3-0.2l0.2-0.2
		l0.2-0.2l0.2-0.3l0.2-0.3l0.2-0.3L404.9,123L404.9,123z M366.7,140.2l-0.3-0.4l-0.2-0.3l-0.2-0.3l-0.4-0.6l-0.2-0.3l-0.1-0.3
		l-0.3-0.7l-0.2-0.7l-0.2-0.7l-0.1-0.7l-0.1-0.4l0-0.4l0-0.4l0-0.4v-0.4l0-0.4l0-0.4l0.1-0.4l-0.1-0.7l0-0.7l0.1-1.3l0.1-0.7
		l0.1-0.6l0.4-1.3l0.5-1.3l0.3-0.7l0.4-0.6l0.4-0.7l0.4-0.6l0.4-0.6l0.5-0.6l1-1.3l0.6-0.6l0.6-0.6l1.3-1.3l0.7-0.6l0.8-0.6l0.8-0.6
		l0.9-0.6l1.8-1.3l1.9-1.3l1-0.6l0.2-0.1c-5.7-1.4-11.6-2.2-17.7-2.3c-25,36.2-34.5,63-26.4,87.9
		C349.4,191.2,333.1,161.6,366.7,140.2z"/>
	<path fill-rule="evenodd" clip-rule="evenodd" fill="#FBE800" d="M269,215.8l-0.2-0.2l-0.2-0.2l-0.5-0.4l-0.3-0.2l-0.3-0.2
		l-0.4-0.2l-0.4-0.2l-0.7,1.2l-0.6,1.2l-0.5,1.2l-0.4,1.3l-0.3,1.3l-0.2,1.3l-0.2,1.4l-0.1,1.4l0,0.7v0.7l0,0.7l0.1,0.6l0.1,0.6
		l0.1,0.6l0.1,0.6l0.2,0.6l0.2,0.5l0.2,0.5l0.2,0.5l0.3,0.5l0.3,0.4l0.3,0.4l0.3,0.4l0.4,0.4l0.3-0.5l0.4-0.5l0.4-0.5l0.5-0.5
		l0.5-0.5l0.6-0.5l0.7-0.5l0.8-0.4l0.6-0.3l0.7-0.3l0.7-0.2l0.7-0.1l-0.1,0.5l0,0.5l0,0.5l0,0.5l0,0.5l0.1,0.5l0.1,0.5l0.1,0.5
		l0.1,0.4l0.2,0.4l0.2,0.4l0.2,0.4l0.2,0.4l0.3,0.4l0.3,0.4l0.3,0.4l0.9,0.9l0.9,0.9l0.9,0.9l0.9,0.9l0.9,0.8l0.9,0.8l0.9,0.7
		l0.9,0.7l0.1-0.5l0.1-0.5l0.1-0.4l0.1-0.4l0-0.4l0-0.3l0-0.3l0-0.2l0.6,0.7l0.6,0.7l0.6,0.8l0.7,0.8l0.7,0.8l0.7,0.9l0.7,0.9l0.7,1
		l0.4,0.4l0.4,0.4l0.2,0.2l0.2,0.2l0.4,0.3l0.2,0.1l0.1,0l0,0l0.1,0l0.3,0.2l0.3,0.1l0.2,0h0.1h0l0.1,0l0.3-0.1l0.1,0l0.1,0l0.2,0
		l0.1-0.1l0.1-0.1l0.3-0.2l0.1-0.2l0.1-0.1l0.2-0.3l0-0.1l0-0.1l0,0l0.1-0.2l0.1-0.2l0.1-0.2l0.7,0.7l0.7,0.7l0.8,0.7l0.4,0.3
		l0.4,0.3l0.9,0.6l0.9,0.6l1,0.6l0.5,0.3l0.5,0.3l0.7,0.3l0.7,0.3l0.7,0.3l0.7,0.3l0.7,0.2l0.3,0.1l0.1,0l0.1,0l0.2,0.1l0.7,0.2
		l0.7,0.2l-0.5-0.9l-0.5-0.8l-0.5-0.8l-0.5-0.8l-0.5-0.8l-0.5-0.7l-0.5-0.7l-0.5-0.6l-0.7-0.8l-0.7-0.7l-0.7-0.7l-0.7-0.6l-0.8-0.5
		l-0.4-0.3l-0.4-0.2l-0.8-0.4l-0.8-0.4L294,242l-1.1-0.6l-1.1-0.7l-1.1-0.7l-1.1-0.7l-1.1-0.8l-1-0.8l-1-0.9l-1.2-1.1l-1.1-1.1
		l-1.1-1.1l-0.5-0.6l-0.5-0.5l-0.5-0.6l-0.5-0.6l-0.9-1.1l-0.8-1.2l-0.4-0.6l-0.3-0.6l0.4,0.5l0.4,0.5l0.4,0.5l0.4,0.5l0.9,0.8
		l0.4,0.4l0.5,0.4l0.5,0.3l0.5,0.3l0.5,0.3l0.5,0.3l1,0.5l0.5,0.2l0.6,0.2l0.7,0.2l0.4,0.1l0.4,0h0.4l0.5,0l0.5,0l0.5,0l-0.9-0.8
		l-0.4-0.4l-0.4-0.4l-0.4-0.5l-0.3-0.4l-0.3-0.5l-0.3-0.4l-0.5-0.9l-0.5-0.9l-0.4-1l-0.2-0.5l-0.1-0.5l-0.1-0.2l-0.1-0.2l-0.1-0.2
		l-0.1-0.2l-0.2-0.3l-0.2-0.2l-0.2-0.2l-0.1-0.1l-0.1-0.1l-0.2-0.1l-0.2,0h-0.2l-0.2,0.1l-0.1,0l-0.1,0.1l-0.1,0.1l-0.1,0.1
		l-0.3,0.2l-0.3,0.3l-0.2,0.2l-0.1,0.2l-0.2,0.2l-0.1,0.2l-0.1-0.9l-0.1-0.9l-0.1-1l0-1l0-1v-1v-1l0-1l0-0.7l0-0.6l0-0.6l-0.1-0.6
		l-0.1-0.6l-0.1-0.5l-0.2-0.5l-0.2-0.4l-0.2,0.3l-0.3,0.3l-0.3,0.3l-0.3,0.3l-0.4,0.3l-0.5,0.3l-0.5,0.3l-0.2,0.1l-0.1,0.1l-0.3,0.2
		l-0.3,0.1l-0.2,0l-0.1,0l-0.1,0h-0.1l-0.1,0l-0.2,0h-0.1l-0.1,0l-0.2,0l-0.4,0l-0.4,0l-0.1,0h-0.1H275l-0.4,0l0.2,0.5l0,0.1
		l0.1,0.1l0.1,0.2l0.2,0.4l0,0.1l0,0l0,0.1l0.1,0.2l0.2,0.2l0.2,0.2l0.2,0.2l0.1,0.1l0,0l0.1,0l-0.5,0.1l-0.5,0.1l-0.5,0l-0.5,0
		l-0.5,0l-0.5-0.1l-0.5-0.1l-0.4-0.1l-0.4-0.2l-0.4-0.2l-0.4-0.2l-0.4-0.2l-0.4-0.3l-0.4-0.3l-0.4-0.3L269,215.8L269,215.8z
		 M253.2,239.1l-0.2,0.1l-0.2,0l-0.2,0l-0.2,0l-0.2-0.1l-0.2-0.1l-0.1-0.2l-0.1-0.2l-0.1-0.2l-0.1-0.3l-0.1-0.3l-0.1-0.3l-0.1-0.4
		l0-0.4l0-0.5l0-0.5v-0.7l0.1-0.7l0.1-0.7l0.1-0.6l0.1-0.7l0.2-0.6l0.2-0.6l0.2-0.6l0.2-0.6l0.3-0.5l0.3-0.5l0.4-0.5l0.3-0.5
		l0.4-0.4l0.4-0.4l0.5-0.4l0.6-0.5l0.3-0.2l0.3-0.2l0.2-0.2l0.3-0.1l0.2-0.1l0.2-0.1l0.2-0.1l0.2,0l0.2,0l0.2,0l0.2,0l0.2,0.1
		l0.2,0.1l0.2,0.1l0.1,0.1l0.2,0.2l0.1,0.2l0.1,0.2l0.1,0.2l0.1,0.3l0.1,0.3l0.1,0.3l0.1,0.3l0.1,0.4l0.1,0.4l0.1,0.4l0,0.4l0,0.5
		l0,0.5l0,0.5l0.1,1.4l0.1,1.4l0.2,1.4l0.3,1.4l0.3,1.3l0.2,0.6l0.2,0.7l0.2,0.6l0.2,0.6l0.5,1.3l0.2-0.4l0.2-0.4l0.3-0.5l0.3-0.5
		l0.2-0.4l0.1-0.2l0.1-0.1l0.2-0.2l0.1-0.1h0.1l0.2,0l0.2,0.2l0.2,0.2l0.1,0.2l0.1,0.2l0.6,1.2l0.7,1.1l0.7,1l0.4,0.5l0.4,0.5
		l0.8,0.9l0.9,0.8l0.9,0.7l0.5,0.3l0.5,0.3l0-1.3l0-0.6l0.1-0.6l0.2-1.2l0.2-1.1l0.3-1.1l0.3-1l0.4-1l0.5-0.9l0.5,0.4l0.5,0.5
		l0.5,0.5l0.5,0.6l0.8,1.1l0.4,0.5l0.4,0.6l0.3,0.6l0.4,0.6l0.3,0.6l0.3,0.6l0.3,0.6l0.3,0.7l0.5,1.3l0.2,0.7l0.2,0.7l0.4,1.5
		l0.2-0.2l0.2-0.2l0.2-0.2l0.2-0.1l0.2-0.1l0.3-0.1l0.3-0.1l0.3-0.1l0.3-0.1l0.3,0l0.3,0l0.4,0l0.3,0l0.4,0.1l0.4,0.1l0.4,0.1
		l0.6,0.2l0.6,0.2l1.2,0.4l0.6,0.2l0.6,0.3l1.2,0.6l1.2,0.6l0.6,0.3l0.6,0.3l1.1,0.7l1.1,0.8l0,0v0v-0.1v-0.1l0-0.2l0-0.1v-0.1
		l0-0.2l0-0.1V253l0-0.3l-0.1-0.4l0-0.2l0-0.2l1.4,0.8l0.7,0.4l0.8,0.5l0.8,0.5l0.8,0.5l1.6,1.2l0.3,0.2l0.3,0.2l0.2,0.2l0.3,0.2
		l0.2,0.2l0.2,0.2l0,0l0.1,0l0.1,0.1l0.2,0.2l0.1,0l0,0l0.1,0l0.2,0.1l0.2,0.1l0.2,0.1l0.1,0h0l0,0l0.1,0l0.1,0l0.1,0l0.1,0l0,0h0.1
		l0.1,0l0.1,0l0-0.1l0-0.1v-0.1l0,0l0-0.1l0-0.1v-0.1v-0.1l0-0.2l0-0.2l-0.1-0.2l0-0.2l-0.1-0.2l0-0.1l0-0.1v0l0.5,0.3l0.5,0.2
		l0.5,0.2l0.6,0.2l0.7,0.2l0.7,0.3l0.6,0.3l0.6,0.4l0.6,0.4l0.3,0.2l0.3,0.3l0.2,0.3l0.3,0.3l0.2,0.3l0.3,0.3l0,0l0,0.1l0.1,0.1
		l0.2,0.2l0.3,0.4l0.1,0.2l0.2,0.2l0.3,0.3l0.1,0.1l0.1,0.1l0.3,0.2l0.1,0.1l0.1,0.1l0.3,0.1h0.1l0.1,0h0.2l0.1,0l0.1,0l0.2-0.1
		l0.2-0.2l0-0.1l0.1,0l0.1-0.1l0.1-0.1l0-0.1l0,0l0,0l0.2-0.3l0.2-0.5l0.2-0.5l0.1-0.5l0.1-0.4l0.1-0.4l0-0.4l0-0.4l0-0.4l0.3,0.3
		l0.4,0.3l0.4,0.3l0.5,0.4l0.5,0.3l0.6,0.4l0.6,0.4l0.7,0.4l1.3,0.7l1.3,0.7l1.3,0.7l1.3,0.8l2.5,1.5l2.5,1.6l-0.7,0.7l-0.7,0.7
		l-0.7,0.6l-0.6,0.6l-0.5,0.4l-0.3,0.2L325,270l-0.5,0.3l-0.5,0.3l-0.6,0.3l-0.2,0.1l-0.1,0.1l-0.3,0.2l-0.6,0.2l-0.6,0.2l-0.6,0.2
		l-0.6,0.2l-0.6,0.2l-0.6,0.1l-0.3,0h-0.1l-0.1,0l-0.2,0l-0.6,0.1l-0.3,0l-0.3,0l-0.6,0h-1l-0.9,0l-1.8-0.1l-0.9-0.1l-0.9-0.1
		l-0.9-0.1l-0.9-0.2l-1.7-0.4l-1.7-0.5l-0.8-0.3l-0.8-0.3l-0.8-0.3l-0.8-0.3l-0.9-0.4l-0.9-0.4l-1.8-0.9l-0.9-0.5l-0.8-0.5l-0.8-0.5
		l-0.8-0.5l-1.6-1.1l-1.5-1.1l-0.8-0.6l-0.7-0.6l-0.7-0.6l-0.7-0.6l-0.3-0.3l-0.3-0.2l-0.5-0.4l-0.5-0.3l-0.2-0.1l-0.2-0.1l-0.2-0.1
		l-0.2-0.1l-0.2-0.1l-0.1,0l-0.2,0l-0.1,0l-0.2,0.1l-0.1,0.1l-0.1,0.1l-0.1,0.1l0,0.2l-0.1,0.2l0,0.2l0,0.4l0,0.5l0.1,0.6l0.1,0.7
		l0.1,0.4l0.1,0.4l-0.9-0.2l-0.9-0.3l-0.8-0.3l-0.8-0.3l-0.8-0.4l-0.8-0.4l-0.8-0.4l-0.7-0.4l-0.7-0.5l-0.7-0.5l-0.7-0.5l-0.6-0.5
		l-0.6-0.5l-0.6-0.5l-0.6-0.5l-0.5-0.6l-0.5-0.6l-0.5-0.6l-0.5-0.6l-0.4-0.6l-0.5-0.6l-0.4-0.5l-0.4-0.5l-0.4-0.4l-0.4-0.3l-0.4-0.2
		l-0.4-0.2l-0.3-0.1h-0.3l-0.3,0.1l-0.3,0.2l-0.2,0.3l-0.2,0.3l-0.2,0.4l-0.2,0.5l-0.2,0.6l-0.7-0.3l-0.7-0.4l-0.7-0.4l-0.6-0.4
		l-0.6-0.5l-0.6-0.5l-0.6-0.5l-0.6-0.5l-0.5-0.5l-0.4-0.5l-0.8-1l-0.4-0.5l-0.3-0.5l-0.3-0.5l-0.3-0.5l-0.3-0.6l-0.3-0.5l-0.5-1.1
		l-0.5-1.2l-0.2-0.6l-0.2-0.6l-0.2-0.5l-0.1-0.2l-0.1-0.2l-0.2-0.4l-0.2-0.3l-0.2-0.3l-0.2-0.2l-0.3-0.2l-0.3-0.2l-0.3-0.2l-0.3-0.1
		l-0.3-0.1l-0.3,0l-0.4,0l-0.4,0.1l-0.4,0.1L253.2,239.1L253.2,239.1z M223.5,207.4v0.4l0,0.4v0.8l0,0.8l-0.1,0.8l-0.1,0.8l-0.1,0.8
		l-0.2,0.8l-0.2,0.8l-0.5,1.8l-0.5,1.8l-0.5,1.8l-0.5,1.8l-0.6,1.7l-0.6,1.7l-0.7,1.7l-0.3,0.9l-0.3,0.9l0.6-0.2l0.7-0.2l0.6-0.2
		l0.2-0.1l0.2,0l0.3-0.1l0.3-0.1l0.2-0.1l0.2,0l0.6-0.2l0.3-0.1l0.2-0.1l0.2,0l0.6-0.2l0.6,5.4l0.7,5.5l1.5,12.1l0.2,1.3l0.2,1.3
		l0.2,1.3l0.3,1.3l0.3,1.2l0.3,1.3l0.4,1.2l0.4,1.2l0.2-0.1l0.2-0.1l0.1-0.1l0.1-0.1l0.1-0.1l0.1-0.1l0.2-0.2l0.1-0.1l0.1-0.1
		l0.1-0.2l0.1-0.2l0.4-0.8l0.5-0.7l0.5-0.6l0.5-0.5l0.5-0.4l0.5-0.3l0.5-0.2l0.5-0.1l0.5,0l0.5,0.1l0.5,0.2l0.5,0.2l0.5,0.3l0.5,0.4
		l0.6,0.5l0.6,0.6l1.8,2.1l1.9,2.1l1.8,2.1l1.9,2.2l0.3,0.3l0.3,0.3l0.3,0.3l0.3,0.3l0.2,0.2l0.3,0.2l0.2,0.2l0.1,0.1l0.1,0l0.1,0.1
		l0.2,0.1l0.2,0.1l0.2,0.1h0l0.1,0l0.1,0h0.1h0l0.1,0l0.2,0l0.1,0h0.1l0.2,0l0.1-0.1l0.2-0.1l0.1-0.1l0.1-0.1l0.2-0.1l0.1-0.2
		l0.1-0.2l0-0.1l0-0.1l0,0l0.1-0.2l0.1-0.3l0-0.2l0-0.1l0-0.1v-0.1l0-0.1l0-0.2l0.1-0.3l0-0.4l0.1-0.4l0-0.4l0.1-0.4l0.6,0.7
		l0.6,0.7l0.6,0.6l0.7,0.6l0.7,0.5l0.8,0.5l0.8,0.4l0.8,0.4V267v-1.3l1.5,0.4l1.5,0.4l1.5,0.4l1.4,0.4l1.3,0.4l0.6,0.2l0.6,0.2
		l0.6,0.1l0.6,0.1l0.6,0.1l0.3,0l0.2,0l0.2,0l0.6,0.1h0.1l0.2,0l0.3,0l0.6,0l0.6,0l0.3,0h0.3h0.6l1.1-0.1l-0.6-0.3l-0.6-0.3
		l-0.7-0.2l-0.8-0.2l-1.7-0.5l-1.6-0.6l-0.8-0.3l-0.8-0.3l-1.5-0.7l-0.8-0.4l-0.7-0.4l-0.7-0.4l-0.7-0.4l-0.7-0.5l-0.7-0.5l-0.7-0.5
		l-0.6-0.5l-0.1,0.3L257,262l-0.1,0.3l-0.1,0.2l0,0.1l0,0v0.1l-0.2,0.3l0,0l0,0l0,0.1l-0.1,0.2l-0.1,0.1l0,0l0,0l0,0.1l-0.2,0.2
		l-0.1-0.1l-0.1,0l-0.1-0.1l-0.2-0.2l-0.5-0.3l-0.5-0.3l-0.5-0.3l-0.5-0.4l-0.5-0.3l-0.6-0.4l-0.6-0.3l-0.5-0.3l-0.4-0.3l-0.4-0.3
		l-0.4-0.3l-0.4-0.3l-0.4-0.3l-0.7-0.7l-0.7-0.7l-0.6-0.7l-0.5-0.8l-0.3-0.4l-0.2-0.4l-0.4-0.6l-0.4-0.6l-0.4-0.5l-0.4-0.4l-0.4-0.3
		l-0.4-0.2l-0.4-0.1l-0.3,0l-0.4,0l-0.3,0.1l-0.3,0.2l-0.3,0.3l-0.3,0.4l-0.3,0.5l-0.3,0.5l-0.3,0.6l-0.5-0.7l-0.5-0.7l-0.5-0.7
		l-0.4-0.7l-0.8-1.6l-0.4-0.8l-0.4-0.8l-1-2.3l-1-2.2l-0.9-2.2l-0.9-2.1l-0.2,0.2l-0.2,0.2l-0.3,0.2l-0.3,0.2l-0.2,0.1l-0.2,0.1
		l-0.4,0.2l-0.5,0.2l-0.5,0.2l-0.2-0.6l-0.2-0.5l-0.2-0.6l-0.2-0.6l-0.2-0.6l-0.1-0.6l-0.2-1.3l-0.1-0.7l-0.1-0.7l-0.1-0.7l0-0.7
		l0-0.8l0-0.8l0.1-1.6l0.1-1.6l0.2-1.5l0.2-1.5l0.3-1.5l0.2-0.9l0.1-0.4l0.1-0.4l0-0.4l0-0.4l0-0.7l-0.1-0.4l0-0.3l-0.1-0.6
		l-0.2-0.5l-0.1-0.2l-0.1-0.2l-0.3-0.4l-0.2-0.2l-0.2-0.2l-0.5-0.3l-0.5-0.2l-0.6-0.2l-0.6-0.1l-0.4,0H226h-0.4l-0.4,0l0.7-0.9
		l0.8-1l0.8-1.1l0.8-1.1l0.2-0.3l0.2-0.3l0.2-0.3l0.2-0.3l0.4-0.6l0.2-0.3l0.2-0.3l0.3-0.7l0.2-0.3l0.2-0.3l0.3-0.7l0.3-0.7l0.3-0.7
		l0.3-0.7l0.3-0.7l0.3-0.7l0.2-0.8l0.2-0.8l0.2-0.8l0.2-0.8l0.3,0.3l0.3,0.3l0.3,0.2l0.4,0.2l0.4,0.2l0.4,0.1l0.4,0.1l0.5,0.1
		l-0.4,2.8l-0.3,2.8l-0.2,2.8l0,2.9l0,0.7l0,0.7l0.1,0.6l0.1,0.6l0.1,0.5l0.2,0.5l0.2,0.5l0.2,0.5l0.2,0.4l0.3,0.4l0.3,0.3l0.3,0.3
		l0.3,0.2l0.4,0.2l0.4,0.2l0.5,0.2l0.2,0.8l0.2,0.8l0.2,0.8l0.2,0.9l0.3,1.8l0.1,0.9l0.1,0.9l0.1,0.7l0.1,0.7l0.1,0.7l0.1,0.7
		l0.3,1.3l0.4,1.3l0.2,0.6l0.2,0.6l0.2,0.5l0.2,0.6l0.5,1l0.6,1l-0.1-0.5v-0.4v-0.4l0-0.4l0.1-0.7l0.1-0.4l0.1-0.3l0.3-0.8l0.3-0.7
		l0.2-0.7l0.1-0.3l0.1-0.3l0.1,0.8l0.1,0.8l0.2,0.8l0.2,0.8l0.2,0.7l0.3,0.8l0.2,0.4l0.2,0.4l0.4,0.8l0.9,1.5l0.5,0.7l0.5,0.7
		l0.5,0.7l0.5,0.7l1.1,1.3l1.1,1.2l0.6,0.6l0.6,0.6l0.6,0.5l0.6,0.5l1.3,1l0.4,0.3l0.2,0.2l0.2,0.2l0.9,0.6l0.8,0.6l0.8,0.6v-0.7
		v-0.6v-0.5V250v-0.5v-0.4v-0.4v-0.3l0.1,0.4l0.2,0.4l0.3,0.9l0.4,0.8l0.4,0.9l0.5,0.8l0.5,0.8l0.6,0.8l0.6,0.8l1.2,1.3l1.2,1.3
		l1.2,1.2l1.2,1.1l1.2,1.1l1.3,1l1.3,0.9l1.3,0.9l0.1-0.9l0.2-0.8l0.2-0.7l0.2-0.6l0.2,0.4l0.2,0.4l0.2,0.4l0.2,0.4l0.2,0.4l0.3,0.4
		l0.3,0.4l0.3,0.4l0.3,0.3l0.3,0.3l0.3,0.3l0.4,0.3l0.7,0.6l0.4,0.3l0.4,0.3l1,0.5l1,0.5l1,0.4l1.1,0.4l1.1,0.3l1.2,0.3l1.2,0.2
		l1.3,0.2l0-0.5l0.1-0.5l0.1-0.4l0.1-0.4l0.1-0.3l0.2-0.3l0.2-0.2l0.2-0.2l0.2-0.1l0.2-0.1l0.2,0l0.3,0.1l0.3,0.1l0.3,0.2l0.3,0.2
		l0.4,0.3l0.7,0.5l0.7,0.5l1.5,1l0.8,0.5l0.8,0.4l1.6,0.8l1.6,0.7l0.8,0.3l0.8,0.3l0.8,0.2l0.8,0.2l0.8,0.2l0.8,0.2l0.9,0.2l0.9,0.3
		l-0.7,0.1l-0.4,0l-0.2,0l-0.2,0h-0.2l-0.2,0l-0.4,0l-0.4,0l-0.4,0h-0.5l-0.5,0h-0.5l-0.5,0l-0.5,0h-0.5h-1l-1.3,0l-1.3,0l-1.3,0
		l-1.2,0.1l-1.2,0.1l-1.1,0.1l-1.1,0.1l-1.1,0.2v0.4l0,0.4l0.1,0.4l0.1,0.4l0.1,0.3l0.2,0.4l0.2,0.3l0.2,0.3h-0.7h-0.6l-0.6,0
		l-0.6-0.1l-0.6-0.1l-0.5-0.1l-0.5-0.2l-0.5-0.2l-1.6-0.6l-1.6-0.4l-1.6-0.3l-1.5-0.2l-1.6-0.1l-0.8,0l-0.8,0.1l-1.5,0.2l-1.5,0.3
		l0.3,0.3l0.3,0.3l0.1,0.1l0.1,0.2l0.1,0.1l0.1,0.2l0.2,0.2l0.2,0.2l0.2,0.2l0.1,0.1l0,0l0,0l0,0l-1,0.6l-0.9,0.7l-0.9,0.7l-0.9,0.8
		l-0.9,0.8l-0.8,0.8l-0.8,0.8l-0.8,0.9l-0.5,0.5l-0.5,0.5l-0.5,0.5l-0.5,0.5l-0.6,0.4l-0.6,0.4l-0.6,0.4l-0.6,0.4l-0.6,0.3l-0.3,0.2
		l-0.3,0.2l-0.3,0.1l-0.3,0.2l-0.7,0.3l-0.7,0.2l-0.7,0.2l-0.7,0.2l-0.4,0.1l-0.3,0.1l1,0.9l1,1l1,1.1l1,1.2l-2.1-0.1l-2-0.1
		l-1.3-0.1l-1.2-0.1l-1.2-0.2l-1.2-0.2l-1.2-0.2l-1.1-0.3l-1.1-0.3l-1.1-0.3l-1.1-0.4l-1-0.4l-1-0.5l-1-0.5l-1-0.5l-0.9-0.5
		l-0.9-0.6l-0.9-0.6l0.1,0.5l0.2,0.5l0.2,0.4l0.3,0.4l0.3,0.3l0.3,0.3l0.3,0.2l0.4,0.2l-1.2-0.1l-1.2-0.1l-1.1-0.2l-1.1-0.2
		l-1.1-0.3l-1.1-0.3l-1.1-0.3l-1.1-0.3l-1.1-0.4l-1-0.4l-1-0.4l-1-0.4l-1-0.5l-1-0.5l-2-1.1l-1-0.6l-0.9-0.6l-0.9-0.6l-0.9-0.6
		l-1.4-1.1l-0.7-0.5l-0.6-0.5l-0.6-0.5l-0.5-0.5l-0.5-0.5l-0.5-0.5l-0.5-0.6l-0.4-0.5l-0.4-0.6l-0.4-0.5l-0.4-0.6l-0.3-0.6l-0.5-1.1
		l-0.3,0.7l-0.3,0.7l-0.3,0.7l-0.3,0.6l-0.4,0.6l-0.3,0.5l-0.2,0.2l-0.2,0.3l-0.3,0.5l-0.4-0.7l-0.4-0.7l-0.6-1.4l-0.6-1.4l-0.5-1.4
		l-0.2-0.8l-0.2-0.7l-0.3-1.5l-0.1-0.8l-0.1-0.8l-0.1-1.6l-0.1-1.4l-0.1-1.3l-0.1-1.3l0-1.3l0-1.2v-1.2v-1.2l0-1.1l-0.7,0.4
		l-0.3,0.2l-0.3,0.2l-0.4,0.1l-0.3,0.1l-0.7,0.2l-0.8,0l-0.8,0l-0.4-0.1l-0.4-0.1l-0.1,0l-0.1,0h0l-0.2,0l-0.4-0.1l0.7-1.6l0.8-1.6
		l0.8-1.7l0.9-1.7l0.6-1.2l0.6-1.2l0.5-1.2l0.5-1.2l0.5-1.2l0.5-1.2l0.5-1.2l0.2-0.6l0.2-0.6l0.2-0.6l0.2-0.6l0.2-0.6l0.2-0.6
		l0.3-1.3l0.3-1.3l0.2-1.3l0.2-1.3l0.1-0.7l0.1-0.7l0.2-1.3l0.1-1.4l0.1-1.4l0.1-1.4l0.1-1.4l0-1.4v-1.4l0-1.4l-0.1-1.4l-0.1-2.8
		l-0.2-2.7l-0.1-1.3l-0.1-1.3l-0.2-1.3l-0.2-1.3l-0.2-1.4l-0.1-1.4l-0.1-1.3l0-1.3l0.1-1.3l0.2-1.3l0.2-1.3l0.3-1.2l0.4,0.2l0.4,0.3
		l0.8,0.7l0.8,0.8l0.8,0.9l0.4-0.7l0.4-0.6l0.4-0.6l0.5-0.5l0.5-0.5l0.5-0.5l0.5-0.5l0.6-0.4l0.4,1.4l0.3,1.5l0.3,1.5l0.2,1.6
		l0.2,1.5l0.1,1.6l0.1,1.6v1.7l0.4-0.1l0.4-0.1l0.4-0.1l0.4-0.1l0.2-0.1l0.2-0.1l0.4-0.1l0.7-0.3l0.7-0.3l0.3-0.2l0.3-0.2l0.3-0.2
		l0.2-0.1l0.1-0.1l0.1,0L223.5,207.4L223.5,207.4z M261.4,198l0.2-0.3l0.2-0.3l0.2-0.3l0.2-0.2l0.2-0.2l0.2-0.2l0.4-0.3l0.1-0.2
		l0.1-0.1l0.1-0.1l0.1,0l0.1,0h0.1l0,0l0,0.1l3.3-1.3l0.2-0.2l0.3-0.1l0.3-0.1l0.4-0.1l0.5-0.1l0.5,0l0.6,0l0.7,0.1V194l0.2,0.1
		l0.7,0.2l0.7,0.2l0.2,0l0.3,0.1l0.4,0.1l0.4,0.1l0.4,0.2l0.4,0.2l0.3,0.2l0.2,0.2l0.2,0.2l0.2,0.3l0.6,1.2l0.2,0.6l0.2,0.6l0.4,1.2
		l0.2,0.6l0.2,0.7l0.1,0.6l0.1,0.7l0.1,0.7l0,0.7v1.4l-0.1,1.5l0,0.2l0,0.1v0.1l0,0.1l0,0.1l-0.1,0.2l-0.1,0.1l0,0.1l-0.1,0.2
		l-0.1,0.1l0,0h0v0v0l-0.1,0.2l-0.3,0.3h0l0,0l0,0l-0.1,0.1l-0.2,0.2l-0.3,0.3l-0.3,0.3l-0.8,0.5l-0.4,0.2l-0.4,0.2l-0.5,0.1
		l-0.5,0.1l-0.5,0h-0.2h-0.2l-0.3,0l-0.2,0l-0.5-0.1l-0.3-0.1l-0.2-0.1l-0.5-0.2l-0.8-0.4l-0.7-0.3l-0.7-0.2l-0.7-0.2l-0.6-0.1
		l-0.6,0h-0.3l-0.2,0l-0.5,0.1l-0.5,0.2l-0.4,0.2l-0.4,0.3l-0.3,0.4l-0.3,0.4l-0.1,0.2l-0.1,0.3l-0.1,0.3l-0.1,0.3l-0.1,0.7
		l-0.1,0.5l-0.1,0.5l-0.2,0.4l-0.2,0.4l-0.2,0.4l-0.2,0.4l-0.1,0.2l-0.1,0.2l-0.1,0.2l-0.1,0.2l-0.3,0.3l-0.3,0.3L260,216l-0.1,0.2
		l-0.2,0.1l-0.1,0.2l-0.3,0.2L259,217l-0.4,0.2l-0.4,0.2l-0.8,0.4l-0.7,0.3l-0.7,0.2l-0.7,0.2l-0.7,0.1l-0.6,0.1h-0.6l-0.6-0.1
		l-0.6-0.2l-0.5-0.2l-0.5-0.3l-0.5-0.3l-0.5-0.4l-0.5-0.5l-0.5-0.5l-0.4-0.6l-0.1,0.7l-0.1,0.8l-0.1,0.7l-0.1,0.7l-0.1,0.7l-0.1,0.3
		l0,0.4l-0.1,0.3l-0.1,0.3l-0.1,0.7l-0.1,0.3l-0.1,0.3l-0.2,0.6l0,0.1l0,0.1l0,0.2l-0.1,0.3l-0.2,0.6l-0.2,0.5l-0.2,0.6l-0.2,0.5
		l-0.2,0.5l-0.8-2.4l-0.8-2.4l-0.8-2.3l-0.9-2.3l-0.4-1.2l-0.3-1.1l-0.2-1.1l0-1.1l0.1-1.1l0.2-1.1l0.1-0.5l0.2-0.5l0.4-1.1l0.2-0.5
		l0.3-0.5l0.3-0.4l0.4-0.4l0.4-0.4l0.5-0.4l0.5-0.4l0.6-0.3l0.1,0.1l0.5,0.2l0.2,0.1l0.2,0.1l0.5,0.1l0.2,0l0.2,0l0.2,0l0.2,0h0.3
		l0.2,0h0.2l0.1,0v0h0h0h0.1l0.2-0.1l2.1,0.2l2.8-0.9l0.7-0.6l0.7-0.5l0.6-0.5l0.6-0.5l0.5-0.5l0.5-0.4l0.4-0.4l0.3-0.3l1.1-1.3
		L261.4,198z"/>
	<path fill-rule="evenodd" clip-rule="evenodd" fill="#12100D" d="M234.5,204.1l0.4,0.2l0.5,0.2l0.5,0.1l0.5,0.1l-0.4,2.8l-0.3,2.8
		l-0.2,2.8l0,2.9l0,0.7l0,0.7l0.1,0.6l0.1,0.6l0.1,0.5l0.2,0.5l0.2,0.5l0.2,0.5l0.2,0.4l0.3,0.4l0.3,0.3l0.3,0.3l0.3,0.2l0.4,0.2
		l0.4,0.2l0.5,0.2l0.2,0.8l0.2,0.8l0.2,0.8l0.2,0.9l0.3,1.8l0.1,0.9l0.1,0.9l0.1,0.7l0.1,0.7l0.1,0.7l0.1,0.7l0.3,1.3l0.4,1.3
		l0.2,0.6l0.2,0.6l0.2,0.5l0.2,0.6l0.5,1l0.6,1l-0.1-0.5v-0.4v-0.4l0-0.4l0.1-0.7l0.1-0.4l0.1-0.3l0.3-0.8l0.3-0.7l0.2-0.7l0.1-0.3
		l0.1-0.3l0.1,0.8l0.1,0.8l0.2,0.8l0.2,0.8l0.2,0.7l0.3,0.8l0.2,0.4l0.2,0.4l0.4,0.8l0.9,1.5l0.5,0.7l0.5,0.7l0.5,0.7l0.5,0.7
		l1.1,1.3l1.1,1.2l0.6,0.6l0.6,0.6l0.6,0.5l0.6,0.5l1.3,1l0.4,0.3l0.2,0.2l0.2,0.2l0.9,0.6l0.8,0.6l0.8,0.6v-0.7v-0.6v-0.5V250v-0.5
		v-0.4v-0.4v-0.3l0.4,1.1l0.5,1.1l0.5,1.1l0.7,1.1l0.4,0.5l0.4,0.5l0.9,1.1l1.2,1.3l1.2,1.3l1.2,1.2l1.2,1.1l1.2,1.1l1.3,1l1.3,0.9
		l1.3,0.9l0.1-0.9l0.2-0.8l0.2-0.7l0.2-0.6l0.2,0.4l0.2,0.4l0.2,0.4l0.2,0.4l0.2,0.4l0.3,0.4l0.3,0.4l0.3,0.4l0.3,0.3l0.3,0.3
		l0.3,0.3l0.4,0.3l0.7,0.6l0.4,0.3l0.4,0.3l1,0.5l1,0.5l1,0.4l1.1,0.4l1.1,0.3l1.2,0.3l1.2,0.2l1.3,0.2l0-0.5l0.1-0.5l0.1-0.4
		l0.1-0.4l0.1-0.3l0.2-0.3l0.2-0.2l0.2-0.2l0.2-0.1l0.2-0.1l0.2,0l0.3,0.1l0.3,0.1l0.3,0.2l0.3,0.2l0.4,0.3l0.7,0.5l0.7,0.5l1.5,1
		l0.8,0.5l0.8,0.4l1.6,0.8l1.6,0.7l0.8,0.3l0.8,0.3l0.8,0.2l0.8,0.2l0.8,0.2l0.8,0.2l0.9,0.2l0.9,0.3l-0.7,0.1l-0.4,0l-0.2,0l-0.2,0
		h-0.2l-0.2,0l-0.4,0l-0.4,0l-0.4,0h-0.5l-0.5,0h-0.5l-0.5,0l-0.5,0h-0.5h-1l-1.3,0l-1.3,0l-1.3,0l-1.2,0.1l-1.2,0.1l-1.1,0.1
		l-1.1,0.1l-1.1,0.2v0.4l0,0.4l0.1,0.4l0.1,0.4l0.1,0.3l0.2,0.4l0.2,0.3l0.2,0.3h-0.7h-0.6l-0.6,0l-0.6-0.1l-0.6-0.1l-0.5-0.1
		l-0.5-0.2l-0.5-0.2l-1.6-0.6l-1.6-0.4l-1.6-0.3l-1.5-0.2l-1.6-0.1l-0.8,0l-0.8,0.1l-1.5,0.2l-1.5,0.3l0.3,0.3l0.3,0.3l0.1,0.1
		l0.1,0.2l0.1,0.1l0.1,0.2l0.2,0.2l0.2,0.2l0.2,0.2l0.1,0.1l0,0l0,0l0,0l-1,0.6l-0.9,0.7l-0.9,0.7l-0.9,0.8l-0.9,0.8l-0.8,0.8
		l-0.8,0.8l-0.8,0.9l-0.5,0.5l-0.5,0.5l-0.5,0.5l-0.5,0.5l-0.6,0.4l-0.6,0.4l-0.6,0.4l-0.6,0.4l-0.6,0.3l-0.3,0.2l-0.3,0.2l-0.3,0.1
		l-0.3,0.2l-0.7,0.3l-0.7,0.2l-0.7,0.2l-0.7,0.2l-0.4,0.1l-0.3,0.1l1,0.9l1,1l1,1.1l1,1.2l-2.1-0.1l-2-0.1l-1.3-0.1l-1.2-0.1
		l-1.2-0.2l-1.2-0.2l-1.2-0.2l-1.1-0.3l-1.1-0.3l-1.1-0.3l-1.1-0.4l-1-0.4l-1-0.5l-1-0.5l-1-0.5l-0.9-0.5l-0.9-0.6l-0.9-0.6l0.1,0.5
		l0.2,0.5l0.2,0.4l0.3,0.4l0.3,0.3l0.3,0.3l0.3,0.2l0.4,0.2l-1.2-0.1l-1.2-0.1l-1.1-0.2l-1.1-0.2l-1.1-0.3l-1.1-0.3l-1.1-0.3
		l-1.1-0.3l-1.1-0.4l-1-0.4l-1-0.4l-1-0.4l-1-0.5l-1-0.5l-2-1.1l-1-0.6l-0.9-0.6l-0.9-0.6l-0.9-0.6l-1.4-1.1l-0.7-0.5l-0.6-0.5
		l-0.6-0.5l-0.5-0.5l-0.5-0.5l-0.5-0.5l-0.5-0.6l-0.4-0.5l-0.4-0.6l-0.4-0.5l-0.4-0.6l-0.3-0.6l-0.5-1.1l-0.3,0.7l-0.3,0.7l-0.3,0.7
		l-0.3,0.6l-0.4,0.6l-0.3,0.5l-0.2,0.2l-0.2,0.3l-0.3,0.5l-0.4-0.7l-0.4-0.7l-0.6-1.4l-0.6-1.4l-0.5-1.4l-0.2-0.8l-0.2-0.7l-0.3-1.5
		l-0.1-0.8l-0.1-0.8l-0.1-1.6l-0.1-1.4l-0.1-1.3l-0.1-1.3l0-1.3l0-1.2v-1.2v-1.2l0-1.1l-0.7,0.4l-0.3,0.2l-0.3,0.2l-0.4,0.1
		l-0.3,0.1l-0.7,0.2l-0.8,0l-0.8,0l-0.4-0.1l-0.4-0.1l-0.1,0l-0.1,0h0l-0.2,0l-0.4-0.1l1.1-2.4l0.6-1.2l0.6-1.2l0.9-1.8l0.6-1.2
		l0.6-1.2l0.5-1.2l0.5-1.2l0.5-1.2l0.5-1.2l0.5-1.2l0.2-0.6l0.2-0.6l0.2-0.6l0.2-0.6l0.2-0.6l0.2-0.6l0.3-1.3l0.3-1.3l0.2-1.3
		l0.2-1.3l0.1-0.7l0.1-0.7l0.2-1.3l0.1-1.4l0.1-1.4l0.1-1.4l0.1-1.4l0-1.4v-1.4l0-1.4l-0.1-1.4l-0.1-2.8l-0.2-2.7l-0.1-1.3l-0.1-1.3
		l-0.2-1.3l-0.2-1.3l-0.2-1.4l-0.1-1.3l-0.1-1.3l0-1.3l0.1-1.3l0.2-1.3l0.2-1.3l0.3-1.3l0.4,0.2l0.4,0.3l0.8,0.7l0.8,0.8l0.8,0.9
		l0.4-0.7l0.4-0.6l0.4-0.6l0.5-0.5l0.5-0.5l0.5-0.5l0.5-0.5l0.6-0.4l0.4,1.6l0.4,1.6l0.3,1.7l0.2,1.7l0.1,1.4l0.1,1.4l0,1.4l0,1.5
		l0.4-0.1l0.4-0.1l0.4-0.1l0.4-0.1l0.2-0.1l0.2-0.1l0.4-0.1l0.7-0.3l0.7-0.3l0.3-0.2l0.3-0.2l0.3-0.2l0.2-0.1l0.1-0.1l0.1,0l0.6-0.4
		v0.4l0,0.4v0.8l0,0.8l-0.1,0.8l-0.1,0.8l-0.1,0.8l-0.2,0.8l-0.2,0.8l-0.5,1.8l-0.5,1.8l-0.5,1.8l-0.5,1.8l-0.6,1.7l-0.6,1.7
		l-0.7,1.7l-0.3,0.9l-0.3,0.9l0.6-0.2l0.7-0.2l0.6-0.2l0.2-0.1l0.2,0l0.3-0.1l0.3-0.1l0.2-0.1l0.2,0l0.6-0.2l0.3-0.1l0.2-0.1l0.2,0
		l0.6-0.2l0.6,5.4l0.7,5.5l1.5,12.1l0.1,0.9l0.2,0.9l0.2,0.9l0.2,0.9l0.4,1.6l0.2,0.8l0.2,0.8l0.5,1.6l0.5,1.6l0.2-0.1l0.2-0.1
		l0.1-0.1l0.1-0.1l0.1-0.1l0.1-0.1l0.2-0.2l0.1-0.1l0.1-0.1l0.1-0.2l0.1-0.2l0.4-0.8l0.5-0.7l0.5-0.6l0.5-0.5l0.5-0.4l0.5-0.3
		l0.5-0.2l0.5-0.1l0.5,0l0.5,0.1l0.5,0.2l0.5,0.2l0.5,0.3l0.5,0.4l0.6,0.5l0.6,0.6l1.8,2.1l1.9,2.1l1.8,2.1l1.9,2.2l0.3,0.3l0.3,0.3
		l0.3,0.3l0.3,0.3l0.2,0.2l0.3,0.2l0.2,0.2l0.1,0.1l0.1,0l0.1,0.1l0.2,0.1l0.2,0.1l0.2,0.1h0l0.1,0l0.1,0h0.1h0l0.1,0l0.2,0l0.1,0
		h0.1l0.2,0l0.1-0.1l0.2-0.1l0.1-0.1l0.1-0.1l0.2-0.1l0.1-0.2l0.1-0.2l0-0.1l0-0.1l0,0l0.1-0.2l0.1-0.3l0-0.2l0-0.1l0-0.1v-0.1
		l0-0.1l0-0.2l0.1-0.3l0-0.4l0.1-0.4l0-0.4l0.1-0.4l0.6,0.7l0.6,0.7l0.6,0.6l0.7,0.6l0.7,0.5l0.8,0.5l0.8,0.4l0.8,0.4V267v-1.3
		l1.5,0.4l1.5,0.4l1.5,0.4l1.4,0.4l1.3,0.4l0.6,0.2l0.6,0.2l0.6,0.1l0.6,0.1l0.6,0.1l0.3,0l0.2,0l0.2,0l0.6,0.1h0.1l0.2,0l0.3,0
		l0.6,0l0.6,0l0.3,0h0.3h0.6l1.1-0.1l-0.6-0.3l-0.6-0.3l-0.7-0.2l-0.8-0.2l-1.7-0.5l-1.6-0.6l-0.8-0.3l-0.8-0.3l-1.5-0.7l-0.8-0.4
		l-0.7-0.4l-0.7-0.4l-0.7-0.4l-0.7-0.5l-0.7-0.5l-0.7-0.5l-0.6-0.5l-0.1,0.3L257,262l-0.1,0.3l-0.1,0.2l0,0.1l0,0v0.1l-0.2,0.3l0,0
		l0,0l0,0.1l-0.1,0.2l-0.1,0.1l0,0l0,0l0,0.1l-0.2,0.2l-0.1-0.1l-0.1,0l-0.1-0.1l-0.2-0.2l-0.5-0.3l-0.5-0.3l-0.5-0.3l-0.5-0.4
		l-0.5-0.3l-0.6-0.4l-0.6-0.3l-0.5-0.3l-0.4-0.3l-0.4-0.3l-0.4-0.3l-0.4-0.3l-0.4-0.3l-0.7-0.7l-0.7-0.7l-0.6-0.7l-0.5-0.8l-0.3-0.4
		l-0.2-0.4l-0.3-0.5l-0.3-0.4l-0.3-0.4l-0.3-0.3l-0.3-0.3l-0.3-0.2l-0.3-0.2l-0.3-0.1h-1.4l-0.3,0.1l-0.2,0.2l-0.3,0.2l-0.2,0.3
		l-0.3,0.3l-0.2,0.4l-0.2,0.4l-0.2,0.5l-0.8-1.2l-0.4-0.6l-0.4-0.6l-0.5-0.9l-0.5-0.9l-0.5-0.9l-0.4-0.9l-1-2.3l-1-2.2l-0.9-2.2
		l-0.9-2.1l-0.2,0.2l-0.2,0.2l-0.3,0.2l-0.3,0.2l-0.2,0.1l-0.2,0.1l-0.4,0.2l-0.5,0.2l-0.5,0.2l-0.2-0.6l-0.2-0.5l-0.2-0.6l-0.2-0.6
		l-0.2-0.6l-0.1-0.6l-0.2-1.3l-0.1-0.7l-0.1-0.7l-0.1-0.7l0-0.7l0-0.8l0-0.8l0.1-1.6l0.1-1.6l0.2-1.5l0.2-1.5l0.3-1.5l0.2-0.9
		l0.1-0.4l0.1-0.4l0-0.4l0-0.4l0-0.7l-0.1-0.4l0-0.3l-0.1-0.6l-0.2-0.5l-0.1-0.2l-0.1-0.2l-0.3-0.4l-0.2-0.2l-0.2-0.2l-0.5-0.3
		l-0.5-0.2l-0.6-0.2l-0.6-0.1l-0.4,0H226h-0.4l-0.4,0l0.7-0.9l0.8-1l0.8-1.1l0.8-1.1l0.2-0.3l0.2-0.3l0.4-0.6l0.4-0.6l0.2-0.3
		l0.2-0.3l0.2-0.3l0.2-0.3l0.3-0.6l0.3-0.6l0.3-0.6l0.3-0.7l0.3-0.6l0.3-0.7l0.3-0.7l0.2-0.7l0.2-0.7l0.2-0.7l0.2-0.7l0.2-0.9
		l0.2,0.3l0.3,0.2L234.5,204.1L234.5,204.1z M289.9,151.9l0.2-0.5l-2.9-0.2l-2.8-0.1l-2.8-0.1l-2.7,0l-2.7,0l-2.7,0.1l-2.6,0.1
		l-2.6,0.2l0,0.3l0,0.4l0,0.3l0,0.4l0,0.7v0.3l0,0.3l0,0.3v0.3l0,0.6l0,0.3l0,0.3l-0.1,0.6l-0.1,0.5l-0.1,0.2l-0.1,0.3l-0.2,0.5
		l-0.2,0.5l-0.1,0.2l-0.1,0.2l-0.2,0.4l-0.2,0.4l-0.2,0.4l-0.9,0.1l-0.8,0.2l-0.8,0.2l-0.7,0.2l-0.7,0.2l-0.7,0.2l-0.6,0.3l-0.6,0.3
		l-0.6,0.3l-0.5,0.3l-0.5,0.4l-0.5,0.4l-0.5,0.4l-0.4,0.4l-0.4,0.5l-0.3,0.5l-0.4,0.5l-0.3,0.5l-0.4,0.4l-0.3,0.4l-0.4,0.4l-0.2,0.2
		l-0.1,0l0,0.1l-0.1,0.1l-0.1,0.1l-0.1,0l0,0.1l-0.2,0.2l-0.4,0.4l-0.4,0.3l-0.2,0.2l-0.2,0.2l-0.8,0.6l-0.9,0.5l-0.5,0.2l-0.4,0.2
		l-0.6,0.2l-0.6,0.2l-0.5,0.1l-0.5,0.1l-0.5,0l-0.5,0l-0.5-0.1l-0.4-0.1l-0.5-0.2l-0.4-0.2l-0.4-0.2l-0.4-0.3l-0.4-0.3l-0.3-0.4
		l-0.3-0.4l-0.3-0.5l0.3,0.7l0.3,0.7l0.2,0.7l0.1,0.8v0.8l-0.1,0.8l-0.1,0.4l-0.1,0.4l-0.2,0.9l0.5,0.1l0.6,0.1l0.5,0.1l0.5,0.2
		l0.5,0.2l0.5,0.2l1,0.4l1,0.4l0.9,0.5l0.9,0.5l0.9,0.6l0.1-0.3l0.1-0.3V177l0-0.3l-0.1-0.4l-0.2-0.3l-0.2-0.4l-0.2-0.3l1.3-0.1
		l1.4-0.1l1.3-0.1l0.7-0.1l0.7-0.1l0.6-0.1l0.7-0.1l1.3-0.2l1.3-0.2l1.3-0.2l0.6-0.2l0.6-0.2l0.6-0.2l0.3-0.1l0.3-0.1l0.6-0.2
		l0.6-0.2l0.3-0.1l0.3-0.1l0.5-0.2l0.5-0.3l0.5-0.3l0.5-0.3l0.5-0.3l0.4-0.4l0.4-0.3l0.4-0.4l0.4-0.4l1.3-1.6l1.4-1.5l1.4-1.5
		l1.4-1.4l0.3-0.3l0.4-0.3l0.3-0.2l0.4-0.2l0.3-0.2l0.3-0.1l0.3-0.1l0.3,0l0.3,0l0.3,0.1l0.3,0.1l0.3,0.2l0.3,0.2l0.3,0.2l0.3,0.3
		l0.3,0.3l0.3,0.3l0.2,0.3l0.2,0.3l0.2,0.3l0.2,0.3l0.2,0.3l0.1,0.3l0.1,0.3l0.1,0.7l0.2,0.7l0.2,0.6l0.1,0.3l0.2,0.3l-0.2,1.8
		l0.7-2.8l0.7-2.7l0.4-1.3l0.4-1.2l0.8-2.4l0.9-2.3l0.4-1.1l0.5-1l0.5-1l0.5-1L289.9,151.9L289.9,151.9z M255.3,204.2l0.3-0.2h-0.1
		l0.5-0.4l0.6-0.5l0.6-0.5l0.5-0.4l0.5-0.4l0.4-0.4l0.4-0.4l0.3-0.3l1.1-1.3l1-1.3l0.2-0.3l0.2-0.3l0.2-0.3l0.2-0.2l0.2-0.2l0.2-0.2
		l0.4-0.3l0.1-0.2l0.1-0.1l0.1-0.1l0.1,0l0.1,0h0.1l0,0l0,0.1l3.3-1.3l0.2-0.2l0.3-0.1l0.3-0.1l0.4-0.1l0.5-0.1l0.5,0l0.6,0l0.7,0.1
		V194l0.2,0.1l0.7,0.2l0.7,0.2l0.2,0l0.3,0.1l0.4,0.1l0.4,0.1l0.4,0.2l0.4,0.2l0.3,0.2l0.2,0.2l0.2,0.2l0.2,0.3l0.5,0.9l0.4,0.9
		l0.3,1l0.3,1l0.2,1l0.2,1.1l0.1,1.1l0.1,1.1h0l0,1.1l-0.1,1.2l0,0.2l0,0.1v0.1l0,0.1l0,0.1l-0.1,0.2l-0.1,0.1l0,0.1l-0.1,0.2
		l-0.1,0.1l0,0h0v0v0l-0.1,0.2l-0.3,0.3h0l0,0l0,0l-0.1,0.1l-0.2,0.2l-0.3,0.3l-0.3,0.3l-0.8,0.5l-0.4,0.2l-0.4,0.2l-0.5,0.1
		l-0.5,0.1l-0.5,0h-0.2h-0.2l-0.3,0l-0.2,0l-0.5-0.1l-0.3-0.1l-0.2-0.1l-0.5-0.2l-0.8-0.4l-0.7-0.3l-0.7-0.2l-0.7-0.2l-0.6-0.1
		l-0.6,0h-0.3l-0.2,0l-0.5,0.1l-0.5,0.2l-0.4,0.2l-0.4,0.3l-0.3,0.4l-0.3,0.4l-0.1,0.2l-0.1,0.3l-0.1,0.3l-0.1,0.3l-0.1,0.7
		l-0.1,0.5l-0.1,0.5l-0.2,0.4l-0.2,0.4l-0.2,0.4l-0.2,0.4l-0.1,0.2l-0.1,0.2l-0.1,0.2l-0.1,0.2l-0.3,0.3l-0.3,0.3L260,216l-0.1,0.2
		l-0.2,0.1l-0.1,0.2l-0.3,0.2L259,217l-0.4,0.2l-0.4,0.2l-0.8,0.4l-0.7,0.3l-0.7,0.2l-0.7,0.2l-0.7,0.1l-0.6,0.1h-0.6l-0.6-0.1
		l-0.6-0.2l-0.5-0.2l-0.5-0.3l-0.5-0.3l-0.5-0.4l-0.5-0.5l-0.5-0.5l-0.4-0.6l-0.1,0.7l-0.1,0.8l-0.1,0.7l-0.1,0.7l-0.1,0.7l-0.1,0.3
		l0,0.4l-0.1,0.3l-0.1,0.3l-0.1,0.7l-0.1,0.3l-0.1,0.3l-0.2,0.6l0,0.1l0,0.1l0,0.2l-0.1,0.3l-0.2,0.6l-0.2,0.5l-0.2,0.6l-0.2,0.5
		l-0.2,0.5l-0.8-2.4l-0.8-2.4l-0.8-2.3l-0.9-2.3l-0.4-1.2l-0.3-1.1l-0.2-1.1l0-1.1l0.1-1.1l0.2-1.1l0.1-0.5l0.2-0.5l0.4-1.1l0.2-0.5
		l0.3-0.5l0.3-0.4l0.4-0.4l0.4-0.4l0.5-0.4l0.5-0.4l0.6-0.3l-0.6,0l-0.5,0l-0.5,0l-0.5,0l-0.5-0.1l-0.4-0.1l-0.4-0.1l-0.4-0.1
		l-0.4-0.2l-0.3-0.2l-0.3-0.2l-0.3-0.2l-0.3-0.3l-0.2-0.3l-0.2-0.3l-0.2-0.3l-0.2-0.4l-0.2-0.4l-0.2-0.4l-0.1-0.4l-0.1-0.5l-0.1-0.5
		l-0.1-0.5l0-0.5l-0.1,0.2l-0.2,0.2l-0.2,0.2l-0.2,0.2l-0.2,0.1l-0.2,0.1l-0.3,0.1l-0.3,0.1l-0.7,0.1l-0.7,0.1l-0.6,0h-0.6l-0.6-0.1
		l-0.6-0.1l-0.6-0.1l-0.5-0.1l-0.5-0.2l-0.5-0.2l-0.5-0.2l-0.5-0.3l-0.5-0.3l-0.5-0.3l-0.4-0.4l-0.4-0.4l-0.5-0.5l-0.4-0.5l-0.4-0.5
		l-0.3-0.5l-0.3-0.5l-0.3-0.5l-0.2-0.5l-0.2-0.5l-0.2-0.6l-0.1-0.6l-0.1-0.6l-0.1-0.6l0-0.7l0-0.7l0-0.7l0.1-0.7l0.1-0.7l0.2-0.7
		l0.2-0.6l0.1-0.3l0.2-0.3l0.3-0.5l0.3-0.5l0.4-0.4l0.4-0.4l0.5-0.4l0.2-0.2l0.3-0.1l0.6-0.2l0.6-0.2l0.7-0.2l0.3-0.1l0.4,0l0.8-0.1
		l0.8,0l0.3,0l0.3,0l0.3-0.1l0.3-0.1l0.6-0.2l0.3-0.2l0.3-0.2l0.2-0.2l0.2-0.2l0.1-0.2l0.1-0.1l0-0.1l0.1-0.1l0.1-0.2l0.2-0.4
		l0.1-0.2l0.1-0.2l0.1-0.2l0.1-0.2V179v0l0,0l0-0.1l0.1-0.2l0.2-1.1l0.2-1.1l0.1-0.6l0.1-0.6l0.1-0.6l0-0.3l0-0.2l0-0.1l-0.1,0.2
		l0,0.1l0,0.1v0.1l-0.1,0.5l-0.2,0.4l-0.2,0.4l-0.2,0.4l-0.2,0.3l-0.2,0.3l-0.2,0.3l-0.3,0.2l-0.3,0.2l-0.3,0.2l-0.3,0.2l-0.3,0.1
		l-0.3,0.1l-0.4,0.1l-0.2,0l-0.2,0l-0.4,0l-0.4,0l-0.4,0l-0.3,0h-0.4l-0.3,0h-0.3l-0.3,0l-0.7-0.1l-0.6-0.1l-0.6-0.1l-0.6-0.1
		l-0.6-0.1l-0.5-0.1l-0.5-0.1l-0.5-0.1l-0.5-0.2l-0.5-0.2l-0.5-0.2l-0.4-0.2l-0.4-0.2l-0.4-0.2l-0.4-0.2l-0.3-0.2l-0.2,0.1l-0.1,0.2
		l-0.2,0.1l-0.1,0.2l-0.3,0.2l-0.3,0.3l-0.3,0.2l-0.3,0.2L221,178l-0.3,0.2l-0.4,0.2l-0.4,0.2l-0.4,0.1l-0.4,0.1l-0.2,0l-0.1,0
		l-0.1,0l-0.4,0.1l-0.2,0l-0.2,0l-0.2,0l-0.2,0l0-0.7l0-0.6l0-0.6v-0.6l0-0.6l0-0.5l-0.1-0.5l-0.1-0.5l-0.1-0.5l-0.1-0.4l-0.2-0.4
		l-0.2-0.4l-0.2-0.4l-0.2-0.3l-0.2-0.3l-0.2-0.3l-0.5,0.4l-0.4,0.4l-0.4,0.1l-0.4,0.1l-0.4,0l-0.4,0l-0.4,0h-0.3l-0.6-0.1l-0.5-0.2
		l-0.2-0.1l-0.2-0.1l-0.2-0.2l-0.2-0.2l-0.2-0.2l-0.1-0.2l-0.2-0.2l-0.1-0.2l-0.1-0.3l-0.1-0.3l-0.1-0.6l0-0.3l0-0.3v-0.4l0-0.4
		l0.1-0.8l0.1-0.5l0.1-0.4l0.1-0.5l0.2-0.5l-0.6-1.3l-0.6-1.3l-0.5-1.3l-0.5-1.3l-0.9-2.6l-0.4-1.3l-0.4-1.2l-1.5,3.1l-1.5,3.2
		l-1.6,3.7l-0.8,1.9l-0.8,2l-1,2.5l-1,2.5l-1,2.5l-1.1,2.6l-0.6,1.2l-0.5,1.3l-0.5,1.3l-0.5,1.3l-0.5,1.3l-0.4,1.4l-0.4,1.4
		l-0.4,1.4l-0.5,1.7l-0.4,1.7l-0.8,3.5l-0.4,1.7l-0.3,1.8l-0.3,1.8l-0.2,1.8l-0.1,0.5l-0.2,1.3l-0.2,1.4l-0.2,1.4l-0.1,1.4l-0.2,2.9
		l-0.1,1.4l0,1.5l-0.6,18.2l-0.1,3.7l0,3.7l0,3.7v3.8l0,3.9l0.1,3.9l0.2,3.9l0.1,1.4l0.2,1.4l0.2,1.4l0.2,1.4l0.2,1.3l0.3,1.4
		l0.4,1.3l0.4,1.3l0.3,0.8l0.3,0.9l0.7,1.7l0.3,0.8l0.4,0.8l0.8,1.6l0.4,0.8l0.4,0.8l0.9,1.6l0.5,0.8l0.5,0.8l0.5,0.7l0.6,0.8
		l0.7,0.9l0.4,0.5l0.4,0.5l0.9,0.9l0.4,0.5l0.5,0.5l0.9,0.9l0.5,0.4l0.5,0.5l1,0.9l1.1,0.9l1.3,1l1.4,0.9l1.4,0.9l1.4,0.8l1.4,0.8
		l1.4,0.7l1.4,0.6l1.4,0.6l1.6,0.5l1.7,0.5l1.7,0.5l1.7,0.4l1.8,0.4l1.8,0.4l1.8,0.3l1.9,0.3l1.6,0.2l1.6,0.2l1.6,0.1l1.6,0.1h1.6
		l1.6,0l1.6-0.1l1.6-0.1l-0.5-0.4l-0.4-0.5l-0.4-0.5l-0.3-0.5l-0.2-0.5l-0.1-0.3l-0.1-0.3l-0.1-0.6l0-0.3l0-0.3l1.7,0.2l1.7,0.2
		l1.7,0.1l1.8,0.1l1.8,0l1.9-0.1l1.9-0.2l1.9-0.2l1.4-0.2l1.4-0.2l1.4-0.3l1.4-0.3l0.2-0.1l0.2,0l0.3-0.1l0.7-0.2l0.2-0.1l0.2,0
		l0.3-0.1l0.7-0.2l0.6-0.2l0.2-0.1l0.2,0l0.3-0.1l1.3-0.4l1.3-0.5l1.3-0.5l1.3-0.5l1.3-0.5l1.3-0.5l1.3-0.5l1.2-0.6l1.2-0.6l2.7-1.2
		l2.8-1.1l2.8-1l2.9-0.9l1.6-0.4l1.6-0.3l1.6-0.2l1.6-0.1l1.6,0l1.6,0.1l1.6,0.2l1.6,0.2l-0.1-0.6l-0.1-0.3l0-0.3l-0.1-0.3l-0.1-0.3
		L299,284l-0.2-0.6l-0.1-0.3l-0.1-0.3l-0.1-0.3l-0.1-0.3l-0.3-0.6l0.4-0.3l0.5-0.3l0.5-0.3l0.5-0.2l0.5-0.2l0.5-0.2l0.6-0.2l0.6-0.1
		l0.6-0.1l0.6-0.1l0.6-0.1l0.7,0l0.7,0l0.7,0l0.7,0l0.8,0.1l1.8,0.2l1.8,0.2l1.8,0.2l1.8,0.3l3.5,0.5l3.5,0.6l0.8,0.2l0.8,0.2
		l0.8,0.2l0.8,0.2l0.8,0.2l0.8,0.2l1.6,0.5l1.5,0.5l1.5,0.6l1.5,0.7l0.7,0.3l0.7,0.4l-0.6-0.8l-0.7-0.7l-0.4-0.4l-0.3-0.3l-0.7-0.6
		l-0.8-0.6l-0.4-0.3l-0.4-0.2l-0.8-0.5l-0.4-0.2l-0.4-0.2l0.3-0.1l0.3,0l0.6-0.1l0.5-0.1l0.5-0.1l1.7-0.5l1.7-0.5l1.7-0.5l1.8-0.4
		l1.8-0.4l1.8-0.3l1.8-0.3l1.9-0.2l1.9-0.3l1.9-0.2l3.9-0.3l2-0.1l2-0.1l4-0.1l1.9,0l1.9,0.1l1.9,0.1l1.9,0.2l1.9,0.2l1.9,0.2
		l0.9,0.1l0.9,0.2l1.9,0.3l1.8,0.3l1.9,0.3l1.9,0.3l1.9,0.3l1.9,0.2l2,0.2l2,0.2l2,0.1l1.4,0l1.4,0.1l1.4,0l1.4,0l1.4,0l0.2,0h0.2
		h0.3h0.7l1.3-0.1l1.3,0l0.6-0.1l0.6-0.1l1.1-0.2l1.1-0.3l0.5-0.2l0.5-0.2l0.2-0.1l0.3-0.1l0.5-0.2l1-0.4l0.5-0.2l0.1-0.1l0.1,0
		l0.1,0l0.3-0.1l1-0.5l0.6-0.4l0.6-0.4l0.6-0.4l0.1-0.1l0.2-0.1l0.3-0.2l0.5-0.5l0.3-0.2l0.1-0.1l0.2-0.1l0.5-0.5l0.5-0.5l0.5-0.5
		l0.5-0.5l0.5-0.5l0.5-0.5l0.4-0.5l0.4-0.5l0.4-0.6l0.4-0.6l0.4-0.7l0.4-0.6l0.7-1.3l0.3-0.6l0.3-0.6l0.3-0.6l0.3-0.6l0.2-0.6
		l0.2-0.6l0.4-1.1l0.3-1.1l0.1-0.5l0.1-0.5l-1,0.6l-0.9,0.6l-0.8,0.6l-0.8,0.7l-2,1.5l-2,1.5l-0.5,0.4l-0.5,0.4l-1,0.8l-1.1,0.7
		l-1,0.8l-2.2,1.4l-2.2,1.4l-0.6,0.3l-0.6,0.3l-0.6,0.3l-0.6,0.3l-0.7,0.3l-0.6,0.2l-0.7,0.2l-0.6,0.2l-0.7,0.2l-0.7,0.2l-0.2,0
		l-0.2,0l-0.3,0.1l-0.7,0.1l-0.7,0.1l-0.7,0.1l-1.4,0.1h-1.5l-1.5,0l-1.4-0.1l-1.4-0.1l-1.4-0.1l-1.3-0.1l-1.3-0.2l-1.3-0.2
		l-0.6-0.2l-0.6-0.2l-1.2-0.4l-0.6-0.3l-0.5-0.3l-0.5-0.3l-0.5-0.3l-0.5-0.4l-0.5-0.4l-0.9-0.8l-0.4-0.5l-0.4-0.5l-0.4-0.5l-0.4-0.5
		l-0.1-0.3l-0.2-0.2l-1.9,0.3h-0.1l-0.1,0l-0.2,0l-0.5,0.1l-0.9,0.1l-0.9,0.1l-0.9,0.1l-0.9,0.1l-0.9,0.1l-0.5,0l-0.5,0l-0.9,0.1
		l-0.5,0l-0.5,0l-0.9,0.1l-1,0l-1,0l-1.9,0l-1.6,0l-1.6,0l-1.6-0.1l-1.6-0.1l-1.6-0.1l-1.5-0.2l-1.5-0.2l-1.5-0.2l-1.2,0l-1.2-0.1
		l-1.2-0.2l-1.2-0.2l-1.2-0.3l-1.1-0.3l-1.1-0.4l-1.1-0.4l-1.2-0.5l-0.2-0.1l-1.6-0.5l-1.6-0.5l-1.6-0.6l-1.6-0.6l-1.6-0.7l-1.6-0.7
		l-1.5-0.7l-1.5-0.7l-1.5-0.8l-1.5-0.8l-1.5-0.9l-1.5-0.9l-1.5-0.9l-1.4-1l-1.4-1l-1.4-1l-1.2-0.9l-1.2-0.9l-2.3-1.9l-1.1-1l-1.1-1
		l-1.1-1.1l-1.1-1.1l-0.7-0.7l-1.7-1.8l-0.8-0.9l-0.8-0.9l-1.6-1.8l-0.8-0.9l-0.7-0.9l-1.1-1.4l-1-1.4l-1-1.4l-0.9-1.4l-0.9-1.4
		l-0.9-1.4l-0.8-1.4l-0.8-1.4l-0.8-1.5l-0.7-1.5l-0.7-1.5l-0.6-1.5l-0.6-1.5l-0.6-1.5l-0.5-1.6l-0.5-1.6l-0.4-1.2l-0.5-0.3l-0.4-0.3
		l-0.4-0.3l-0.4-0.4l-0.4-0.4l-0.3-0.4l-0.3-0.4l-0.3-0.5l-0.3-0.5l-0.3-0.5l-0.3-0.5l-0.2-0.5l-0.2-0.6l-0.2-0.6l-0.2-0.6l-0.1-0.6
		l-0.1-0.6h0l-0.2-1.3l-0.2-1.2l-0.2-1.2l-0.1-1.2l-0.1-1.3l-0.1-1.3l-0.1-1.3l0-1.3l0-0.4l-0.1-0.4l-0.1-0.4l-0.1-0.3l-0.2-0.3
		l-0.2-0.3l-0.2-0.3l-0.3-0.2l-0.3-0.3l-0.4-0.2l-0.4-0.2l-0.4-0.2l-0.5-0.2l-0.5-0.1l-0.5-0.1l-0.5-0.1l0.1-0.1l0.1-0.1l0.2-0.2
		l0.1-0.1l0.1-0.1l0.2-0.2l0.1-0.2l0.1-0.1l0.2-0.3l0.1-0.3l0.1-0.2l0.1-0.1l0-0.2l0.1-0.2l0-0.2l0.1-0.2l0.1-0.3l0-0.2l0.1-0.2
		l0-0.4l0-0.2l0-0.2l0-0.4l0.1-0.4l0-0.6v-0.5l0-0.5l0-0.5l-0.1-0.5l-0.1-0.4l-0.1-0.4l-0.2-0.3l-0.2-0.3l-0.2-0.3l-0.2-0.3
		l-0.2-0.2l-0.3-0.2l-0.3-0.2l-0.3-0.1l-0.3-0.1l-0.4-0.1l-0.4,0l-0.4,0l-0.4,0l-0.5,0l-0.5,0.1l-0.5,0.1l-0.5,0.1v0.1l0.5,0.3
		l0.5,0.3l0.5,0.3l0.4,0.4l0.4,0.4l0.3,0.4l0.2,0.4l0.2,0.4l0.1,0.4l0.1,0.5l0,0.5l0,0.5l-0.1,0.5l-0.1,0.5l-0.2,0.5l-0.2,0.6
		l-0.4,0.7l-0.4,0.8l-0.5,0.7l-0.5,0.7l-0.6,0.6l-0.2,0.2l-0.1,0.1l0,0l0,0v0l-0.3,0.3h-0.2l-0.3,0.2l-0.1,0l0,0l0,0l-0.1,0.1
		l-0.5,0.4l-0.5,0.3l-0.5,0.3l-0.6,0.3l-0.6,0.2l-0.6,0.2l-0.6,0.2l-0.6,0.1l-0.6,0.2l-0.6,0.2l-0.5,0.3l-0.5,0.3l-0.5,0.3l-0.5,0.4
		l-0.4,0.4l-0.8,0.9l-0.7,0.9l-0.7,0.9l-0.7,0.9l-0.2,0.3l-0.2,0.3l-0.6,0.5l-0.6,0.5l-0.7,0.5l-0.7,0.6l-0.5,0.3l-0.5,0.3h-0.2
		l-0.1,0l-0.2,0l-0.6,0l-0.6,0l-0.7,0l-0.3,0l-0.3,0l-0.6-0.1l-0.5-0.2l-0.3-0.2L249,202l-0.3-0.2l-0.2-0.2l-0.2-0.2l-0.2-0.2
		l-0.2-0.3l-0.1-0.3l-0.2-0.3l-0.1-0.3l-0.1-0.3l-0.1-0.3l-0.1-0.4l0-0.4l0-0.4l0-0.4V197l0-0.6l0-0.3l0-0.3l-0.1-0.5l-0.1-0.5
		l-0.1-0.5l-0.1-0.4l-0.2-0.4l-0.2-0.4l-0.1-0.2l-0.1-0.1l-0.1-0.2l-0.1-0.1l-0.2-0.2l-0.2-0.1l-0.1-0.1l-0.3-0.1l-0.3-0.1l-0.3,0
		l-0.1,1.5l0,0.7v0.7l0,0.7l0,0.7l0,0.7l0.1,0.7l0,0.6l0.1,0.6l0.2,1.2l0.2,1.1l0.3,1.1l0.2,0.6l0.2,0.5l0.1,0.2l0.2,0.2l0.3,0.4
		h0.2l0.1,0.1l0.3,0.2l0.1,0.1l0.5,0.3l0.2,0.1l0.3,0.1l0.5,0.1l0.2,0l0.2,0l0.2,0l0.2,0h0.3l0.2,0h0.2l0.1,0v0h0h0h0.1l0.3-0.1
		l2.2,0.3L255.3,204.2L255.3,204.2z M242.8,178.8l0.7,1.2l0.6,1.2l0.6,1.2l0.5,1.2l0.4,1.2l0.4,1.2l0.3,1.2l0.3,1.3v0.4v0.4l0,0.3
		l0,0.1l0,0.2l-0.1,0.2l-0.1,0.2l-0.1,0.1l0,0h0v0v0l-0.2,0.1l-0.5,0.1l-0.4,0.1l-0.2,0l-0.2,0l-0.2,0h-0.1l-0.2-0.1l-0.2-0.1
		l-0.1-0.1l0-0.1l0-0.1v-0.1l-0.1-1.5l-0.1-1.4l-0.3-2.9l-0.2-1.4l-0.2-1.4L242.8,178.8L242.8,178.8z M294.3,253.9l-0.7-0.5
		l-0.7-0.5l-1-0.6l-1-0.5l-1-0.5l-1-0.4l-1-0.4l-1-0.4l-1-0.4l-1-0.3l-0.4-0.1l-0.4-0.1l-0.4-0.1l-0.3,0l-0.4,0l-0.3,0l-0.3,0
		l-0.3,0.1l-0.3,0.1l-0.3,0.1l-0.3,0.1l-0.2,0.1l-0.2,0.1l-0.2,0.2l-0.2,0.2l-0.2,0.2l-0.4-1.5l-0.2-0.7l-0.2-0.7l-0.5-1.3l-0.3-0.7
		l-0.3-0.6l-0.3-0.6l-0.3-0.6l-0.4-0.6l-0.3-0.6l-0.4-0.6l-0.4-0.5l-0.8-1.1l-0.5-0.6l-0.5-0.5l-0.5-0.5l-0.5-0.4l-0.5,0.9l-0.4,1
		l-0.3,1l-0.3,1.1l-0.2,1.1l-0.2,1.2l-0.1,0.6l0,0.6l0,1.3l-0.5-0.3l-0.5-0.3l-0.9-0.7l-0.9-0.8l-0.8-0.9l-0.4-0.5l-0.4-0.5l-0.7-1
		l-0.7-1.1l-0.6-1.2l-0.1-0.2l-0.1-0.2l-0.2-0.2l-0.2-0.2l-0.2,0h-0.1l-0.1,0.1l-0.2,0.2l-0.1,0.1l-0.1,0.2l-0.2,0.4l-0.3,0.5
		l-0.3,0.5l-0.2,0.4l-0.2,0.4l-0.5-1.3l-0.2-0.6l-0.2-0.6l-0.2-0.7l-0.2-0.6l-0.3-1.3l-0.3-1.4l-0.2-1.4l-0.1-1.4l-0.1-1.4l0-0.5
		l0-0.5l0-0.5l0-0.4l-0.1-0.4l-0.1-0.4l-0.1-0.4l-0.1-0.3l-0.1-0.3l-0.1-0.3l-0.1-0.3l-0.1-0.2l-0.1-0.2l-0.1-0.2l-0.2-0.2l-0.1-0.1
		l-0.2-0.1l-0.2-0.1l-0.2-0.1l-0.2,0l-0.2,0l-0.2,0l-0.2,0l-0.2,0.1l-0.2,0.1l-0.2,0.1l-0.3,0.1l-0.2,0.2l-0.3,0.2l-0.3,0.2
		l-0.6,0.5l-0.5,0.4l-0.4,0.4l-0.4,0.4l-0.3,0.5l-0.4,0.5l-0.3,0.5l-0.3,0.5l-0.2,0.6L252,231l-0.2,0.6l-0.2,0.6l-0.1,0.7l-0.1,0.6
		l-0.1,0.7l-0.1,0.7v0.7l0,0.5l0,0.5l0,0.4l0.1,0.4l0.1,0.3l0.1,0.3l0.1,0.3l0.1,0.2l0.1,0.2l0.1,0.2l0.2,0.1l0.2,0.1l0.2,0l0.2,0
		l0.2,0l0.2-0.1l0.4-0.1l0.4-0.1l0.4-0.1l0.4,0l0.3,0l0.3,0.1l0.3,0.1l0.3,0.2l0.3,0.2l0.3,0.2l0.2,0.2l0.2,0.3l0.2,0.3l0.2,0.4
		l0.1,0.2l0.1,0.2l0.2,0.5l0.2,0.6l0.2,0.6l0.5,1.2l0.5,1.1l0.3,0.5l0.3,0.6l0.3,0.5l0.3,0.5l0.3,0.5l0.4,0.5l0.8,1l0.4,0.5l0.5,0.5
		l0.8,0.7l0.8,0.7l0.8,0.6l0.9,0.6l0.9,0.5l0.5,0.2l0.5,0.2l0.2-0.5l0.2-0.4l0.1-0.3l0.2-0.3l0.2-0.2l0.2-0.2l0.2-0.2l0.2-0.1
		l0.2-0.1l0.2,0l0.2,0l0.2,0.1l0.2,0.1l0.3,0.2l0.3,0.2l0.3,0.2l0.3,0.3l0.3,0.3l0.5,0.6l0.3,0.4l0.3,0.4l0.4,0.6l0.5,0.6l0.5,0.6
		l0.5,0.6l0.5,0.6l0.6,0.5l0.6,0.5l0.6,0.5l0.6,0.5l0.7,0.5l0.7,0.5l0.7,0.5l0.7,0.4l0.8,0.4l0.8,0.4l0.8,0.4l0.8,0.3l0.8,0.3
		l0.9,0.3l0.9,0.2l-0.1-0.4l-0.1-0.4l-0.1-0.7l-0.1-0.6l0-0.5l0-0.4l0-0.2l0.1-0.2l0-0.2l0.1-0.1l0.1-0.1l0.1-0.1l0.2-0.1l0.1,0
		l0.2,0l0.1,0l0.2,0.1l0.2,0.1l0.2,0.1l0.2,0.1l0.2,0.1l0.5,0.3l0.5,0.4l0.3,0.2l0.3,0.3l0.7,0.6l0.7,0.6l0.7,0.6l0.8,0.6l1.5,1.1
		l1.6,1.1l0.8,0.5l0.8,0.5l0.8,0.5l0.9,0.5l1.8,0.9l0.9,0.4l0.9,0.4l0.8,0.3l0.8,0.3l0.8,0.3l0.8,0.3l1.7,0.5l1.7,0.4l0.9,0.2
		l0.9,0.1l0.9,0.1l0.9,0.1l1.8,0.1l0.9,0h1l0.6,0l0.3,0l0.3,0l0.6-0.1l0.2,0l0.1,0h0.1l0.3,0l0.6-0.1l0.6-0.2l0.6-0.2l0.6-0.2
		l0.6-0.2l0.6-0.2l0.3-0.2l0.1-0.1l0.2-0.1l0.6-0.3l0.5-0.3l0.5-0.3l0.2-0.2l0.3-0.2l0.5-0.4l0.6-0.6l0.7-0.6l0.7-0.7l0.7-0.7
		l-2.5-1.6l-2.5-1.5l-1.3-0.8l-1.3-0.7l-1.3-0.7l-1.3-0.7l-0.7-0.4l-0.6-0.4l-0.6-0.4l-0.5-0.3l-0.5-0.4l-0.4-0.3l-0.4-0.3l-0.3-0.3
		l0,0.4l0,0.4l0,0.4l-0.1,0.4l-0.1,0.4l-0.1,0.5l-0.2,0.5l-0.2,0.5l-0.2,0.3l0,0l0,0l0,0.1l-0.1,0.1l-0.1,0.1l-0.1,0l0,0.1l-0.2,0.2
		l-0.2,0.1l-0.1,0l-0.1,0h-0.2l-0.1,0h-0.1l-0.3-0.1l-0.1-0.1l-0.1-0.1l-0.3-0.2l-0.1-0.1l-0.1-0.1l-0.3-0.3l-0.2-0.2l-0.1-0.2
		l-0.3-0.4l-0.2-0.2l-0.1-0.1l0-0.1l0,0l-0.3-0.3l-0.2-0.3l-0.3-0.3l-0.2-0.3l-0.3-0.3l-0.3-0.2l-0.6-0.4l-0.6-0.4l-0.6-0.3
		l-0.7-0.3l-0.7-0.2l-0.6-0.2l-0.5-0.2l-0.5-0.2l-0.5-0.3v0l0,0.1l0,0.1l0.1,0.2l0,0.2l0.1,0.2l0,0.2l0,0.2v0.1v0.1l0,0.1l0,0.1l0,0
		v0.1l0,0.1l0,0.1l-0.1,0l-0.1,0h-0.1l0,0l-0.1,0l-0.1,0l-0.1,0l-0.1,0l0,0h0l-0.1,0l-0.2-0.1l-0.2-0.1l-0.2-0.1l-0.1,0l0,0l-0.1,0
		l-0.2-0.2l-0.1-0.1l-0.1,0l0,0l-0.2-0.2l-0.2-0.2l-0.3-0.2l-0.2-0.2l-0.3-0.2l-0.3-0.2l-1.1-0.8l-1-0.7l-1-0.7l-1-0.6l-1-0.6
		l-0.9-0.5l0,0.3v0.1l0,0.1l0,0.2l0,0.3l0,0.1l0,0.1l0,0.3l0,0.3v0.1v0v0l0,0L294.3,253.9L294.3,253.9L294.3,253.9z M304,253
		l1.3,0.4l-0.2-0.4l-0.5-0.8l-0.5-0.8l-1-1.5l-1-1.4l-0.5-0.7l-0.5-0.6l-0.7-0.8l-0.7-0.7l-0.7-0.7l-0.7-0.6l-0.8-0.5l-0.4-0.3
		l-0.4-0.2l-0.8-0.4l-0.8-0.4L294,242l-1.1-0.6l-1.1-0.7l-1.1-0.7l-1.1-0.7l-1.1-0.8l-1-0.8l-1-0.9l-1.2-1.1l-1.1-1.1l-1.1-1.1
		l-0.5-0.6l-0.5-0.5l-0.5-0.6l-0.5-0.6l-0.9-1.1l-0.8-1.2l-0.4-0.6l-0.3-0.6l0.4,0.5l0.4,0.5l0.4,0.5l0.4,0.5l0.9,0.8l0.4,0.4
		l0.5,0.4l0.5,0.3l0.5,0.3l0.5,0.3l0.5,0.3l1,0.5l0.5,0.2l0.6,0.2l0.7,0.2l0.4,0.1l0.4,0h0.4l0.5,0l0.5,0l0.5,0l-0.9-0.8l-0.4-0.4
		l-0.4-0.4l-0.4-0.5l-0.3-0.4l-0.3-0.5l-0.3-0.4l-0.5-0.9l-0.5-0.9l-0.4-1l-0.2-0.5l-0.1-0.5l-0.1-0.2l-0.1-0.2l-0.1-0.2l-0.1-0.2
		l-0.2-0.3l-0.2-0.2l-0.2-0.2l-0.1-0.1l-0.1-0.1l-0.2-0.1l-0.2,0h-0.2l-0.2,0.1l-0.1,0l-0.1,0.1l-0.1,0.1l-0.1,0.1l-0.3,0.2
		l-0.3,0.3l-0.2,0.2l-0.1,0.2l-0.2,0.2l-0.1,0.2l-0.1-0.9l-0.1-0.9l-0.1-1l0-1l0-1v-1v-1l0-1l0-0.7l0-0.6l0-0.6l-0.1-0.6l-0.1-0.6
		l-0.1-0.5l-0.2-0.5l-0.2-0.4l-0.2,0.3l-0.3,0.3l-0.3,0.3l-0.3,0.3l-0.4,0.3l-0.5,0.3l-0.5,0.3l-0.2,0.1l-0.1,0.1l-0.3,0.2l-0.3,0.1
		l-0.2,0l-0.1,0l-0.1,0h-0.1l-0.1,0l-0.2,0h-0.1l-0.1,0l-0.2,0l-0.4,0l-0.4,0l-0.1,0h-0.1H275l-0.4,0l0.2,0.5l0,0.1l0.1,0.1l0.1,0.2
		l0.2,0.4l0,0.1l0,0l0,0.1l0.1,0.2l0.2,0.2l0.2,0.2l0.2,0.2l0.1,0.1l0,0l0.1,0l-0.5,0.1l-0.5,0.1l-0.5,0l-0.5,0l-0.5,0l-0.5-0.1
		l-0.5-0.1l-0.4-0.1l-0.4-0.2l-0.4-0.2l-0.4-0.2l-0.4-0.2l-0.4-0.3l-0.4-0.3l-0.4-0.3l-0.3-0.4l-0.2-0.2l-0.2-0.2l-0.5-0.4l-0.3-0.2
		l-0.3-0.2l-0.4-0.2l-0.4-0.2l-0.7,1.2l-0.6,1.2l-0.5,1.2l-0.4,1.3l-0.3,1.3l-0.2,1.3l-0.2,1.4l-0.1,1.4l0,0.7v0.7l0,0.7l0.1,0.6
		l0.1,0.6l0.1,0.6l0.1,0.6l0.2,0.6l0.2,0.5l0.2,0.5l0.2,0.5l0.3,0.5l0.3,0.4l0.3,0.4l0.3,0.4l0.4,0.4l0.3-0.5l0.4-0.5l0.4-0.5
		l0.5-0.5l0.5-0.5l0.6-0.5l0.7-0.5l0.8-0.4l0.6-0.3l0.7-0.3l0.7-0.2l0.7-0.1l-0.1,0.5l0,0.5l0,0.5l0,0.5l0,0.5l0.1,0.5l0.1,0.5
		l0.1,0.5l0.1,0.4l0.2,0.4l0.2,0.4l0.2,0.4l0.2,0.4l0.3,0.4l0.3,0.4l0.3,0.4l0.9,0.9l0.9,0.9l0.9,0.9l0.9,0.9l0.9,0.8l0.9,0.8
		l0.9,0.7l0.9,0.7l0.1-0.5l0.1-0.5l0.1-0.4l0.1-0.4l0-0.4l0-0.3l0-0.3l0-0.2l0.6,0.7l0.6,0.7l0.6,0.8l0.7,0.8l0.7,0.8l0.7,0.9
		l0.7,0.9l0.7,1l0.4,0.4l0.4,0.4l0.2,0.2l0.2,0.2l0.4,0.3l0.2,0.1l0.1,0l0,0l0.1,0l0.3,0.2l0.3,0.1l0.2,0h0.1h0l0.1,0l0.3-0.1l0.1,0
		l0.1,0l0.2,0l0.1-0.1l0.1-0.1l0.3-0.2l0.1-0.2l0.1-0.1l0.2-0.3l0-0.1l0-0.1l0,0l0.1-0.2l0.1-0.2l0.1-0.2l0.7,0.7l0.7,0.7l0.8,0.7
		l0.4,0.3l0.4,0.3l0.9,0.6l0.9,0.6l1,0.6l0.5,0.3l0.5,0.3l1.1,0.5l1.1,0.5l1.1,0.4L304,253z"/>
	<polygon fill-rule="evenodd" clip-rule="evenodd" fill="#12100D" points="282.1,72.9 282.2,71.8 282.2,71.2 282.2,70.9 282.2,70.7 
		282.2,70.6 282.2,69.4 282.2,68.1 282.2,66.9 282.1,65.6 282,64.3 282,63.6 281.9,62.9 281.8,61.6 281.7,60.2 281.5,58.8 
		281.3,57.3 281.2,56.6 281.1,55.9 281,55.1 280.8,54.4 280.6,52.9 280.4,52.1 280.3,51.4 280,49.8 277.1,52 274.2,54.3 271.3,56.7 
		268.5,59.3 265.7,61.9 262.9,64.7 260.2,67.6 257.5,70.6 256.2,72.2 254.8,73.7 252.2,77 249.6,80.3 247,83.8 244.5,87.4 242,91.1 
		239.6,94.9 237.1,98.8 238.4,98.5 239.8,98.1 241.1,97.8 242.5,97.6 243.9,97.3 245.4,97.1 246.8,97 248.3,96.8 249.8,96.7 
		251.3,96.6 252.9,96.6 254.5,96.6 256,96.6 257.7,96.6 259.3,96.7 261,96.9 261.2,96.8 261.4,96.9 262.5,94.9 263.6,93.1 
		264.7,91.3 265.9,89.6 267.1,87.9 268.4,86.3 269.6,84.7 270.9,83.2 272.2,81.7 273.5,80.3 274.9,78.9 276.3,77.6 277.6,76.3 
		279.1,75.1 280.5,74 	"/>
	<polygon fill-rule="evenodd" clip-rule="evenodd" fill="#12100D" points="470.1,74.6 469.8,73.8 469.5,73.1 469,71.6 469.5,73.1 
		469.8,73.8 470.1,74.6 470.7,76.9 471.2,79.3 471.5,80.5 471.7,81.7 472.1,84.1 472.3,86.6 472.5,89.1 472.6,90.4 472.6,91.6 
		472.6,94.2 472.6,95.5 472.5,96.8 472.4,99.5 472.3,100.8 472.1,102.2 472,103.5 471.8,104.9 471.6,106.3 471.4,107.6 471.1,109 
		470.9,110.4 470.3,113.2 469.9,114.7 469.6,116.1 468.8,119 468.4,120.5 468,121.9 467,124.9 466,127.9 464.8,130.9 463.6,134 
		463,135.5 462.3,137.1 461,140.3 460.2,141.8 459.5,143.4 457.9,146.6 457.1,148.2 456.3,149.9 455.4,151.5 454.5,153.2 
		453.6,154.8 452.7,156.5 451.7,158.1 450.8,159.8 448.8,163.2 447.8,164.9 446.7,166.6 446.5,168.2 446.4,168.9 446.4,169.1 
		446.3,169.3 446.3,169.7 446.2,170 446.2,170.2 446.2,170.4 446.1,171.1 445.8,172.4 445.5,173.7 445.3,174.3 445.2,174.9 
		445,175.4 444.8,176 444.6,176.5 444.5,177.1 444,178 443.8,178.5 443.6,179 443.1,179.8 442.9,180.2 442.7,180.6 442.1,181.2 
		441.6,181.9 441,182.5 440.7,182.7 440.6,182.8 440.5,182.9 440.5,183 440.5,184.4 440.6,185.8 440.7,188.7 440.7,189.3 
		440.7,189.9 440.6,191 440.5,193.3 440.5,193.6 440.9,195.6 441.1,197.5 441.2,198.4 441.3,198.7 441.3,198.9 441.4,199.4 
		441.6,201.3 441.8,203.2 441.8,204.2 441.9,205.1 441.9,206.1 442,207 442.1,208.9 442.7,208.2 443.2,207.4 443.5,207 443.8,206.7 
		444.3,205.8 444.9,205 445.4,204.1 445.5,203.9 445.6,203.6 445.9,203.2 446.4,202.2 446.7,201.7 446.9,201.2 447.4,200.2 
		447.8,199.1 448.1,198.6 448.3,198.1 448.8,196.9 448.8,196.6 449,196.3 449.2,195.8 449.6,194.6 450,193.3 449.5,195.1 
		449.4,195.5 449.3,195.9 449.1,196.8 448.6,198.4 448.1,200 447.6,201.5 447.1,203 446.6,204.5 446.1,205.9 445.6,207.2 
		445.1,208.4 444.6,209.7 444.1,210.8 443.6,211.9 443.3,212.5 443,213 442.5,214 442.3,214.5 442,214.9 441.9,216.5 441.8,218.2 
		441.6,219.7 441.5,221.4 442.6,220.1 443.7,218.8 444.2,218.2 444.8,217.5 445.3,216.9 445.9,216.2 446.9,214.9 448,213.5 
		449,212.1 449.5,211.3 450,210.6 451,209.2 452,207.7 453,206.2 454,204.6 454.4,203.8 454.7,203.4 454.9,203.1 455.8,201.5 
		456.8,199.8 457.2,199 457.5,198.6 457.7,198.2 458.6,196.5 459.5,194.8 460.3,193.1 461.2,191.3 462,189.5 462.9,187.7 
		463.1,187.2 463.3,186.7 463.7,185.8 464.5,184 464.9,183 465.3,182.1 465.7,181.1 466.1,180.1 466.8,178.2 467.6,176.2 
		468.3,174.2 468.7,173.2 469,172.2 469.4,171.1 469.7,170.1 470.5,168 470.9,166.6 471.1,165.8 471.4,165 471.9,163.3 472.3,161.6 
		472.8,159.9 473.2,158.2 473.7,156.5 474.6,153.1 475,151.4 475.4,149.7 476.2,146.2 476.2,145.7 476.3,145.3 476.5,144.4 
		476.9,142.7 477.6,139.2 477.8,138.3 477.9,137.8 478,137.4 478.3,135.6 479,132 479.6,128.4 479.6,127.9 479.7,127.4 479.9,126.5 
		480.2,124.7 480.4,122.8 480.5,122.4 480.6,121.9 480.7,121 481.2,117.3 481.5,115.4 481.7,113.6 482.2,109.8 482.4,107.8 
		482.5,105.8 482.7,103.8 482.8,101.8 482.9,99.8 482.9,97.9 482.9,95.9 482.8,94 482.7,92 482.6,90 482.4,88.1 482.3,86.1 
		482,84.2 481.7,82.3 481.4,80.3 481.1,78.4 480.7,76.5 480.2,74.6 479.8,72.7 479.3,70.8 478.7,68.9 478.1,67 477.5,65.1 
		476.8,63.2 476.1,61.3 475.4,59.4 474.6,57.6 473.8,55.7 472.9,53.9 472.1,52 471.1,50.1 470.2,48.3 469.1,46.6 467.9,45 
		466.8,43.4 465.6,41.9 464.5,40.3 463.3,38.8 462,37.4 460.8,36 459.5,34.6 458.2,33.3 456.8,32 455.5,30.7 454.1,29.5 452.7,28.3 
		451.3,27.2 449.9,26.1 448.4,25 446.9,23.9 445.4,22.9 443.8,22 442.3,21 440.7,20.2 439,19.3 437.4,18.5 435.8,17.7 434.1,17 
		432.4,16.3 430.6,15.6 428.9,15 427.1,14.4 425.3,13.8 423.5,13.3 422.9,13 421,12.4 419.1,11.9 417.2,11.4 415.3,10.9 413.3,10.5 
		411.3,10.1 409.3,9.8 407.3,9.5 405.2,9.2 403.1,9 401,8.8 398.8,8.7 396.6,8.5 394.4,8.5 392.2,8.4 389.9,8.4 387.6,8.4 
		385.3,8.5 382.9,8.6 380.6,8.7 378.1,8.9 375.7,9.1 373.3,9.4 370.8,9.7 368.2,10 365.7,10.4 363.1,10.8 360.5,11.2 357.9,11.7 
		355.2,12.2 352.6,12.7 349.9,13.3 345.5,14.4 341.2,15.6 337,16.9 332.7,18.4 330.6,19.1 328.5,19.9 324.3,21.6 320.2,23.4 
		318.1,24.3 316.1,25.3 312,27.4 309.9,28.4 307.9,29.5 305.8,30.6 303.8,31.8 299.8,34.2 295.8,36.7 291.9,39.4 289.9,40.7 
		287.9,42.1 284,45 285.7,47.1 286.5,48.1 287.2,49.2 288,50.2 288.1,50.3 288.2,50.4 288.3,50.7 288.7,51.2 290.1,53.3 290.8,54.3 
		291.4,55.4 292.7,57.4 293.3,58.5 293.8,59.5 294.9,61.6 297.4,59.8 300,58 302.5,56.3 305,54.7 307.5,53.1 310.1,51.6 312.6,50.1 
		315.1,48.6 317.6,47.2 320.1,45.9 322.6,44.6 323.9,43.9 325.1,43.3 327.6,42.1 330.1,41 332.6,39.9 335.1,38.8 337.6,37.8 
		340.1,36.8 342.6,35.9 345.1,35 347.6,34.2 350.1,33.4 352.6,32.7 355.1,32 357.5,31.4 360,30.8 362.5,30.2 365,29.8 367.4,29.3 
		369.9,28.9 372.4,28.6 374.9,28.3 376.4,28.3 378,28.3 379.5,28.3 381,28.4 382.4,28.5 383.9,28.6 385.3,28.7 386.7,28.8 388,28.9 
		389.3,29.1 390.6,29.3 391.9,29.5 393.1,29.7 394.3,29.9 395.5,30.2 396.6,30.5 397.8,30.7 398.9,31 399.9,31.3 401,31.7 402,32 
		403,32.4 403.9,32.8 404.8,33.2 405.7,33.6 406.6,34.1 407.4,34.5 408.2,35 409,35.5 409.8,36 410.5,36.5 411.2,37.1 411.9,37.7 
		412.5,38.2 413.1,38.8 413.7,39.5 414.3,40.1 414.8,40.7 415.3,41.4 415.8,42.1 416.2,42.8 416.6,43.5 417,44.3 417.3,45 
		417.7,45.8 418,46.6 418.2,47.4 418.5,48.3 418.7,49.1 418.9,50 419.1,50.8 419.2,51.8 419.3,52.7 419.4,53.6 419.4,54.6 
		419.4,55.5 419.4,56.5 419.4,57.5 419.3,58.6 419.2,59.6 419.1,60.7 418.9,61.7 418.7,62.8 418.6,64 418.3,65.1 418,66.2 
		417.7,67.2 417.4,68.3 417,69.3 416.5,70.4 416.1,71.4 415.8,71.9 415.6,72.4 415.1,73.3 414.8,73.8 414.5,74.3 414.2,74.8 
		414,75.2 413.6,75.7 413.3,76.2 413,76.6 412.7,77.1 412,78 411.2,78.8 410.5,79.7 410.1,80.1 409.7,80.5 408.8,81.4 407.9,82.2 
		407.1,83 406.1,83.7 405.1,84.5 404.6,84.8 404.1,85.2 403.6,85.6 403.1,86 402,86.6 401.4,87 400.9,87.3 400.3,87.7 399.7,88 
		398.6,88.7 397.9,89 397.3,89.3 396.1,89.9 394.8,90.5 393.5,91.1 392.8,91.4 392.1,91.7 391.4,91.9 390.7,92.2 389.3,92.8 
		387.8,93.3 386.3,93.8 384.8,94.3 383.2,94.7 381.6,95.2 379.9,95.6 378.3,96 376.6,96.4 375.7,96.6 374.8,96.8 373.9,97 373,97.2 
		372.1,97.3 371.2,97.5 369.4,97.9 367.5,98.2 365.6,98.5 364.6,98.6 363.6,98.8 362.6,98.9 361.6,99 359.6,99.3 357.5,99.5 
		355.4,99.7 353.3,99.9 351.1,100.1 348.9,100.3 346.7,100.4 344.4,100.5 343.3,100.6 342.1,100.7 339.8,100.8 338.6,100.8 
		337.4,100.9 336.2,100.9 335,100.9 332.6,101 334.3,101.8 336.1,102.7 337,103.1 337.9,103.6 339.8,104.7 340.7,105.3 341.7,105.9 
		343.6,107.1 345.6,108.5 347.7,110 350.1,109.6 352.6,109.3 355,109.1 357.6,109 357.8,109 358.1,109 359.5,108.9 360.9,108.9 
		362.3,108.9 363.6,108.9 364.9,109 366.3,109 367.5,109.1 368.8,109.2 370.1,109.3 371.3,109.5 372.5,109.6 373.7,109.8 374.9,110 
		376,110.2 377.2,110.4 378.3,110.7 379.4,111 380.5,111.3 380.7,111.2 381,111.1 381.3,111 381.6,110.9 382,110.7 382.4,110.5 
		382.7,110.3 383.1,110 383.6,109.7 384,109.3 384.5,108.9 385,108.5 385.5,108.1 386,107.6 386.6,107.1 387.1,106.6 387.6,106.1 
		388,105.8 388.5,105.4 389,105.1 389.5,104.9 390,104.6 390.6,104.5 391.1,104.3 391.7,104.2 392.3,104.1 392.9,104.1 393.5,104.1 
		394.1,104.2 394.7,104.3 395.4,104.4 396.1,104.6 398.1,103.3 398.2,103.3 399.6,102.4 400.3,101.9 401,101.4 401.6,100.9 
		402.3,100.4 403,99.8 403.7,99.3 404.9,98.1 406.2,97 407.5,95.7 408.1,95.1 408.4,94.8 408.7,94.5 409.3,93.8 409.9,93.1 
		411.1,91.7 412.2,90.3 412.5,89.9 412.8,89.6 413.3,88.8 413.9,88.1 414.4,87.3 415.5,85.7 415.7,85.3 416,84.9 416.5,84.1 
		417.6,82.4 418,81.6 418.5,80.7 419.5,78.9 419.9,78 420.4,77.1 421.3,75.2 422.2,73.3 422.6,72.3 423,71.3 423.4,70.3 423.8,69.3 
		424.6,67.3 425.4,65.1 425.6,64.6 425.8,64 426.1,63 426.5,61.8 426.8,60.7 427.2,59.6 427.4,59 427.5,58.5 428.2,56.2 428.8,53.8 
		429.4,51.4 429.6,50.7 429.7,50.1 430,48.9 430.2,51 430.2,52.1 430.2,52.6 430.3,53.2 430.3,54.2 430.3,55.3 430.3,55.8 
		430.3,56.3 430.3,57.4 430.2,58.4 430.2,59.5 430,61.5 429.8,63.6 429.6,65.6 429.2,67.6 428.9,69.7 428.7,70.6 428.5,71.1 
		428.5,71.6 428.2,72.6 428,73.6 427.8,74.1 427.7,74.6 427.4,75.6 426.8,77.6 426.2,79.5 425.5,81.4 424.7,83.3 423.9,85.2 
		423,87.1 422.6,88 422.1,88.9 421.6,89.9 421.1,90.8 420.6,91.7 420.3,92.2 420.1,92.6 419,94.4 417.8,96.3 417.2,97.1 416.6,98 
		415.3,99.8 414,101.6 413.3,102.4 412.6,103.3 412.3,103.7 411.9,104.2 411.2,105 410.8,105.5 410.4,105.9 409.7,106.8 
		408.9,107.6 408.5,108 408.2,108.5 406.6,110.2 407,110.3 407.5,110.5 407.9,110.6 408.3,110.8 408.7,111.1 409,111.3 409.4,111.6 
		409.7,111.9 409.9,112.2 410.2,112.5 410.4,112.8 410.6,113.2 410.7,113.6 410.8,114 411,114.4 411.1,114.9 411.1,115.3 
		411.1,115.8 411.1,116.3 411.1,116.9 411,117.4 410.9,118 410.8,118.5 410.7,119.1 410.5,119.8 410.3,120.4 410.1,121.1 
		409.9,121.8 409.6,122.5 409.3,123.2 408.9,123.9 408.6,124.7 409.1,125.1 409.6,125.5 409.9,125.1 410,125 410.2,124.9 
		410.4,124.8 410.7,124.7 411,124.7 411.3,124.6 411.8,124.2 412.4,123.9 413.5,123.3 414,123 414.6,122.8 415.1,122.6 415.6,122.4 
		416.1,122.2 416.6,122.1 417.6,121.9 418.1,121.8 418.6,121.8 419,121.8 419.5,121.9 420.4,122 420.8,122.1 421.2,122.2 
		421.6,122.4 422,122.6 422.4,122.8 422.9,123.1 423.6,123.6 424,123.9 424.4,124.3 424.7,124.6 425.1,125.1 425.4,125.5 425.8,126 
		426.8,124.5 427.9,123 429.9,120.1 430.8,118.6 431.8,117.2 432.7,115.8 433.6,114.3 434.5,112.9 435.4,111.4 436.2,110 437,108.6 
		437.8,107.1 438.5,105.7 439.3,104.3 440,102.9 441.3,100 442.6,97.2 443.2,95.8 443.7,94.4 444.3,93 444.8,91.6 445.8,88.8 
		446.6,86 447,84.6 447.4,83.2 447.8,81.8 448.1,80.5 448.7,77.7 449.2,75 449.6,72.2 449.9,69.5 450,66.8 450.2,64.1 450.2,62.8 
		450.2,61.5 450.1,58.8 449.9,56.1 449.8,54.8 449.6,53.5 449.2,50.9 448.8,48.3 448.2,45.6 447.9,44.3 447.6,43 446.8,40.4 
		446,37.9 446.7,39 447.4,40.1 448.1,41.2 448.8,42.4 449.4,43.5 450,44.7 450.5,45.9 451.1,47.2 451.5,48.4 452,49.6 452.5,50.9 
		452.8,52.2 453.2,53.5 453.6,54.8 453.9,56.1 454.1,57.5 454.4,58.8 454.6,60.2 454.7,61.6 454.9,63 455,64.4 455.1,65.9 
		455.1,67.3 455.2,68.8 455.1,70.3 455.1,71.8 455,73.3 454.9,74.9 454.7,76.4 454.6,78 454.4,79.6 454.2,81.2 453.9,82.8 
		453.6,84.4 453.2,86 452.9,87.7 452.5,89.4 452,91.1 451.6,92.8 451.1,94.5 450.5,96.2 450,98 449.4,99.8 448.8,101.6 448.1,103.4 
		447.4,105.2 446.7,107 446,108.9 445.2,110.7 444.4,112.6 443.5,114.5 442.7,116.4 441.7,118.3 440.8,120.3 439.8,122.3 
		438.8,124.3 437.8,126.3 436.7,128.3 435.6,130.3 434.5,132.3 433.3,134.4 432.1,136.5 430.9,138.6 429.6,140.7 429.8,141.1 
		430,141.6 430.2,142.6 430.3,143 430.3,143.5 430.3,143.9 430.4,144.4 430.3,144.9 430.3,145.3 430.3,145.8 430.2,146.2 
		430.1,146.7 430,147.1 429.6,148 430.9,150.1 432,152.2 432.2,151.8 432.5,151.4 432.9,151.1 433.2,150.8 433.6,150.5 434.1,150.3 
		434.6,150.1 435.1,150 435.6,149.9 436.2,149.9 436.8,149.9 437.5,150 438.1,150.1 438.9,150.2 439.6,150.4 440.5,150.7 
		440.8,150.7 441.1,150.9 441.5,151 441.8,151.2 442.1,151.4 442.3,151.6 442.6,151.8 442.8,152.1 443,152.4 443.3,152.8 
		443.4,153.1 443.6,153.5 443.8,153.9 443.9,154.3 444,154.8 444.1,155.3 445.9,152.6 447.6,149.9 449.3,147.3 450.9,144.6 
		452.4,142 453.9,139.3 455.3,136.7 456.6,134.1 457.9,131.5 459.1,128.9 460.3,126.3 461.4,123.8 462.4,121.2 463.4,118.7 
		464.3,116.1 465.1,113.6 465.9,111.1 466.6,108.5 467.2,106 467.8,103.6 468.4,101.1 468.8,98.6 469.2,96.2 469.6,93.7 469.9,91.3 
		470.1,88.9 470.3,86.4 470.3,84.1 470.4,81.7 470.3,79.3 470.3,76.9 	"/>
	<path fill-rule="evenodd" clip-rule="evenodd" d="M265.6,111.6l8.4-7.5h0.7l-8.2,10.7c-0.9-0.1-1.5-0.5-1.6-1.4
		C264.9,112.9,265.1,112.3,265.6,111.6z"/>
	<polygon fill-rule="evenodd" clip-rule="evenodd" fill="#9F9C9B" points="303.9,132.7 304,132.6 304.2,132.5 304.1,131.7 
		303.9,130.9 303.6,129.5 303.2,128.1 303,127.4 302.8,126.7 302.3,125.3 302,124.7 301.8,124.1 301.2,122.8 300.6,121.6 
		299.9,120.4 299.2,119.3 298.8,118.7 298.5,118.2 297.7,117.1 297.2,116.6 296.8,116.1 295.9,115.1 294.9,114.2 294,113.3 
		293.2,114.7 292.5,116 292.1,116.6 291.8,117.2 291.5,117.7 291.2,118.3 290.9,118.8 290.6,119.3 290.3,119.8 290,120.2 
		289.8,120.6 289.5,121 289.1,121.8 288.9,122.1 288.7,122.4 288.3,123 288.2,123.2 288,123.4 287.8,123.8 287.6,123.9 287.6,124.1 
		287.4,124.3 287.3,124.3 287.3,124.3 287.2,124.4 287.2,124.4 286.5,125 285.8,125.6 285.1,126.2 284.4,126.8 283.7,127.4 
		283,127.9 282.4,128.4 281.7,128.8 281.1,129.2 280.4,129.7 279.8,130 279.2,130.4 278.6,130.7 278,131 277.4,131.3 276.8,131.5 
		276.3,131.7 275.7,131.9 275.2,132.1 274.6,132.2 274.1,132.3 273.6,132.4 273.1,132.4 272.6,132.4 272.1,132.4 271.6,132.4 
		271.1,132.3 270.7,132.2 270.2,132.1 269.8,131.9 269.4,131.8 268.9,131.6 268.5,131.3 268.1,131 267.7,130.7 267.3,130.4 
		266.9,130.1 266.6,129.7 266.2,129.3 265.9,128.9 265.5,128.4 265.2,127.9 264.9,127.4 264.6,126.9 264,125.7 263.7,125.1 
		263.5,124.4 263.2,123.7 262.9,123 262.7,122.3 262.5,121.5 262,119.9 261.8,119 261.6,118.1 261.5,117.2 261.3,116.3 261.1,115.3 
		261,114.3 260.8,113.3 260.7,112.3 260.5,111.2 260.4,110.1 271.9,98.2 269.2,97.7 267.9,97.5 266.6,97.3 265.2,97.2 264,97 
		262.7,96.9 261.4,96.9 261.2,96.8 261,96.9 259.3,96.7 257.7,96.6 256,96.6 254.5,96.6 252.9,96.6 251.3,96.6 249.8,96.7 
		248.3,96.8 246.8,97 245.4,97.1 243.9,97.3 242.5,97.6 241.1,97.8 239.8,98.1 238.4,98.5 237.1,98.8 235.8,99.2 234.6,99.6 
		233.3,100.1 232.1,100.5 230.9,101 229.8,101.6 228.6,102.1 227.5,102.7 226.4,103.3 225.3,104 224.2,104.7 223.2,105.4 
		222.2,106.1 221.2,106.9 220.2,107.8 219.3,108.6 218.3,109.5 217.3,110.5 216.4,111.4 215.5,112.4 213.8,114.4 212.3,116.4 
		210.8,118.4 209.6,120.5 209,121.6 208.4,122.7 207.9,123.8 207.4,124.9 206.7,126.6 206.1,128.3 205.6,130.1 205.2,131.9 
		204.8,133.7 204.5,135.5 204.4,137.4 204.3,139.3 204.2,141.2 204.3,143.1 204.4,145.1 204.7,147 205,149 205.4,151.1 205.9,153.1 
		206.5,155.2 206.8,156.5 207.3,157.7 208.2,160.3 208.7,161.6 209.3,162.9 209.8,164.2 210.5,165.5 211.7,164.1 212.3,163.4 
		213,162.7 213.7,162 214.5,161.3 215.2,160.6 216,160 217.6,158.7 219.3,157.6 221,156.4 221.9,155.8 222.9,155.3 224.8,154.2 
		226.9,153.2 229,152.2 230,151.8 231.2,151.3 232.3,150.9 233.5,150.5 235.8,149.6 238.3,148.9 240.9,148.2 242.2,147.8 
		243.5,147.5 246.2,146.9 249,146.3 251.9,145.8 253.4,145.5 254.9,145.3 256.4,145 258,144.8 259.5,144.6 261.1,144.5 264.4,144.1 
		267.7,143.9 269.4,143.7 271.1,143.6 272.8,143.5 274.6,143.4 278.2,143.3 281.8,143.2 283.7,143.2 285.6,143.2 287.5,143.2 
		289.4,143.2 291.4,143.2 293.4,143.3 295.1,143.3 297.1,140.6 299.2,137.9 300.3,136.6 301.5,135.3 302.7,134 	"/>
	<polygon fill-rule="evenodd" clip-rule="evenodd" fill="#9F9C9B" points="268.3,151.4 270.8,151.2 273.5,151.1 276.1,151.1 
		278.8,151 281.6,151.1 284.4,151.1 287.2,151.2 290.1,151.4 291.1,149.5 292.3,147.5 293.4,145.6 294.7,143.8 294.9,143.5 
		295.1,143.3 293.4,143.3 291.4,143.2 289.4,143.2 287.5,143.2 285.6,143.2 283.7,143.2 281.8,143.2 278.2,143.3 274.6,143.4 
		272.8,143.5 271.1,143.6 269.4,143.7 267.7,143.9 264.4,144.1 261.1,144.5 259.5,144.6 258,144.8 256.4,145 254.9,145.3 
		253.4,145.5 251.9,145.8 249,146.3 246.2,146.9 243.5,147.5 242.2,147.8 240.9,148.2 238.3,148.9 235.8,149.6 233.5,150.5 
		232.3,150.9 231.2,151.3 230,151.8 229,152.2 226.9,153.2 224.8,154.2 222.9,155.3 221.9,155.8 221,156.4 219.3,157.6 217.6,158.7 
		216,160 215.2,160.6 214.5,161.3 213.7,162 213,162.7 212.3,163.4 211.7,164.1 210.5,165.5 210.3,166 210.2,166.5 210,166.9 
		210,167.4 209.8,168.2 209.8,168.5 209.8,168.9 209.8,169.2 209.8,169.6 209.9,170.2 209.9,170.5 210,170.7 210.2,171 210.3,171.2 
		210.4,171.4 210.6,171.5 210.8,171.7 211,171.8 211.2,172 211.4,172.1 212,172.2 212.6,172.3 212.9,172.3 213.3,172.3 213.6,172.3 
		214,172.3 214.4,172.2 214.9,172.1 215.3,171.7 215.7,171.4 217,170.3 218.2,169.2 219.5,168.2 220.8,167.2 222.1,166.2 
		223.5,165.3 224.9,164.4 226.3,163.5 227.7,162.6 229.2,161.8 230.7,161 232.2,160.3 233.8,159.6 235.3,158.9 236.9,158.2 
		238.6,157.6 240.2,157 241.9,156.4 243.6,155.8 245.3,155.3 247.1,154.8 248.9,154.3 250.7,153.9 252.5,153.5 254.4,153.1 
		256.3,152.8 258.2,152.5 260.2,152.2 262.1,152 264.1,151.7 266.2,151.5 	"/>
	<path fill-rule="evenodd" clip-rule="evenodd" d="M207.4,124.9l-2-0.3l-2-0.4l-2-0.4l-2-0.5l-2-0.5l-2-0.6l-1.9-0.6l-1.9-0.7
		l-1.9-0.8l-1.9-0.8l-1.9-0.9l-1.9-0.9l-1.9-1l-1.8-1.1l-1.8-1.1l-1.8-1.2l-1.8-1.3l-1.8-1.3l-1.8-1.4l-1.8-1.4l-1.8-1.5l-1.7-1.5
		l-1.7-1.6l-1.7-1.6l-1.7-1.7l-1.7-1.8l-1.7-1.8l-1.6-1.9l-1.7-2l-1.6-2l-1.6-2.1l-1.6-2.1l0.5,2l0.5,2l0.5,2l0.6,1.9l0.6,1.9
		l0.6,1.9l0.6,1.8l0.6,1.8l0.6,1.8l0.6,1.7l0.6,1.7l0.7,1.7l0.7,1.6l0.7,1.6l0.7,1.6l0.7,1.6l0.7,1.5l0.7,1.5l0.7,1.5l0.8,1.5
		l0.8,1.4l0.8,1.4l0.8,1.4l0.8,1.3l0.8,1.3l0.8,1.3l0.8,1.3l0.9,1.2l0.9,1.2l0.9,1.2l0.9,1.1l0.9,1.1l0.9,1l0.9,1l0.9,1l0.9,1
		l0.9,0.9l1,0.9l1,0.9l1,0.9l1,0.8l1,0.8l1,0.8l1,0.8l1,0.7l1.1,0.7l1.1,0.7l1.1,0.6l1.1,0.6l1.1,0.5l1.1,0.5l1.1,0.5l1.1,0.5
		l1.2,0.4l1.2,0.4l1.2,0.4l1.2,0.3l1.2,0.3l1.2,0.3l1.2,0.3l1.2,0.2l1.3,0.2l1.3,0.2l1.3,0.2l-0.6-2.1l-0.5-2l-0.4-2l-0.3-2l-0.2-2
		l-0.2-2l-0.1-1.9l0-1.9l0.1-1.9l0.2-1.9l0.3-1.8l0.4-1.8l0.4-1.8l0.5-1.8l0.6-1.7L207.4,124.9L207.4,124.9z M205.3,126
		c-4,11.3-3.2,19.9-0.4,27.4c-32.3-6.2-45.5-35.8-53.4-63.3C165.8,108.9,181.3,122.4,205.3,126z"/>
	<path fill-rule="evenodd" clip-rule="evenodd" d="M158.8,106.5c-0.6-1.3,0.6-1.8,1.5-1c7.4,15.8,16.3,29,24.6,33.6
		c0.6,0.7,0.7,1.6-1,1.6C173,133,165.9,122.5,158.8,106.5z"/>
	<path fill-rule="evenodd" clip-rule="evenodd" d="M187,143.3c-1.1-0.9-0.2-1.9,1-1.5c4.3,3.3,8,4.8,11.1,4.5
		c0.9,0.4,1.3,1.1-0.3,1.8C193.8,148.1,190,145.7,187,143.3z"/>
	<path fill-rule="evenodd" clip-rule="evenodd" d="M360.7,107.7c7.5,0,14.7,1,21.6,2.9l-2.5,1.3c-5.8-1.4-11.8-2.2-18-2.3
		c-25,36.2-34.5,63-26.4,87.9c14-6.3-2.4-36,31.5-57.5l5.1,4.1c-35.5,23.6-14.7,48.8-35.1,57.5c1.7,4.1,3.9,8.2,6.5,12.2
		c18.2-7.5,35.5-22.7,56-41.7l3.5,3.8c-12.8,12.5-31.6,33.2-55.7,43.4c1,1.3,2.1,2.6,3.2,3.9c34.1-24.3,38.3,38.1,89.4-32.2
		c0-0.7,0-1.4,0-2.1c0-1.7-0.1-3.3-0.2-5l1.7-2c0.2,2.3,0.3,4.6,0.3,7c0,44.9-36.3,81.3-81.1,81.3c-6.9,0-13.6-0.9-19.9-2.5
		l-0.1,0.2l-1.1-0.5c-34.6-9.3-60-40.9-60-78.5C279.6,144,315.9,107.7,360.7,107.7L360.7,107.7z M432.8,156l1.8-0.6
		c-1.3-3-2.8-5.8-4.5-8.6l-0.9,2.1C430.5,151.2,431.7,153.6,432.8,156L432.8,156z M409.4,126.3l1.1-1.5c-1.4-1.1-2.9-2.2-4.4-3.2
		l-1.2,1.5C406.5,124.1,407.9,125.1,409.4,126.3L409.4,126.3z M353.5,226.5c10,11,23.7,22.1,41.3,34.2
		c23.6-11.3,40.8-33.9,44.5-60.8C395.3,259.8,377.3,210,353.5,226.5L353.5,226.5z M388.8,263.2c-16.5-11.6-29.7-22.4-39.6-33.2
		c-13.7,12.8-1.4,17-7.8,35.9c6.2,1.6,12.6,2.4,19.3,2.4C370.6,268.3,380,266.5,388.8,263.2L388.8,263.2z M346.2,226.7
		c-1.5-1.8-3-3.5-4.3-5.3c-16.2,5.6-34.6,6.1-55.1-3.7c8.6,22.3,27,39.6,49.9,46.9C342.7,256.6,330.3,241.5,346.2,226.7L346.2,226.7
		z M338,215.8c-2.7-4.2-5-8.3-6.7-12.6c-23.1,3.9-22.7-37.5-48.2-30.2c-1,5.1-1.6,10.4-1.6,15.9c0,7.5,1,14.7,3,21.6
		C305,220.1,322,221,338,215.8L338,215.8z M329.5,198.6c-8.1-24.9,0.3-52.3,25.2-88.8c-33.6,2.5-61.4,26.1-70.3,57.5
		C308.5,161.3,311.2,198.2,329.5,198.6z"/>
	<polygon fill-rule="evenodd" clip-rule="evenodd" points="311.7,99.5 311.3,99.9 310.9,100.3 310.6,100.8 310.3,101.3 310.1,101.8 
		309.8,102.3 309.6,102.8 309.5,103.4 309.3,104 309.2,104.6 309.1,105.2 309,105.8 309,106.5 309,107.2 309,107.9 309.1,108.6 
		309.2,109.3 309.2,110.1 309.4,110.9 309.5,111.7 309.7,112.5 309.9,113.3 310.2,114.2 310.4,115.1 310.8,116 311.1,116.9 
		311.4,117.8 311.8,118.8 312.2,119.8 312.6,120.8 313.1,121.8 313.6,122.8 314.1,123.9 315.8,122.7 317.6,121.5 319.3,120.4 
		321.1,119.3 320.2,118.6 319.4,117.9 318.6,117.2 317.8,116.6 317.1,115.9 316.5,115.2 315.8,114.6 315.2,113.9 314.7,113.3 
		314.2,112.6 313.7,112 313.3,111.3 312.9,110.7 312.5,110 312.2,109.4 312,108.8 311.7,108.1 311.5,107.5 311.3,106.9 311.2,106.3 
		311.2,105.6 311.1,105 311.1,104.4 311.2,103.8 311.2,103.1 311.4,102.5 311.6,101.9 311.8,101.3 312,100.7 312.3,100.1 
		312.6,99.5 313,98.9 312.5,99.1 312.3,99.2 311.9,99.4 311.8,99.5 	"/>
	<path fill-rule="evenodd" clip-rule="evenodd" d="M367.1,126.1c2-5.6,10-8,18.2-3.8c4.3,3.5,7,9.9,1.5,16.4
		C377.4,138.4,369.3,134.1,367.1,126.1L367.1,126.1z M369.4,126.8c2.6,5.9,9.1,9.3,15.9,10.2c4.4-5.3,2.3-10.4-1.2-13.2
		C377.5,120.4,371.1,122.3,369.4,126.8z"/>
	<path fill-rule="evenodd" clip-rule="evenodd" stroke="#000000" stroke-width="0.216" stroke-miterlimit="2.6131" d="M419.9,153.9
		c4.5,6.9,2.2,13.6-5,20.5c-0.7-7.2-5.2-8.4-11.8-7.3C408.1,156.8,413.4,150.2,419.9,153.9L419.9,153.9z M418.7,155.6
		c-4.5-2.4-8.2,1.8-12.3,9.2c4.1-0.4,7.5,1.1,9.5,5.9C420.8,164.6,421.4,160.9,418.7,155.6z"/>
	<path fill-rule="evenodd" clip-rule="evenodd" d="M431,180.5c5.3,0.3,6.8,5.6,7.2,6.4c0.2,0.8-0.3,2.1-0.6,2.5
		c-0.2,4.7-2.8,8.1-6.3,10c-0.3,0.1-1-0.5-1.2-0.4c-1.9-3.1-3.2-5.2-6-6.2c-0.9-2.2-0.5-4.7,1.5-7.7
		C428.2,181.8,429.9,180.4,431,180.5L431,180.5z M430.8,182.5c-0.8-0.1-1.5,1.2-3.4,3.7c-1.5,2.3-2.1,3.7-1.5,5.3
		c3.6,1.7,5.4,5.7,5.4,5.7c2.4-2.4,4.3-4.5,4.5-8c0.2-0.3,0.8-2,0.6-2.6C436.1,186.1,434.8,182.8,430.8,182.5z"/>
	<path fill-rule="evenodd" clip-rule="evenodd" d="M427.6,232.1v0.4l0.1,0.4l0.1,0.3l0.1,0.3l0.1,0.3l0.2,0.3l0.2,0.2l0.2,0.2
		l0.2,0.2l0.3,0.2l0.3,0.2l0.3,0.2l0.3,0.1l0.4,0.1l0.4,0.1l0.4,0.1l0.5,0.1l0.3,0l0.1,0l0.2,0h0.1l0.1,0l0.3,0l0.5,0h0.5l0.1,0h0.1
		h0.3l1-0.1l0.4-0.1l0.5-0.1l0.4-0.2l0.4-0.2l0.4-0.2l0.4-0.3l0.4-0.3l0.4-0.3l0.4-0.4l0.4-0.4l0.4-0.4l0.4-0.4l0.3-0.5l0.4-0.5
		l0.3-0.6l0.1-0.2l0.1-0.1l0.2-0.3l0.3-0.6l0.3-0.6l0.3-0.7l0.3-0.7l0-0.2l0.1-0.2l0.1-0.4l0.3-0.8l0.2-0.8l0.3-0.8l-0.9-4.1
		l0.2-1.9l0.2-1.9l0.1-1.9c0.2-3.3-1.6,0.2-2,1l0.4,2.3l-0.2,1.6l-0.2,1.6l0.7,3.5l-0.2,0.7l-0.2,0.7l-0.2,0.6l-0.1,0.3l-0.1,0.2
		l0,0.2l-0.3,0.6l-0.2,0.6l-0.3,0.5l-0.2,0.5l-0.2,0.2l-0.1,0.1l-0.1,0.1l-0.3,0.5l-0.3,0.4l-0.3,0.4l-0.3,0.4l-0.3,0.4l-0.3,0.3
		l-0.3,0.3l-0.4,0.3l-0.3,0.2l-0.4,0.2l-0.3,0.2l-0.4,0.2l-0.4,0.2l-0.4,0.1l-0.4,0.1l-0.8,0.1h-0.2h-0.1l-0.1,0h-0.4l-0.5,0l-0.2,0
		l-0.1,0h-0.1l-0.1,0l-0.1,0l-0.2,0l-0.5-0.1l-0.4-0.1l-0.3-0.1l-0.3-0.1l-0.3-0.1l-0.3-0.2l-0.2-0.1l-0.2-0.2l-0.2-0.2l-0.2-0.2
		l-0.2-0.2l-0.1-0.2l-0.1-0.2l-0.1-0.3l-0.1-0.3l-0.1-0.3L427.6,232.1z"/>
	<path fill-rule="evenodd" clip-rule="evenodd" d="M449.3,193.1l1.4,0.3c-3.8,14.8-7.3,21.7-10.5,25.5c-0.9,0.6-1.3-0.2-1.3-0.9
		c2.6-3.4,4.6-7.7,6.4-12.3c-1.8,2.5-2.7,4-4.7,6.4c-0.9,0.6-1.3-0.2-1.3-0.9C442.8,207.9,445.1,205.7,449.3,193.1z"/>
	<polygon fill-rule="evenodd" clip-rule="evenodd" points="313.2,96.6 313.2,96.6 312.8,97.3 312.4,98 312.1,98.6 311.8,99.3 
		311.6,100 311.4,100.7 311.3,101.3 311.2,102 311.1,102.7 311.1,103.4 311.2,104.1 311.2,104.1 311.2,103.8 311.2,103.1 
		311.4,102.5 311.6,101.9 311.8,101.3 312,100.7 312.3,100.1 312.6,99.5 313,98.9 313,98.9 314,98.5 315,98.2 316,98 317.1,97.8 
		318.2,97.7 319.4,97.7 320.6,97.7 321.8,97.8 323,98 324.3,98.2 325.6,98.5 326.9,98.8 328.3,99.3 329.7,99.8 331.1,100.3 
		332.6,101 334.3,101.8 336.1,102.7 337,103.1 337.9,103.6 339.8,104.7 340.7,105.3 341.7,105.9 343.6,107.1 345.6,108.5 
		347.3,109.7 347.8,109.6 349.8,109.2 351.8,108.9 349.5,107.3 347.3,105.8 345.1,104.4 344,103.7 343,103.1 340.9,101.9 
		339.9,101.3 338.9,100.8 336.9,99.8 335,98.9 333.3,98.2 331.8,97.6 330.2,97 328.7,96.5 327.2,96.1 325.8,95.8 324.4,95.6 
		323,95.4 321.6,95.3 320.3,95.3 319,95.3 317.8,95.4 316.6,95.6 315.4,95.9 314.3,96.2 	"/>
	<path fill-rule="evenodd" clip-rule="evenodd" d="M444.2,150.5l0,4.8l-4,6.1c-1.1,1.2-3-0.3-1.7-1.8L444.2,150.5z"/>
	<path fill-rule="evenodd" clip-rule="evenodd" d="M448.1,164.4l0,4.8l-4,6.1c-1.1,1.2-3-0.3-1.7-1.8L448.1,164.4z"/>
	<path fill-rule="evenodd" clip-rule="evenodd" d="M426.3,120.4l0,4.8l-6.4,9.5c-1.1,1.2-3-0.3-1.7-1.8L426.3,120.4z"/>
	<path fill-rule="evenodd" clip-rule="evenodd" d="M432.9,135.3l0,4.8l-4,6.1c-1.1,1.2-3-0.3-1.7-1.8L432.9,135.3z"/>
	<path fill-rule="evenodd" clip-rule="evenodd" d="M399.4,99.2l-0.5,3.6l-8,5.5c-1.5,0.7-2.7-1.4-0.9-2.3L399.4,99.2z"/>
	<path fill-rule="evenodd" clip-rule="evenodd" d="M410.4,105.9l-1.2,5.1l-7.6,8.6c-1.3,1-3-1-1.4-2.3L410.4,105.9z"/>
	<path fill-rule="evenodd" clip-rule="evenodd" d="M305.2,131.1l0.1-0.2l0.2-0.1l-0.2-0.8l-0.2-0.8l-0.3-1.5l-0.4-1.5l-0.2-0.7
		l-0.2-0.7l-0.5-1.4l-0.3-0.7l-0.3-0.6l-0.6-1.3l-0.6-1.2l-0.7-1.2l-0.7-1.1l-0.4-0.6l-0.4-0.5l-0.8-1.1l-0.5-0.5l-0.5-0.5l-0.9-1
		l-1-1l-1-0.9l-0.8,1.4l-0.2,0.7l1,0.9l0.9,0.9l0.9,1l0.4,0.5l0.4,0.5l0.8,1l0.4,0.5l0.4,0.6l0.7,1.1l0.7,1.2l0.6,1.2l0.6,1.3
		l0.2,0.6l0.3,0.7l0.5,1.3l0.2,0.7l0.2,0.7l0.4,1.4l0.3,1.5l0.2,0.7l0.1,0.5L305.2,131.1L305.2,131.1z M295,143.8l-0.1-0.2l0.2-0.2
		l-1.7-0.1l-2-0.1l-2,0l-2,0l-1.9,0h-1.9l-1.9,0l-3.7,0.1l-3.6,0.1l-1.8,0.1l-1.7,0.1l-1.7,0.1l-1.7,0.1l-3.3,0.3l-3.2,0.3l-1.6,0.2
		l-1.6,0.2l-1.6,0.2l-1.5,0.2l-1.5,0.2l-1.5,0.3l-2.9,0.5l-2.8,0.6l-2.7,0.6l-1.3,0.3l-1.3,0.4l-2.6,0.7l-2.5,0.8l-2.4,0.8l-1.2,0.4
		l-1.1,0.5l-1.1,0.4l-1.1,0.5l-2.1,1l-2,1l-1.9,1.1l-1,0.5l-0.9,0.6l-1.8,1.2l-1.7,1.2L216,160l-0.8,0.6l-0.7,0.7l-0.7,0.7l-0.7,0.7
		l-0.7,0.7l-1.9,2.2l-1.1-1.7l-0.7,0.8l-0.6-1.4l-0.6-1.3l-0.6-1.3l-0.5-1.3l-1-2.6l-0.5-1.3l-0.4-1.3l-0.6-2.2l-0.5-2.1l-0.4-2.1
		l-0.3-2l-0.3-2l-0.2-2l-0.1-2l0-1.9l0.1-1.9l0.2-1.9l0.3-1.9l0.4-1.8l0.5-1.8l0.5-1.8l0.6-1.8l0.7-1.7l0.5-1.1l0.5-1.1l0.6-1.1
		l0.6-1.1l1.3-2.2l1.5-2.1l1.6-2.1l1.7-2l0.9-1l1-1l1-1l1-1l1-0.9l1-0.8l1-0.8l1.1-0.8l1.1-0.8l1.1-0.7l1.1-0.7l1.2-0.6l1.2-0.6
		l1.2-0.6l1.2-0.6l1.3-0.5l1.3-0.5l1.3-0.4l1.3-0.4l1.4-0.4l1.3-0.4l1.4-0.3l1.4-0.3l1.5-0.3l1.4-0.3l1.5-0.2l1.5-0.2l1.5-0.1
		l1.5-0.1l1.6-0.1l1.6-0.1h1.6h1.6l1.7,0.1l1.7,0.1l1.7,0.1l0.2,0l0.3,0l1.3,0.1l1.3,0.1l1.3,0.1l1.4,0.2L268,95l1.4,0.2l5,1.4
		l-4.1,3.2l1.6-1.7l-2.7-0.5l-1.3-0.2l-1.3-0.2l-1.3-0.2L264,97l-1.3-0.1l-1.3-0.1l-0.2,0l-0.2,0l-1.7-0.1l-1.6-0.1l-1.6-0.1h-1.6
		h-1.6l-1.5,0.1l-1.5,0.1l-1.5,0.1l-1.5,0.1l-1.4,0.2l-1.4,0.2l-1.4,0.2l-1.4,0.2l-1.3,0.3l-1.3,0.3l-1.3,0.4l-1.3,0.4l-1.3,0.4
		l-1.3,0.4l-1.2,0.5l-1.2,0.5l-1.2,0.6l-1.2,0.5l-1.1,0.6l-1.1,0.6l-1.1,0.7l-1.1,0.7l-1,0.7l-1,0.7l-1,0.8l-1,0.8l-0.9,0.9l-1,0.9
		l-1,0.9l-0.9,1l-0.9,1l-1.7,2l-1.5,2l-1.4,2l-1.3,2.1l-0.6,1.1l-0.5,1.1l-0.5,1.1l-0.5,1.1l-0.7,1.7l-0.6,1.7l-0.5,1.8l-0.4,1.8
		l-0.4,1.8l-0.3,1.8l-0.2,1.9l-0.1,1.9l0,1.9l0.1,1.9l0.2,2l0.2,2l0.3,2l0.4,2l0.5,2l0.6,2.1l0.4,1.2l0.4,1.3l0.9,2.6l0.5,1.3
		l0.5,1.3l0.1,0.3l0.4-0.4l0.7-0.7l0.7-0.8l0.8-0.7l0.8-0.7l0.8-0.7l1.7-1.4l1.8-1.3l1.9-1.2l1-0.6l1-0.6l2-1.2l2.1-1.1l2.2-1
		l1.1-0.5l1.2-0.5l1.2-0.5l1.2-0.4l2.5-0.9l2.6-0.8l2.7-0.7l1.4-0.4l1.4-0.3l2.9-0.7l2.9-0.6l3-0.5l1.5-0.3l1.6-0.2l1.6-0.2l1.6-0.2
		l1.6-0.2l1.7-0.2l3.4-0.3l3.5-0.3l1.8-0.1l1.8-0.1l1.8-0.1l1.9-0.1l3.8-0.1l3.8-0.1l2,0h2l2,0l2.1,0l2.1,0l2.1,0.1l1.6,0.1l0.5-0.7
		l0.2-0.3l-0.8,1.1l0.2,0l-0.2,0.2l-0.2,0.2L295,143.8z"/>
</g>
</svg>