<?xml version="1.0" encoding="utf-8"?>
<!-- Generator: Adobe Illustrator 23.0.2, SVG Export Plug-In . SVG Version: 6.00 Build 0)  -->
<svg version="1.1" id="Layer_1" xmlns="http://www.w3.org/2000/svg" xmlns:xlink="http://www.w3.org/1999/xlink" x="0px" y="0px"
	 viewBox="0 0 229.2 69.6" style="enable-background:new 0 0 229.2 69.6;" xml:space="preserve">
<style type="text/css">
	.st0{display:none;}
	.st1{display:inline;}
	.st2{clip-path:url(#SVGID_2_);stroke:#FFFFFF;stroke-width:15;}
	.st3{clip-path:url(#SVGID_4_);fill:#FFFFFF;stroke:#FFFFFF;stroke-width:9;}
	.st4{clip-path:url(#SVGID_6_);fill:#FFFFFF;stroke:#FFFFFF;stroke-width:10;}
	.st5{clip-path:url(#SVGID_8_);fill:#FFFFFF;stroke:#FFFFFF;stroke-width:13;}
</style>
<g class="st0">
	<defs>
		<path id="SVGID_1_" d="M79.7,29.1C74.3,36,67.5,43.8,59.3,52.5c-7.1,7-11.8,11.2-13.8,12.6c-4.6,3.5-7.9,5.3-9.8,5.3h-0.4
			c-2.9,0-4.8-1-5.6-3c-0.1-0.5-0.2-0.8-0.2-1v-0.6c0-2.2,1.8-6.5,5.5-12.8l7.8-14.3c-11.4,10.8-19,18.3-23,22.1
			c-1.8,0-3.4-0.6-4.8-1.8c-0.6-0.7-0.9-1.7-0.9-2.9c0-2.3,1.8-6.5,5.4-12.6c8-14.7,13.4-24.7,16.3-30.1h-0.2
			c-5.9,0.7-13,4.1-21.1,10c-1.4,0.9-3.4,2.7-6,5.5V29c0.5,1.3,1.3,2.2,2.5,2.9c1.5,0.5,3,0.7,4.5,0.7c0.2,0,0.6,0,0.9,0.1
			c0,0.9-1.6,1.9-4.8,3.1c-1.7,0.5-3.1,0.7-4.2,0.7H6.9c-2.5,0-4.2-2.8-4.9-8.4c-0.1-0.3-0.1-0.8-0.1-1.6v-1.1
			c0-2.5,0.9-4.5,2.8-5.9c1.8-1.7,4.1-3.4,7-5.1c4-2.3,9.3-4.5,15.8-6.6C32.3,6.6,36.1,6,39,6c1.5,0.2,2.9,0.8,4,1.8
			c1.7,1.6,2.6,3.6,2.6,5.9c0,0.3-2.3,4.5-6.9,12.6c-0.8,1.5-4.3,8-10.6,19.4v0.1c7.8-7.3,15.2-14.3,22.1-20.9
			C56,14,59.2,7.7,59.5,6.1c1.4,0.2,2.7,0.7,4,1.7c1.8,1.5,2.7,3.6,2.7,6.2v0.1C49.7,44,41.2,59.4,40.8,60.4
			c1.8-1.6,4.3-4.2,7.7-7.8c9.4-10.6,18.4-22,27.2-34C82,9.8,85.6,3.9,86.4,1c0.1-0.4,0.1-0.8,0.1-1.1v-0.1c0.1-0.1,0.1-0.1,0.2-0.1
			c1.5,0.4,3.1,1.4,4.9,3C93.4,5,94.4,6.8,94.4,8C91.5,13.2,86.6,20.2,79.7,29.1z M125.8,40c-0.7,1.3-1.2,2.3-1.6,3
			c-0.6,1-1.2,2.3-2,3.8l-2.1,3.7c-1.8,3.2-3.2,5.7-4.1,7.6c-1.5,2.8-4.1,3.4-7.7,2c-1.5-0.6-2.8-1.4-4-2.5
			c-1.2-1.2-2.1-2.3-2.5-3.4l-3.6,6.6c-4.5-0.4-6.3-2.4-5.6-6c-1.1,0.8-2.1,1.5-3,2.1C86,59,83,60.3,80.9,60.6
			c-0.7,0.1-1.3,0.2-1.8,0.2h-0.4c-1.8,0-3.4-0.7-4.7-2c-1.4-1.8-2.1-4.1-2.1-6.6v-0.6c0-3.1,1.1-7,3.2-11.5
			c3.5-7.4,8.1-12.8,13.8-16.2c1-0.6,2-1,3-1.5c0.9-0.4,1.4-0.6,1.6-0.6c0.7,0,1.9,0.2,3.4,0.6c0.7,0.2,1.5,0.4,2.2,0.7
			c2.5,1.2,3.8,3,3.8,5.4v0.4c0,1.6-0.6,3.5-1.9,5.7c-2.3,3.7-5.4,6.8-9.5,9.4l-8.3,0.2c-0.7,0.9-1.2,1.7-1.6,2.4
			c-1.5,2.7-2.3,5-2.6,6.9c0.1,0.3,0.4,0.5,0.9,0.5H80c1.4,0,3.9-0.9,7.6-2.6c2.6-1.2,5.4-2.9,8.3-5.1c0.4-0.3,0.8-0.6,1.2-0.9
			c0.6-1.2,1.1-2,1.4-2.6c0.7-1.4,2.2-4.1,4.5-8.3l0.7-1.4l0.8-1.4l1.6-2.9c1.2-2.3,2.3-4.2,3.2-5.9c5.4-9.8,8-15.1,7.9-15.9
			c2,0.2,3.6,1,4.8,2.6c1.3,1.5,1.8,3.2,1.7,5.2l-11.9,21.5c0.9-0.8,2-1.8,3.3-3l1.7-1.5l1.7-1.6c2.6-2.4,4.6-4.2,6-5.4
			c4.6,0.4,6.4,2.6,5.4,6.6c-0.4,1.5-1.2,3.4-2.4,5.7l-0.8,1.5L125.8,40z M85.4,38.8l4,0.2c0.9-0.3,1.7-0.7,2.4-1.2
			c0.3-0.2,0.8-0.6,1.5-1.3c0.7-0.8,1.2-1.6,1.6-2.4c0.7-1.5,1.1-2.8,1.1-3.9c0-0.7-0.2-1.1-0.6-1.3h-0.2c-0.8,0.1-1.8,0.7-3.1,1.8
			c-1.3,1.2-2.2,2.1-2.9,2.8C87.7,35.4,86.4,37.1,85.4,38.8z M119.9,35.9l-13.6,11.5c-0.3,0.2-0.6,0.4-0.9,0.6l-0.4,0.6
			c0.2,1.7,0.7,3,1.5,4c0.9,1,1.8,1.4,3,1.1L119.9,35.9z M227.8,43.1v0.6c0,1.2-0.4,2.2-1.1,3h-0.1c-0.2-0.7-0.6-1.3-1.2-1.8
			c-0.7-0.3-1.3-0.5-1.8-0.5H223c-3.2,0-9.8,2.8-19.8,8.5c-9,5.2-14.8,7.8-17.3,7.8h-0.3c-3.4,0-5.6-1.9-6.7-5.6
			c-0.2-1.1-0.4-2.2-0.4-3.1v-0.5c0-1.4,0.2-3,0.6-4.6c-4.3,3.9-9,8.2-14.3,13c-0.6,0.6-0.9,0.8-0.9,0.8c-1.7,0-3.1-0.5-4.4-1.5
			c-0.7-0.8-1.1-1.7-1.1-2.6V56c0-1.7,1.3-5,4-9.8c-4.1,3.8-8.2,7.5-12.4,11.2c-2.3,2.2-3.6,3.3-3.7,3.3c-1.3,0-2.6-0.4-4-1.1
			c-1.2-0.8-1.8-1.9-1.8-3.2V56c0-2.2,1.5-5.8,4.4-10.9c0.7-1.2,1.4-2.5,2.2-3.9c-2.6,1.1-4.9,2.2-7,3.3c0.3,1.7,0.5,3.2,0.5,4.7
			v0.3c0,3.4-0.9,6.4-2.7,8.9c-1.5,1.6-3.2,2.4-5.3,2.4h-0.4c-1.9,0-3.7-0.7-5.3-2.2c-0.8-0.9-1.4-1.8-1.7-2.6
			c-0.3-0.9-0.5-1.8-0.5-2.5v-0.4c0-0.9,0.2-1.9,0.6-3c0-0.1,0.1-0.2,0.3-0.4c2.5-2,5-3.8,7.5-5.4c-2-3.7-3-6-3-6.9
			c0-0.2,0-0.6,0-1.1c0-3,1.6-6.3,4.8-9.8c1.6-1.6,2.8-2.7,3.7-3.2c1.7-1.3,3.6-2.5,5.6-3.5c1.1-0.6,2.1-1.1,2.9-1.4
			c1.7,0.6,3.3,1.9,4.6,4c0.4,0.6,0.7,1.3,1,2.1l0.2,0.4c-2.8,0.9-5,1.8-6.8,2.9c-4.9,2.8-7.4,6.2-7.4,10.2c0,0.9,0.1,1.8,0.4,2.8
			c4.9-2.9,8.8-4.9,11.6-6c0.8-1.5,1.7-3,2.7-4.7c1.6-3,2.4-4.9,2.5-5.9h0.1c1.2,0.1,2.5,0.6,3.7,1.5c1,0.9,1.6,1.6,1.8,2
			c0.7,1.3,1.1,2.5,1.1,3.7l-0.1,0.3v0.4c-0.2,0.4-1.6,2.9-4.2,7.5l-5.2,9.1l12.1-11.1c0.7-0.4,1.4-0.6,1.8-0.6h0.4l9-16.4h-0.1
			c-2.4,0-4.5,0.1-6.4,0.2c-0.4-0.2-0.7-0.5-0.9-0.9c-1,1.1-2.2,2.2-3.4,3.5c-2.1-0.3-3.9-0.7-5.4-1.2c-0.5-0.2-1-0.4-1.6-0.6v-0.1
			c2.3-5.4,3.6-8.5,4-9.3c1.5-0.2,2.9-0.3,4.2-0.3h1.2c2.7,0,5.3,0.3,7.8,0.8v0.1c-0.4,0.4-2.1,2.1-4.9,5.1l7.3-0.8
			c3-5.5,4.5-8.6,4.5-9.3c1.2,0,2.5,0.6,4.1,1.8c1.5,1.5,2.3,3.3,2.3,5.4c0,0.4-0.2,1-0.6,1.6c1.2-0.1,2-0.1,2.6-0.1h2.8
			c0.1,0,0.1,0.1,0.1,0.2c-1.2,2.8-1.9,4.3-1.9,4.3H192c-1.7-0.1-3.5-0.2-5.6-0.4l-16,28.7h0.1c7.9-7.4,12-11.1,12.1-11.2
			c0,0,0,0,0.1,0c0.7-1.4,1.6-2.9,2.5-4.4c1.1-1.6,2.6-3.4,4.5-5.4c2.2-2.2,4-3.6,5.4-4.3c1.4-0.9,3-1.8,4.9-2.5
			c0.2-0.1,0.3-0.1,0.4-0.1c1.8,0,3.8,0.5,5.9,1.4c2.5,1.2,3.7,3,3.7,5.5c0,3.2-2,6.9-6,11.2c-2.3,2.2-4.2,3.6-5.5,4.3
			c-0.4,0.1-0.7,0.1-0.7,0.1c-1.2,0-3.8,0-7.8,0.1c-2.1,2.8-3.5,6-4.2,9.4c0,0.3,0.6,0.6,1.7,0.7c0,0.1,0.2,0.1,0.7,0.1h0.5
			c0.1,0,0.1,0,0.2,0c3.1,0,7.8-2.7,13.8-8.1c5.1-4.6,8.7-7.5,10.9-8.8c2-1.1,3.7-1.7,5.1-1.7c4.1,0,7,1.7,8.6,5
			C227.7,41.5,227.8,42.4,227.8,43.1z M192.3,38.5c0.4,0,1.7,0,4.1,0.1c1.1-0.2,2.2-0.9,3.4-2c2.1-2.3,3.1-4.6,3.1-6.9
			c-0.1-0.8-0.3-1.2-0.7-1.2C199.4,29.3,196.1,32.7,192.3,38.5z M134.8,47.9c-0.7,0.5-1.6,1.3-2.7,2.3c-0.6,0.6-1,1.2-1.4,1.8
			c1.5-0.4,2.6-1,3.4-1.8c0.4-0.5,0.6-1,0.6-1.7L134.8,47.9L134.8,47.9z"/>
	</defs>
	<use xlink:href="#SVGID_1_"  style="display:inline;overflow:visible;"/>
	<clipPath id="SVGID_2_" class="st1">
		<use xlink:href="#SVGID_1_"  style="overflow:visible;"/>
	</clipPath>
	<path class="st2" d="M18.5,33.9c0,0-18.5,2.8-11.8-9.7c8-8.3,22.1-15.5,31.3-13.6c8.3,1-1,9.3-8.8,24.5
		c-5.8,11.2-14.1,20.2-10.7,22c1.7,0.9,12-8.3,21.3-20C49.5,24.8,58.2,9.6,61.2,9.5C67.8,9.3,49.9,35.4,40.8,52
		c-4.1,7.6-10.7,14.2-6.7,15.5C38,68.8,49.2,64,83,15.7c1.6-2.3,7-10.5,8.6-13"/>
</g>
<g>
	<defs>
		<path id="SVGID_3_" d="M79.7,29.1C74.3,36,67.5,43.8,59.3,52.5c-7.1,7-11.8,11.2-13.8,12.6c-4.6,3.5-7.9,5.3-9.8,5.3h-0.4
			c-2.9,0-4.8-1-5.6-3c-0.1-0.5-0.2-0.8-0.2-1v-0.6c0-2.2,1.8-6.5,5.5-12.8l7.8-14.3c-11.4,10.8-19,18.3-23,22.1
			c-1.8,0-3.4-0.6-4.8-1.8c-0.6-0.7-0.9-1.7-0.9-2.9c0-2.3,1.8-6.5,5.4-12.6c8-14.7,13.4-24.7,16.3-30.1h-0.2
			c-5.9,0.7-13,4.1-21.1,10c-1.4,0.9-3.4,2.7-6,5.5V29c0.5,1.3,1.3,2.2,2.5,2.9c1.5,0.5,3,0.7,4.5,0.7c0.2,0,0.6,0,0.9,0.1
			c0,0.9-1.6,1.9-4.8,3.1c-1.7,0.5-3.1,0.7-4.2,0.7H6.9c-2.5,0-4.2-2.8-4.9-8.4c-0.1-0.3-0.1-0.8-0.1-1.6v-1.1
			c0-2.5,0.9-4.5,2.8-5.9c1.8-1.7,4.1-3.4,7-5.1c4-2.3,9.3-4.5,15.8-6.6C32.3,6.6,36.1,6,39,6c1.5,0.2,2.9,0.8,4,1.8
			c1.7,1.6,2.6,3.6,2.6,5.9c0,0.3-2.3,4.5-6.9,12.6c-0.8,1.5-4.3,8-10.6,19.4v0.1c7.8-7.3,15.2-14.3,22.1-20.9
			C56,14,59.2,7.7,59.5,6.1c1.4,0.2,2.7,0.7,4,1.7c1.8,1.5,2.7,3.6,2.7,6.2v0.1C49.7,44,41.2,59.4,40.8,60.4
			c1.8-1.6,4.3-4.2,7.7-7.8c9.4-10.6,18.4-22,27.2-34C82,9.8,85.6,3.9,86.4,1c0.1-0.4,0.1-0.8,0.1-1.1v-0.1c0.1-0.1,0.1-0.1,0.2-0.1
			c1.5,0.4,3.1,1.4,4.9,3C93.4,5,94.4,6.8,94.4,8C91.5,13.2,86.6,20.2,79.7,29.1z M125.8,40c-0.7,1.3-1.2,2.3-1.6,3
			c-0.6,1-1.2,2.3-2,3.8l-2.1,3.7c-1.8,3.2-3.2,5.7-4.1,7.6c-1.5,2.8-4.1,3.4-7.7,2c-1.5-0.6-2.8-1.4-4-2.5
			c-1.2-1.2-2.1-2.3-2.5-3.4l-3.6,6.6c-4.5-0.4-6.3-2.4-5.6-6c-1.1,0.8-2.1,1.5-3,2.1C86,59,83,60.3,80.9,60.6
			c-0.7,0.1-1.3,0.2-1.8,0.2h-0.4c-1.8,0-3.4-0.7-4.7-2c-1.4-1.8-2.1-4.1-2.1-6.6v-0.6c0-3.1,1.1-7,3.2-11.5
			c3.5-7.4,8.1-12.8,13.8-16.2c1-0.6,2-1,3-1.5c0.9-0.4,1.4-0.6,1.6-0.6c0.7,0,1.9,0.2,3.4,0.6c0.7,0.2,1.5,0.4,2.2,0.7
			c2.5,1.2,3.8,3,3.8,5.4v0.4c0,1.6-0.6,3.5-1.9,5.7c-2.3,3.7-5.4,6.8-9.5,9.4l-8.3,0.2c-0.7,0.9-1.2,1.7-1.6,2.4
			c-1.5,2.7-2.3,5-2.6,6.9c0.1,0.3,0.4,0.5,0.9,0.5H80c1.4,0,3.9-0.9,7.6-2.6c2.6-1.2,5.4-2.9,8.3-5.1c0.4-0.3,0.8-0.6,1.2-0.9
			c0.6-1.2,1.1-2,1.4-2.6c0.7-1.4,2.2-4.1,4.5-8.3l0.7-1.4l0.8-1.4l1.6-2.9c1.2-2.3,2.3-4.2,3.2-5.9c5.4-9.8,8-15.1,7.9-15.9
			c2,0.2,3.6,1,4.8,2.6c1.3,1.5,1.8,3.2,1.7,5.2l-11.9,21.5c0.9-0.8,2-1.8,3.3-3l1.7-1.5l1.7-1.6c2.6-2.4,4.6-4.2,6-5.4
			c4.6,0.4,6.4,2.6,5.4,6.6c-0.4,1.5-1.2,3.4-2.4,5.7l-0.8,1.5L125.8,40z M85.4,38.8l4,0.2c0.9-0.3,1.7-0.7,2.4-1.2
			c0.3-0.2,0.8-0.6,1.5-1.3c0.7-0.8,1.2-1.6,1.6-2.4c0.7-1.5,1.1-2.8,1.1-3.9c0-0.7-0.2-1.1-0.6-1.3h-0.2c-0.8,0.1-1.8,0.7-3.1,1.8
			c-1.3,1.2-2.2,2.1-2.9,2.8C87.7,35.4,86.4,37.1,85.4,38.8z M119.9,35.9l-13.6,11.5c-0.3,0.2-0.6,0.4-0.9,0.6l-0.4,0.6
			c0.2,1.7,0.7,3,1.5,4c0.9,1,1.8,1.4,3,1.1L119.9,35.9z M227.8,43.1v0.6c0,1.2-0.4,2.2-1.1,3h-0.1c-0.2-0.7-0.6-1.3-1.2-1.8
			c-0.7-0.3-1.3-0.5-1.8-0.5H223c-3.2,0-9.8,2.8-19.8,8.5c-9,5.2-14.8,7.8-17.3,7.8h-0.3c-3.4,0-5.6-1.9-6.7-5.6
			c-0.2-1.1-0.4-2.2-0.4-3.1v-0.5c0-1.4,0.2-3,0.6-4.6c-4.3,3.9-9,8.2-14.3,13c-0.6,0.6-0.9,0.8-0.9,0.8c-1.7,0-3.1-0.5-4.4-1.5
			c-0.7-0.8-1.1-1.7-1.1-2.6V56c0-1.7,1.3-5,4-9.8c-4.1,3.8-8.2,7.5-12.4,11.2c-2.3,2.2-3.6,3.3-3.7,3.3c-1.3,0-2.6-0.4-4-1.1
			c-1.2-0.8-1.8-1.9-1.8-3.2V56c0-2.2,1.5-5.8,4.4-10.9c0.7-1.2,1.4-2.5,2.2-3.9c-2.6,1.1-4.9,2.2-7,3.3c0.3,1.7,0.5,3.2,0.5,4.7
			v0.3c0,3.4-0.9,6.4-2.7,8.9c-1.5,1.6-3.2,2.4-5.3,2.4h-0.4c-1.9,0-3.7-0.7-5.3-2.2c-0.8-0.9-1.4-1.8-1.7-2.6
			c-0.3-0.9-0.5-1.8-0.5-2.5v-0.4c0-0.9,0.2-1.9,0.6-3c0-0.1,0.1-0.2,0.3-0.4c2.5-2,5-3.8,7.5-5.4c-2-3.7-3-6-3-6.9
			c0-0.2,0-0.6,0-1.1c0-3,1.6-6.3,4.8-9.8c1.6-1.6,2.8-2.7,3.7-3.2c1.7-1.3,3.6-2.5,5.6-3.5c1.1-0.6,2.1-1.1,2.9-1.4
			c1.7,0.6,3.3,1.9,4.6,4c0.4,0.6,0.7,1.3,1,2.1l0.2,0.4c-2.8,0.9-5,1.8-6.8,2.9c-4.9,2.8-7.4,6.2-7.4,10.2c0,0.9,0.1,1.8,0.4,2.8
			c4.9-2.9,8.8-4.9,11.6-6c0.8-1.5,1.7-3,2.7-4.7c1.6-3,2.4-4.9,2.5-5.9h0.1c1.2,0.1,2.5,0.6,3.7,1.5c1,0.9,1.6,1.6,1.8,2
			c0.7,1.3,1.1,2.5,1.1,3.7l-0.1,0.3v0.4c-0.2,0.4-1.6,2.9-4.2,7.5l-5.2,9.1l12.1-11.1c0.7-0.4,1.4-0.6,1.8-0.6h0.4l9-16.4h-0.1
			c-2.4,0-4.5,0.1-6.4,0.2c-0.4-0.2-0.7-0.5-0.9-0.9c-1,1.1-2.2,2.2-3.4,3.5c-2.1-0.3-3.9-0.7-5.4-1.2c-0.5-0.2-1-0.4-1.6-0.6v-0.1
			c2.3-5.4,3.6-8.5,4-9.3c1.5-0.2,2.9-0.3,4.2-0.3h1.2c2.7,0,5.3,0.3,7.8,0.8v0.1c-0.4,0.4-2.1,2.1-4.9,5.1l7.3-0.8
			c3-5.5,4.5-8.6,4.5-9.3c1.2,0,2.5,0.6,4.1,1.8c1.5,1.5,2.3,3.3,2.3,5.4c0,0.4-0.2,1-0.6,1.6c1.2-0.1,2-0.1,2.6-0.1h2.8
			c0.1,0,0.1,0.1,0.1,0.2c-1.2,2.8-1.9,4.3-1.9,4.3H192c-1.7-0.1-3.5-0.2-5.6-0.4l-16,28.7h0.1c7.9-7.4,12-11.1,12.1-11.2
			c0,0,0,0,0.1,0c0.7-1.4,1.6-2.9,2.5-4.4c1.1-1.6,2.6-3.4,4.5-5.4c2.2-2.2,4-3.6,5.4-4.3c1.4-0.9,3-1.8,4.9-2.5
			c0.2-0.1,0.3-0.1,0.4-0.1c1.8,0,3.8,0.5,5.9,1.4c2.5,1.2,3.7,3,3.7,5.5c0,3.2-2,6.9-6,11.2c-2.3,2.2-4.2,3.6-5.5,4.3
			c-0.4,0.1-0.7,0.1-0.7,0.1c-1.2,0-3.8,0-7.8,0.1c-2.1,2.8-3.5,6-4.2,9.4c0,0.3,0.6,0.6,1.7,0.7c0,0.1,0.2,0.1,0.7,0.1h0.5
			c0.1,0,0.1,0,0.2,0c3.1,0,7.8-2.7,13.8-8.1c5.1-4.6,8.7-7.5,10.9-8.8c2-1.1,3.7-1.7,5.1-1.7c4.1,0,7,1.7,8.6,5
			C227.7,41.5,227.8,42.4,227.8,43.1z M192.3,38.5c0.4,0,1.7,0,4.1,0.1c1.1-0.2,2.2-0.9,3.4-2c2.1-2.3,3.1-4.6,3.1-6.9
			c-0.1-0.8-0.3-1.2-0.7-1.2C199.4,29.3,196.1,32.7,192.3,38.5z M134.8,47.9c-0.7,0.5-1.6,1.3-2.7,2.3c-0.6,0.6-1,1.2-1.4,1.8
			c1.5-0.4,2.6-1,3.4-1.8c0.4-0.5,0.6-1,0.6-1.7L134.8,47.9L134.8,47.9z"/>
	</defs>
	<use xlink:href="#SVGID_3_"  style="overflow:visible;fill:#C63239;"/>
	<clipPath id="SVGID_4_">
		<use xlink:href="#SVGID_3_"  style="overflow:visible;"/>
	</clipPath>
	<path class="st3" d="M85.4,41.5c0,0,18.1-5.6,13.3-15.8c-2.9-6.2-9,0.9-15.5,8.2c0,0-25.5,39.2,14.2,16c0,0,24.4-22.3,28.5-21
		c1.6,1.1-4.1,11-8,19c-2.7,5.6-3,10.8-5.6,9.4c-24,0.3,15.1-45.9,9.2-48.1S94.4,63,94.4,63"/>
</g>
<g>
	<defs>
		<path id="SVGID_5_" d="M79.7,29.1C74.3,36,67.5,43.8,59.3,52.5c-7.1,7-11.8,11.2-13.8,12.6c-4.6,3.5-7.9,5.3-9.8,5.3h-0.4
			c-2.9,0-4.8-1-5.6-3c-0.1-0.5-0.2-0.8-0.2-1v-0.6c0-2.2,1.8-6.5,5.5-12.8l7.8-14.3c-11.4,10.8-19,18.3-23,22.1
			c-1.8,0-3.4-0.6-4.8-1.8c-0.6-0.7-0.9-1.7-0.9-2.9c0-2.3,1.8-6.5,5.4-12.6c8-14.7,13.4-24.7,16.3-30.1h-0.2
			c-5.9,0.7-13,4.1-21.1,10c-1.4,0.9-3.4,2.7-6,5.5V29c0.5,1.3,1.3,2.2,2.5,2.9c1.5,0.5,3,0.7,4.5,0.7c0.2,0,0.6,0,0.9,0.1
			c0,0.9-1.6,1.9-4.8,3.1c-1.7,0.5-3.1,0.7-4.2,0.7H6.9c-2.5,0-4.2-2.8-4.9-8.4c-0.1-0.3-0.1-0.8-0.1-1.6v-1.1
			c0-2.5,0.9-4.5,2.8-5.9c1.8-1.7,4.1-3.4,7-5.1c4-2.3,9.3-4.5,15.8-6.6C32.3,6.6,36.1,6,39,6c1.5,0.2,2.9,0.8,4,1.8
			c1.7,1.6,2.6,3.6,2.6,5.9c0,0.3-2.3,4.5-6.9,12.6c-0.8,1.5-4.3,8-10.6,19.4v0.1c7.8-7.3,15.2-14.3,22.1-20.9
			C56,14,59.2,7.7,59.5,6.1c1.4,0.2,2.7,0.7,4,1.7c1.8,1.5,2.7,3.6,2.7,6.2v0.1C49.7,44,41.2,59.4,40.8,60.4
			c1.8-1.6,4.3-4.2,7.7-7.8c9.4-10.6,18.4-22,27.2-34C82,9.8,85.6,3.9,86.4,1c0.1-0.4,0.1-0.8,0.1-1.1v-0.1c0.1-0.1,0.1-0.1,0.2-0.1
			c1.5,0.4,3.1,1.4,4.9,3C93.4,5,94.4,6.8,94.4,8C91.5,13.2,86.6,20.2,79.7,29.1z M125.8,40c-0.7,1.3-1.2,2.3-1.6,3
			c-0.6,1-1.2,2.3-2,3.8l-2.1,3.7c-1.8,3.2-3.2,5.7-4.1,7.6c-1.5,2.8-4.1,3.4-7.7,2c-1.5-0.6-2.8-1.4-4-2.5
			c-1.2-1.2-2.1-2.3-2.5-3.4l-3.6,6.6c-4.5-0.4-6.3-2.4-5.6-6c-1.1,0.8-2.1,1.5-3,2.1C86,59,83,60.3,80.9,60.6
			c-0.7,0.1-1.3,0.2-1.8,0.2h-0.4c-1.8,0-3.4-0.7-4.7-2c-1.4-1.8-2.1-4.1-2.1-6.6v-0.6c0-3.1,1.1-7,3.2-11.5
			c3.5-7.4,8.1-12.8,13.8-16.2c1-0.6,2-1,3-1.5c0.9-0.4,1.4-0.6,1.6-0.6c0.7,0,1.9,0.2,3.4,0.6c0.7,0.2,1.5,0.4,2.2,0.7
			c2.5,1.2,3.8,3,3.8,5.4v0.4c0,1.6-0.6,3.5-1.9,5.7c-2.3,3.7-5.4,6.8-9.5,9.4l-8.3,0.2c-0.7,0.9-1.2,1.7-1.6,2.4
			c-1.5,2.7-2.3,5-2.6,6.9c0.1,0.3,0.4,0.5,0.9,0.5H80c1.4,0,3.9-0.9,7.6-2.6c2.6-1.2,5.4-2.9,8.3-5.1c0.4-0.3,0.8-0.6,1.2-0.9
			c0.6-1.2,1.1-2,1.4-2.6c0.7-1.4,2.2-4.1,4.5-8.3l0.7-1.4l0.8-1.4l1.6-2.9c1.2-2.3,2.3-4.2,3.2-5.9c5.4-9.8,8-15.1,7.9-15.9
			c2,0.2,3.6,1,4.8,2.6c1.3,1.5,1.8,3.2,1.7,5.2l-11.9,21.5c0.9-0.8,2-1.8,3.3-3l1.7-1.5l1.7-1.6c2.6-2.4,4.6-4.2,6-5.4
			c4.6,0.4,6.4,2.6,5.4,6.6c-0.4,1.5-1.2,3.4-2.4,5.7l-0.8,1.5L125.8,40z M85.4,38.8l4,0.2c0.9-0.3,1.7-0.7,2.4-1.2
			c0.3-0.2,0.8-0.6,1.5-1.3c0.7-0.8,1.2-1.6,1.6-2.4c0.7-1.5,1.1-2.8,1.1-3.9c0-0.7-0.2-1.1-0.6-1.3h-0.2c-0.8,0.1-1.8,0.7-3.1,1.8
			c-1.3,1.2-2.2,2.1-2.9,2.8C87.7,35.4,86.4,37.1,85.4,38.8z M119.9,35.9l-13.6,11.5c-0.3,0.2-0.6,0.4-0.9,0.6l-0.4,0.6
			c0.2,1.7,0.7,3,1.5,4c0.9,1,1.8,1.4,3,1.1L119.9,35.9z M227.8,43.1v0.6c0,1.2-0.4,2.2-1.1,3h-0.1c-0.2-0.7-0.6-1.3-1.2-1.8
			c-0.7-0.3-1.3-0.5-1.8-0.5H223c-3.2,0-9.8,2.8-19.8,8.5c-9,5.2-14.8,7.8-17.3,7.8h-0.3c-3.4,0-5.6-1.9-6.7-5.6
			c-0.2-1.1-0.4-2.2-0.4-3.1v-0.5c0-1.4,0.2-3,0.6-4.6c-4.3,3.9-9,8.2-14.3,13c-0.6,0.6-0.9,0.8-0.9,0.8c-1.7,0-3.1-0.5-4.4-1.5
			c-0.7-0.8-1.1-1.7-1.1-2.6V56c0-1.7,1.3-5,4-9.8c-4.1,3.8-8.2,7.5-12.4,11.2c-2.3,2.2-3.6,3.3-3.7,3.3c-1.3,0-2.6-0.4-4-1.1
			c-1.2-0.8-1.8-1.9-1.8-3.2V56c0-2.2,1.5-5.8,4.4-10.9c0.7-1.2,1.4-2.5,2.2-3.9c-2.6,1.1-4.9,2.2-7,3.3c0.3,1.7,0.5,3.2,0.5,4.7
			v0.3c0,3.4-0.9,6.4-2.7,8.9c-1.5,1.6-3.2,2.4-5.3,2.4h-0.4c-1.9,0-3.7-0.7-5.3-2.2c-0.8-0.9-1.4-1.8-1.7-2.6
			c-0.3-0.9-0.5-1.8-0.5-2.5v-0.4c0-0.9,0.2-1.9,0.6-3c0-0.1,0.1-0.2,0.3-0.4c2.5-2,5-3.8,7.5-5.4c-2-3.7-3-6-3-6.9
			c0-0.2,0-0.6,0-1.1c0-3,1.6-6.3,4.8-9.8c1.6-1.6,2.8-2.7,3.7-3.2c1.7-1.3,3.6-2.5,5.6-3.5c1.1-0.6,2.1-1.1,2.9-1.4
			c1.7,0.6,3.3,1.9,4.6,4c0.4,0.6,0.7,1.3,1,2.1l0.2,0.4c-2.8,0.9-5,1.8-6.8,2.9c-4.9,2.8-7.4,6.2-7.4,10.2c0,0.9,0.1,1.8,0.4,2.8
			c4.9-2.9,8.8-4.9,11.6-6c0.8-1.5,1.7-3,2.7-4.7c1.6-3,2.4-4.9,2.5-5.9h0.1c1.2,0.1,2.5,0.6,3.7,1.5c1,0.9,1.6,1.6,1.8,2
			c0.7,1.3,1.1,2.5,1.1,3.7l-0.1,0.3v0.4c-0.2,0.4-1.6,2.9-4.2,7.5l-5.2,9.1l12.1-11.1c0.7-0.4,1.4-0.6,1.8-0.6h0.4l9-16.4h-0.1
			c-2.4,0-4.5,0.1-6.4,0.2c-0.4-0.2-0.7-0.5-0.9-0.9c-1,1.1-2.2,2.2-3.4,3.5c-2.1-0.3-3.9-0.7-5.4-1.2c-0.5-0.2-1-0.4-1.6-0.6v-0.1
			c2.3-5.4,3.6-8.5,4-9.3c1.5-0.2,2.9-0.3,4.2-0.3h1.2c2.7,0,5.3,0.3,7.8,0.8v0.1c-0.4,0.4-2.1,2.1-4.9,5.1l7.3-0.8
			c3-5.5,4.5-8.6,4.5-9.3c1.2,0,2.5,0.6,4.1,1.8c1.5,1.5,2.3,3.3,2.3,5.4c0,0.4-0.2,1-0.6,1.6c1.2-0.1,2-0.1,2.6-0.1h2.8
			c0.1,0,0.1,0.1,0.1,0.2c-1.2,2.8-1.9,4.3-1.9,4.3H192c-1.7-0.1-3.5-0.2-5.6-0.4l-16,28.7h0.1c7.9-7.4,12-11.1,12.1-11.2
			c0,0,0,0,0.1,0c0.7-1.4,1.6-2.9,2.5-4.4c1.1-1.6,2.6-3.4,4.5-5.4c2.2-2.2,4-3.6,5.4-4.3c1.4-0.9,3-1.8,4.9-2.5
			c0.2-0.1,0.3-0.1,0.4-0.1c1.8,0,3.8,0.5,5.9,1.4c2.5,1.2,3.7,3,3.7,5.5c0,3.2-2,6.9-6,11.2c-2.3,2.2-4.2,3.6-5.5,4.3
			c-0.4,0.1-0.7,0.1-0.7,0.1c-1.2,0-3.8,0-7.8,0.1c-2.1,2.8-3.5,6-4.2,9.4c0,0.3,0.6,0.6,1.7,0.7c0,0.1,0.2,0.1,0.7,0.1h0.5
			c0.1,0,0.1,0,0.2,0c3.1,0,7.8-2.7,13.8-8.1c5.1-4.6,8.7-7.5,10.9-8.8c2-1.1,3.7-1.7,5.1-1.7c4.1,0,7,1.7,8.6,5
			C227.7,41.5,227.8,42.4,227.8,43.1z M192.3,38.5c0.4,0,1.7,0,4.1,0.1c1.1-0.2,2.2-0.9,3.4-2c2.1-2.3,3.1-4.6,3.1-6.9
			c-0.1-0.8-0.3-1.2-0.7-1.2C199.4,29.3,196.1,32.7,192.3,38.5z M134.8,47.9c-0.7,0.5-1.6,1.3-2.7,2.3c-0.6,0.6-1,1.2-1.4,1.8
			c1.5-0.4,2.6-1,3.4-1.8c0.4-0.5,0.6-1,0.6-1.7L134.8,47.9L134.8,47.9z"/>
	</defs>
	<use xlink:href="#SVGID_5_"  style="overflow:visible;fill:#668910;"/>
	<clipPath id="SVGID_6_">
		<use xlink:href="#SVGID_5_"  style="overflow:visible;"/>
	</clipPath>
	<path class="st4" d="M150.2,20.5c0,0-12.2,6.2-14.2,11.2s-4.1,5,0.4,13.1c0.9,2.3,0.8,4.9-0.2,7.2c-1.8,3.5-2,9.8-7.8,5.8
		s5.7-15.8,21.7-20.2c0,0,4.4-4.3,8.5-8.6s-17.5,26-15.9,31.9l30.6-25.6l12.6-26.1c0,0-28,50.4-25.1,51S178.8,38,195.5,41
		c0,0,20.9-14.3,5-15.8c0,0-26.5,15.2-17,31.2c0,0,8.5,3,18-4.5s22.5-21.2,24.8-4.1"/>
</g>
<g>
	<defs>
		<path id="SVGID_7_" d="M79.7,29.1C74.3,36,67.5,43.8,59.3,52.5c-7.1,7-11.8,11.2-13.8,12.6c-4.6,3.5-7.9,5.3-9.8,5.3h-0.4
			c-2.9,0-4.8-1-5.6-3c-0.1-0.5-0.2-0.8-0.2-1v-0.6c0-2.2,1.8-6.5,5.5-12.8l7.8-14.3c-11.4,10.8-19,18.3-23,22.1
			c-1.8,0-3.4-0.6-4.8-1.8c-0.6-0.7-0.9-1.7-0.9-2.9c0-2.3,1.8-6.5,5.4-12.6c8-14.7,13.4-24.7,16.3-30.1h-0.2
			c-5.9,0.7-13,4.1-21.1,10c-1.4,0.9-3.4,2.7-6,5.5V29c0.5,1.3,1.3,2.2,2.5,2.9c1.5,0.5,3,0.7,4.5,0.7c0.2,0,0.6,0,0.9,0.1
			c0,0.9-1.6,1.9-4.8,3.1c-1.7,0.5-3.1,0.7-4.2,0.7H6.9c-2.5,0-4.2-2.8-4.9-8.4c-0.1-0.3-0.1-0.8-0.1-1.6v-1.1
			c0-2.5,0.9-4.5,2.8-5.9c1.8-1.7,4.1-3.4,7-5.1c4-2.3,9.3-4.5,15.8-6.6C32.3,6.6,36.1,6,39,6c1.5,0.2,2.9,0.8,4,1.8
			c1.7,1.6,2.6,3.6,2.6,5.9c0,0.3-2.3,4.5-6.9,12.6c-0.8,1.5-4.3,8-10.6,19.4v0.1c7.8-7.3,15.2-14.3,22.1-20.9
			C56,14,59.2,7.7,59.5,6.1c1.4,0.2,2.7,0.7,4,1.7c1.8,1.5,2.7,3.6,2.7,6.2v0.1C49.7,44,41.2,59.4,40.8,60.4
			c1.8-1.6,4.3-4.2,7.7-7.8c9.4-10.6,18.4-22,27.2-34C82,9.8,85.6,3.9,86.4,1c0.1-0.4,0.1-0.8,0.1-1.1v-0.1c0.1-0.1,0.1-0.1,0.2-0.1
			c1.5,0.4,3.1,1.4,4.9,3C93.4,5,94.4,6.8,94.4,8C91.5,13.2,86.6,20.2,79.7,29.1z M125.8,40c-0.7,1.3-1.2,2.3-1.6,3
			c-0.6,1-1.2,2.3-2,3.8l-2.1,3.7c-1.8,3.2-3.2,5.7-4.1,7.6c-1.5,2.8-4.1,3.4-7.7,2c-1.5-0.6-2.8-1.4-4-2.5
			c-1.2-1.2-2.1-2.3-2.5-3.4l-3.6,6.6c-4.5-0.4-6.3-2.4-5.6-6c-1.1,0.8-2.1,1.5-3,2.1C86,59,83,60.3,80.9,60.6
			c-0.7,0.1-1.3,0.2-1.8,0.2h-0.4c-1.8,0-3.4-0.7-4.7-2c-1.4-1.8-2.1-4.1-2.1-6.6v-0.6c0-3.1,1.1-7,3.2-11.5
			c3.5-7.4,8.1-12.8,13.8-16.2c1-0.6,2-1,3-1.5c0.9-0.4,1.4-0.6,1.6-0.6c0.7,0,1.9,0.2,3.4,0.6c0.7,0.2,1.5,0.4,2.2,0.7
			c2.5,1.2,3.8,3,3.8,5.4v0.4c0,1.6-0.6,3.5-1.9,5.7c-2.3,3.7-5.4,6.8-9.5,9.4l-8.3,0.2c-0.7,0.9-1.2,1.7-1.6,2.4
			c-1.5,2.7-2.3,5-2.6,6.9c0.1,0.3,0.4,0.5,0.9,0.5H80c1.4,0,3.9-0.9,7.6-2.6c2.6-1.2,5.4-2.9,8.3-5.1c0.4-0.3,0.8-0.6,1.2-0.9
			c0.6-1.2,1.1-2,1.4-2.6c0.7-1.4,2.2-4.1,4.5-8.3l0.7-1.4l0.8-1.4l1.6-2.9c1.2-2.3,2.3-4.2,3.2-5.9c5.4-9.8,8-15.1,7.9-15.9
			c2,0.2,3.6,1,4.8,2.6c1.3,1.5,1.8,3.2,1.7,5.2l-11.9,21.5c0.9-0.8,2-1.8,3.3-3l1.7-1.5l1.7-1.6c2.6-2.4,4.6-4.2,6-5.4
			c4.6,0.4,6.4,2.6,5.4,6.6c-0.4,1.5-1.2,3.4-2.4,5.7l-0.8,1.5L125.8,40z M85.4,38.8l4,0.2c0.9-0.3,1.7-0.7,2.4-1.2
			c0.3-0.2,0.8-0.6,1.5-1.3c0.7-0.8,1.2-1.6,1.6-2.4c0.7-1.5,1.1-2.8,1.1-3.9c0-0.7-0.2-1.1-0.6-1.3h-0.2c-0.8,0.1-1.8,0.7-3.1,1.8
			c-1.3,1.2-2.2,2.1-2.9,2.8C87.7,35.4,86.4,37.1,85.4,38.8z M119.9,35.9l-13.6,11.5c-0.3,0.2-0.6,0.4-0.9,0.6l-0.4,0.6
			c0.2,1.7,0.7,3,1.5,4c0.9,1,1.8,1.4,3,1.1L119.9,35.9z M227.8,43.1v0.6c0,1.2-0.4,2.2-1.1,3h-0.1c-0.2-0.7-0.6-1.3-1.2-1.8
			c-0.7-0.3-1.3-0.5-1.8-0.5H223c-3.2,0-9.8,2.8-19.8,8.5c-9,5.2-14.8,7.8-17.3,7.8h-0.3c-3.4,0-5.6-1.9-6.7-5.6
			c-0.2-1.1-0.4-2.2-0.4-3.1v-0.5c0-1.4,0.2-3,0.6-4.6c-4.3,3.9-9,8.2-14.3,13c-0.6,0.6-0.9,0.8-0.9,0.8c-1.7,0-3.1-0.5-4.4-1.5
			c-0.7-0.8-1.1-1.7-1.1-2.6V56c0-1.7,1.3-5,4-9.8c-4.1,3.8-8.2,7.5-12.4,11.2c-2.3,2.2-3.6,3.3-3.7,3.3c-1.3,0-2.6-0.4-4-1.1
			c-1.2-0.8-1.8-1.9-1.8-3.2V56c0-2.2,1.5-5.8,4.4-10.9c0.7-1.2,1.4-2.5,2.2-3.9c-2.6,1.1-4.9,2.2-7,3.3c0.3,1.7,0.5,3.2,0.5,4.7
			v0.3c0,3.4-0.9,6.4-2.7,8.9c-1.5,1.6-3.2,2.4-5.3,2.4h-0.4c-1.9,0-3.7-0.7-5.3-2.2c-0.8-0.9-1.4-1.8-1.7-2.6
			c-0.3-0.9-0.5-1.8-0.5-2.5v-0.4c0-0.9,0.2-1.9,0.6-3c0-0.1,0.1-0.2,0.3-0.4c2.5-2,5-3.8,7.5-5.4c-2-3.7-3-6-3-6.9
			c0-0.2,0-0.6,0-1.1c0-3,1.6-6.3,4.8-9.8c1.6-1.6,2.8-2.7,3.7-3.2c1.7-1.3,3.6-2.5,5.6-3.5c1.1-0.6,2.1-1.1,2.9-1.4
			c1.7,0.6,3.3,1.9,4.6,4c0.4,0.6,0.7,1.3,1,2.1l0.2,0.4c-2.8,0.9-5,1.8-6.8,2.9c-4.9,2.8-7.4,6.2-7.4,10.2c0,0.9,0.1,1.8,0.4,2.8
			c4.9-2.9,8.8-4.9,11.6-6c0.8-1.5,1.7-3,2.7-4.7c1.6-3,2.4-4.9,2.5-5.9h0.1c1.2,0.1,2.5,0.6,3.7,1.5c1,0.9,1.6,1.6,1.8,2
			c0.7,1.3,1.1,2.5,1.1,3.7l-0.1,0.3v0.4c-0.2,0.4-1.6,2.9-4.2,7.5l-5.2,9.1l12.1-11.1c0.7-0.4,1.4-0.6,1.8-0.6h0.4l9-16.4h-0.1
			c-2.4,0-4.5,0.1-6.4,0.2c-0.4-0.2-0.7-0.5-0.9-0.9c-1,1.1-2.2,2.2-3.4,3.5c-2.1-0.3-3.9-0.7-5.4-1.2c-0.5-0.2-1-0.4-1.6-0.6v-0.1
			c2.3-5.4,3.6-8.5,4-9.3c1.5-0.2,2.9-0.3,4.2-0.3h1.2c2.7,0,5.3,0.3,7.8,0.8v0.1c-0.4,0.4-2.1,2.1-4.9,5.1l7.3-0.8
			c3-5.5,4.5-8.6,4.5-9.3c1.2,0,2.5,0.6,4.1,1.8c1.5,1.5,2.3,3.3,2.3,5.4c0,0.4-0.2,1-0.6,1.6c1.2-0.1,2-0.1,2.6-0.1h2.8
			c0.1,0,0.1,0.1,0.1,0.2c-1.2,2.8-1.9,4.3-1.9,4.3H192c-1.7-0.1-3.5-0.2-5.6-0.4l-16,28.7h0.1c7.9-7.4,12-11.1,12.1-11.2
			c0,0,0,0,0.1,0c0.7-1.4,1.6-2.9,2.5-4.4c1.1-1.6,2.6-3.4,4.5-5.4c2.2-2.2,4-3.6,5.4-4.3c1.4-0.9,3-1.8,4.9-2.5
			c0.2-0.1,0.3-0.1,0.4-0.1c1.8,0,3.8,0.5,5.9,1.4c2.5,1.2,3.7,3,3.7,5.5c0,3.2-2,6.9-6,11.2c-2.3,2.2-4.2,3.6-5.5,4.3
			c-0.4,0.1-0.7,0.1-0.7,0.1c-1.2,0-3.8,0-7.8,0.1c-2.1,2.8-3.5,6-4.2,9.4c0,0.3,0.6,0.6,1.7,0.7c0,0.1,0.2,0.1,0.7,0.1h0.5
			c0.1,0,0.1,0,0.2,0c3.1,0,7.8-2.7,13.8-8.1c5.1-4.6,8.7-7.5,10.9-8.8c2-1.1,3.7-1.7,5.1-1.7c4.1,0,7,1.7,8.6,5
			C227.7,41.5,227.8,42.4,227.8,43.1z M192.3,38.5c0.4,0,1.7,0,4.1,0.1c1.1-0.2,2.2-0.9,3.4-2c2.1-2.3,3.1-4.6,3.1-6.9
			c-0.1-0.8-0.3-1.2-0.7-1.2C199.4,29.3,196.1,32.7,192.3,38.5z M134.8,47.9c-0.7,0.5-1.6,1.3-2.7,2.3c-0.6,0.6-1,1.2-1.4,1.8
			c1.5-0.4,2.6-1,3.4-1.8c0.4-0.5,0.6-1,0.6-1.7L134.8,47.9L134.8,47.9z"/>
	</defs>
	<use xlink:href="#SVGID_7_"  style="overflow:visible;fill:#D45AE5;"/>
	<clipPath id="SVGID_8_">
		<use xlink:href="#SVGID_7_"  style="overflow:visible;"/>
	</clipPath>
	<path class="st5" d="M171,9.1c0,0-11.3,10.4-8,11.9s43-2.8,43-2.8"/>
</g>
</svg>
