<?xml version="1.0" encoding="utf-8"?>
<!-- Generator: Adobe Illustrator 21.0.2, SVG Export Plug-In . SVG Version: 6.00 Build 0)  -->
<svg version="1.1" id="Layer_1" xmlns="http://www.w3.org/2000/svg" xmlns:xlink="http://www.w3.org/1999/xlink" x="0px" y="0px"
	 viewBox="0 0 100 100" style="enable-background:new 0 0 100 100;" xml:space="preserve">
<style type="text/css">
	.st0{fill:#CCCCCC;}
</style>
<title>icon--instagram</title>
<g id="Your_Icon">
	<g id="Instagram_Icon">
		<path class="st0" d="M62.5,49.3c0,6.9-5.6,12.5-12.5,12.5s-12.5-5.6-12.5-12.5c0-1.5,0.3-3,0.8-4.4H23v18.6C23,71,29,77,36.5,77
			h27C71,77,77,71,77,63.5c0,0,0,0,0,0l0,0V44.9H61.7C62.2,46.3,62.5,47.8,62.5,49.3z"/>
		<circle class="st0" cx="50" cy="49.3" r="7.5"/>
		<path class="st0" d="M63.5,23H37.2v14.1h-3V23.2c-1,0.2-2,0.4-3,0.8v13h-3V25.8c-3.3,2.6-5.2,6.5-5.2,10.7v4h18.2
			c4.9-4.8,12.7-4.8,17.6,0H77v-4C77,29,71,23,63.5,23z M69.5,35.8c0,0.8-0.7,1.5-1.5,1.5h-4.5c-0.8,0-1.5-0.7-1.5-1.5l0,0l0,0v-4.6
			c0-0.8,0.7-1.5,1.5-1.5l0,0H68c0.8,0,1.5,0.7,1.5,1.5L69.5,35.8z"/>
	</g>
</g>
</svg>
