<?xml version="1.0" encoding="utf-8"?>
<!-- Generator: Adobe Illustrator 21.0.2, SVG Export Plug-In . SVG Version: 6.00 Build 0)  -->
<svg version="1.1" id="Layer_1" xmlns="http://www.w3.org/2000/svg" xmlns:xlink="http://www.w3.org/1999/xlink" x="0px" y="0px"
	 viewBox="0 0 100 100" style="enable-background:new 0 0 100 100;" xml:space="preserve">
<style type="text/css">
	.st0{fill:#CCCCCC;}
</style>
<title>icon--youtube</title>
<path class="st0" d="M76,39.3c0,0-0.5-3.7-2.1-5.3c-1.4-1.4-3.3-2.2-5.3-2.2C61.2,31.3,50,31.3,50,31.3s-11.1,0-18.6,0.5
	c-2,0-3.9,0.8-5.3,2.2c-1.6,1.6-2.1,5.3-2.1,5.3c-0.3,2.9-0.5,5.7-0.5,8.6v4c0,2.9,0.2,5.7,0.5,8.6c0,0,0.5,3.7,2.1,5.3
	c2,2.1,4.7,2,5.8,2.3c4.2,0.4,18,0.5,18,0.5s11.1,0,18.6-0.6c2,0,3.9-0.8,5.3-2.2c1.6-1.6,2.1-5.3,2.1-5.3c0.3-2.9,0.5-5.7,0.5-8.6
	v-4C76.4,45.1,76.3,42.2,76,39.3z M44.5,56.8V42l14.3,7.5L44.5,56.8z"/>
</svg>
