<?xml version="1.0" encoding="utf-8"?>
<!-- Generator: Adobe Illustrator 21.0.2, SVG Export Plug-In . SVG Version: 6.00 Build 0)  -->
<svg version="1.1" id="Layer_1" xmlns="http://www.w3.org/2000/svg" xmlns:xlink="http://www.w3.org/1999/xlink" x="0px" y="0px"
	 viewBox="0 0 100 100" style="enable-background:new 0 0 100 100;" xml:space="preserve">
<style type="text/css">
	.st0{fill:#CCCCCC;}
</style>
<title>icon--email</title>
<path class="st0" d="M80,29H20c-1-0.1-1.9,0.7-2,1.8c0,0.1,0,0.2,0,0.2v38c-0.1,1,0.7,1.9,1.8,2c0.1,0,0.2,0,0.2,0h60
	c1,0.1,1.9-0.7,2-1.8c0-0.1,0-0.2,0-0.2V31c0.1-1-0.7-1.9-1.8-2C80.2,29,80.1,29,80,29z M80,67.4L63,46.6l17-12.4V67.4z M20,31h60
	v0.8L56.4,49c-3.8,2.7-9,2.7-12.8,0L20,31.8V31z M20,34.2l17,12.4L20,67.4V34.2z M21.2,69l17.2-21.2l3.8,2.8
	c2.2,1.6,4.9,2.5,7.6,2.4c2.7,0.1,5.4-0.8,7.6-2.4l3.8-2.8L78.4,69H21.2z"/>
</svg>
