<svg id="Layer_1" data-name="Layer 1" xmlns="http://www.w3.org/2000/svg" xmlns:xlink="http://www.w3.org/1999/xlink" viewBox="0 0 100 100"><defs><style>.cls-1,.cls-6,.cls-7,.cls-8{fill:none;}.cls-2{fill:#828198;}.cls-3{clip-path:url(#clip-path);}.cls-4{clip-path:url(#clip-path-2);}.cls-5{fill:#fff;}.cls-6,.cls-7,.cls-8{stroke:#434344;stroke-miterlimit:10;}.cls-6{stroke-width:1.42px;}.cls-7{stroke-width:2.18px;}.cls-8{stroke-linecap:round;stroke-width:1.09px;}.cls-9{clip-path:url(#clip-path-3);}.cls-10{clip-path:url(#clip-path-4);}.cls-11{font-size:12.54px;fill:#232020;font-family:MyriadPro-Regular, Myriad Pro;}.cls-12{letter-spacing:-0.01em;}.cls-13{letter-spacing:-0.01em;}.cls-14{letter-spacing:-0.01em;}</style><clipPath id="clip-path"><rect class="cls-1" x="-119.74" y="128.6" width="87.74" height="82.34"/></clipPath><clipPath id="clip-path-2"><rect class="cls-1" x="-118.74" y="129.6" width="85.75" height="80.34"/></clipPath><clipPath id="clip-path-3"><rect class="cls-1" x="6.26" y="128.68" width="87.74" height="82.34"/></clipPath><clipPath id="clip-path-4"><rect class="cls-1" x="7.26" y="129.68" width="85.75" height="80.34"/></clipPath></defs><title>icon--close</title><polygon class="cls-2" points="49.97 42.25 77.02 15.25 84.84 23.06 57.78 50.03 84.77 76.94 76.95 84.75 49.97 57.81 22.95 84.74 15.22 76.94 42.18 50.02 15.16 23.04 22.89 15.25 49.97 42.25"/><g class="cls-3"><g class="cls-4"><rect class="cls-5" x="-0.78" y="36.2" width="69.75" height="69.75"/><path class="cls-5" d="M58.22,98.63a1.86,1.86,0,0,1-2.09,1.58L20.62,95.3A1.86,1.86,0,0,1,19,93.21l6.55-47.42a1.86,1.86,0,0,1,2.09-1.58l35.51,4.91a1.86,1.86,0,0,1,1.58,2.09Z"/><path class="cls-6" d="M58.22,98.63a1.86,1.86,0,0,1-2.09,1.58L20.62,95.3A1.86,1.86,0,0,1,19,93.21l6.55-47.42a1.86,1.86,0,0,1,2.09-1.58l35.51,4.91a1.86,1.86,0,0,1,1.58,2.09Z"/><rect class="cls-5" x="4.94" y="41.72" width="46.13" height="60.16" rx="1.85" ry="1.85"/><rect class="cls-7" x="4.94" y="41.72" width="46.13" height="60.16" rx="1.85" ry="1.85"/><line class="cls-8" x1="12.11" y1="54.8" x2="43.9" y2="54.8"/><line class="cls-8" x1="12.11" y1="63.3" x2="43.9" y2="63.3"/><line class="cls-8" x1="12.11" y1="71.8" x2="43.9" y2="71.8"/><line class="cls-8" x1="12.11" y1="80.3" x2="43.9" y2="80.3"/><line class="cls-8" x1="12.11" y1="88.8" x2="43.9" y2="88.8"/></g></g><g class="cls-9"><g class="cls-10"><text class="cls-11" transform="translate(-116.27 109.26)">I<tspan class="cls-12" x="3" y="0">c</tspan><tspan x="8.54" y="0">on set </tspan><tspan class="cls-13" x="43.09" y="0">f</tspan><tspan x="46.6" y="0">or dashboa</tspan><tspan class="cls-14" x="105.33" y="0">r</tspan><tspan x="109.31" y="0">ds</tspan></text></g></g></svg>