<?xml version="1.0" encoding="utf-8"?>
<!-- Generator: Adobe Illustrator 21.0.2, SVG Export Plug-In . SVG Version: 6.00 Build 0)  -->
<svg version="1.1" id="Layer_1" xmlns="http://www.w3.org/2000/svg" xmlns:xlink="http://www.w3.org/1999/xlink" x="0px" y="0px"
	 viewBox="0 0 100 100" style="enable-background:new 0 0 100 100;" xml:space="preserve">
<style type="text/css">
	.st0{fill:#CCCCCC;}
</style>
<title>icon--twitter</title>
<path class="st0" d="M76.9,33.3c-2,0.9-4.2,1.5-6.4,1.7c2.3-1.4,4-3.6,4.9-6.1c-2.2,1.3-4.5,2.2-7,2.7c-2.1-2.3-5-3.5-8.1-3.5
	c-6.1,0-11.1,5-11.1,11.1c0,0.8,0.1,1.7,0.3,2.5c-8.9-0.5-17.2-4.7-22.8-11.6c-1,1.7-1.5,3.6-1.5,5.6c0,3.7,1.9,7.1,4.9,9.2
	c-1.7-0.1-3.5-0.6-5-1.4v0.1c0,5.3,3.7,9.8,8.9,10.9c-0.9,0.3-1.9,0.4-2.9,0.4c-0.7,0-1.4-0.1-2.1-0.2c1.4,4.5,5.6,7.6,10.3,7.7
	c-3.9,3.1-8.7,4.7-13.7,4.7c-0.9,0-1.7-0.1-2.6-0.2c5.1,3.2,11,5,17,5C60.3,72,71.4,55.1,71.4,40.5v-1.4
	C73.6,37.5,75.5,35.5,76.9,33.3z"/>
</svg>
