<?xml version="1.0" encoding="utf-8"?>
<!-- Generator: Adobe Illustrator 21.1.0, SVG Export Plug-In . SVG Version: 6.00 Build 0)  -->
<svg version="1.1"
	 id="Layer_1" xmlns:cc="http://creativecommons.org/ns#" xmlns:dc="http://purl.org/dc/elements/1.1/" xmlns:inkscape="http://www.inkscape.org/namespaces/inkscape" xmlns:rdf="http://www.w3.org/1999/02/22-rdf-syntax-ns#" xmlns:sodipodi="http://sodipodi.sourceforge.net/DTD/sodipodi-0.dtd" xmlns:svg="http://www.w3.org/2000/svg"
	 xmlns="http://www.w3.org/2000/svg" xmlns:xlink="http://www.w3.org/1999/xlink" x="0px" y="0px" viewBox="0 0 100 100"
	 style="enable-background:new 0 0 100 100;" xml:space="preserve">
<g transform="translate(0,-952.36218)">
	<path d="M43.8,957.4c-0.5,0-0.8,0.4-1,0.7L40,968.2c-2.5,0.7-4.8,1.7-7,2.9l-9.2-5.2c-0.4-0.2-0.9-0.2-1.2,0.2l-8.7,8.7
		c-0.3,0.3-0.4,0.8-0.2,1.2l5.2,9.3c-1.2,2.2-2.2,4.5-2.9,7l-10.2,2.9c-0.4,0.1-0.7,0.5-0.7,1v12.3c0,0.4,0.3,0.8,0.7,0.9l10.2,2.9
		c0.7,2.4,1.7,4.8,2.9,7l-5.2,9.3c-0.2,0.4-0.1,0.9,0.2,1.2l8.7,8.7c0.3,0.3,0.8,0.4,1.2,0.2l9.2-5.2c2.2,1.2,4.6,2.2,7,2.9
		l2.9,10.2c0.1,0.4,0.5,0.8,1,0.8h12.3c0.4,0,0.9-0.3,1-0.8l2.9-10.2c2.5-0.7,4.8-1.7,7-2.9l9.2,5.2c0.4,0.2,0.9,0.2,1.2-0.2
		l8.7-8.7c0.3-0.3,0.4-0.8,0.2-1.2l-5.2-9.3c1.2-2.2,2.2-4.5,2.9-7l10.2-2.9c0.4-0.1,0.7-0.5,0.7-0.9v-12.3c0-0.4-0.3-0.8-0.7-1
		l-10.2-2.9c-0.7-2.4-1.7-4.8-2.9-7l5.2-9.3c0.2-0.4,0.1-0.9-0.2-1.2l-8.7-8.7c-0.3-0.3-0.8-0.4-1.2-0.2l-9.2,5.2
		c-2.2-1.2-4.6-2.2-7-2.9l-2.9-10.2c-0.1-0.4-0.5-0.7-1-0.7H43.8z M44.6,959.4h10.8l2.8,9.9c0.1,0.3,0.4,0.6,0.7,0.7
		c2.7,0.7,5.2,1.8,7.6,3.2c0.3,0.2,0.7,0.2,1,0l9.1-5l7.6,7.6l-5,9.1c-0.2,0.3-0.2,0.7,0,1c1.4,2.4,2.4,4.9,3.2,7.6
		c0.1,0.3,0.4,0.6,0.7,0.7l9.9,2.8v10.8l-9.9,2.8c-0.3,0.1-0.6,0.4-0.7,0.7c-0.7,2.7-1.8,5.3-3.2,7.7c-0.2,0.3-0.2,0.7,0,1l5,9.1
		l-7.6,7.6l-9.1-5.1c-0.3-0.2-0.7-0.2-1,0c-2.4,1.4-4.9,2.4-7.6,3.2c-0.3,0.1-0.6,0.4-0.7,0.7l-2.8,10H44.6l-2.8-10
		c-0.1-0.3-0.4-0.6-0.7-0.7c-2.7-0.7-5.2-1.8-7.6-3.2c-0.3-0.2-0.7-0.2-1,0l-9.1,5.1l-7.6-7.6l5-9.1c0.2-0.3,0.2-0.7,0-1
		c-1.4-2.4-2.4-5-3.2-7.7c-0.1-0.3-0.4-0.6-0.7-0.7l-9.9-2.8v-10.8l9.9-2.8c0.3-0.1,0.6-0.4,0.7-0.7c0.7-2.7,1.8-5.2,3.2-7.6
		c0.2-0.3,0.2-0.7,0-1l-5-9.1l7.6-7.6l9.1,5c0.3,0.2,0.7,0.2,1,0c2.4-1.4,4.9-2.4,7.6-3.2c0.3-0.1,0.6-0.4,0.7-0.7L44.6,959.4z
		 M50,981.4c-11.6,0-21,9.4-21,21c0,11.6,9.4,21,21,21s21-9.4,21-21C71,990.8,61.6,981.4,50,981.4L50,981.4z M50,983.4
		c10.5,0,19,8.5,19,19c0,10.5-8.5,19-19,19s-19-8.5-19-19C31,991.9,39.5,983.4,50,983.4L50,983.4z"/>
</g>
</svg>
